CommissionerFlair-SemiBold.ufo
<glyph name="numbersign" format="2">
  <advance width="693.6315789473684"/>
  <unicode hex="0023"/>
  <outline>
    <contour>
      <point x="14.736842105263158" y="132.68421052631578" type="line"/>
      <point x="81.6842105263158" y="137.31578947368422"/>
      <point x="145.10526315789474" y="137.8421052631579"/>
      <point x="200.0" y="137.8421052631579" type="curve"/>
      <point x="441.57894736842104" y="137.8421052631579" type="line"/>
      <point x="496.4736842105263" y="137.8421052631579"/>
      <point x="559.8947368421052" y="137.31578947368422"/>
      <point x="626.8421052631579" y="132.68421052631578" type="curve"/>
      <point x="626.8421052631579" y="240.47368421052633" type="line"/>
      <point x="559.8947368421052" y="235.8421052631579"/>
      <point x="496.4736842105263" y="235.31578947368422"/>
      <point x="441.57894736842104" y="235.31578947368422" type="curve"/>
      <point x="200.0" y="235.31578947368422" type="line"/>
      <point x="145.10526315789474" y="235.31578947368422"/>
      <point x="81.6842105263158" y="235.8421052631579"/>
      <point x="14.736842105263158" y="240.47368421052633" type="curve"/>
    </contour>
    <contour>
      <point x="100.63157894736842" y="0.0" type="curve"/>
      <point x="219.31578947368422" y="0.0" type="line"/>
      <point x="223.36842105263156" y="68.52631578947368"/>
      <point x="234.31578947368422" y="129.73684210526315"/>
      <point x="250.21052631578948" y="214.26315789473685" type="curve"/>
      <point x="292.89473684210526" y="442.94736842105266" type="line"/>
      <point x="309.2631578947368" y="533.5263157894736"/>
      <point x="320.6842105263158" y="590.9473684210526"/>
      <point x="341.89473684210526" y="663.5263157894736" type="curve"/>
      <point x="224.26315789473685" y="663.5263157894736" type="line"/>
      <point x="218.6842105263158" y="588.8421052631578"/>
      <point x="209.31578947368422" y="531.9473684210526"/>
      <point x="192.94736842105263" y="443.89473684210526" type="curve"/>
      <point x="150.26315789473685" y="214.26315789473685" type="line"/>
      <point x="134.3684210526316" y="128.68421052631578"/>
      <point x="120.36842105263158" y="66.42105263157895"/>
    </contour>
    <contour>
      <point x="66.78947368421052" y="420.0526315789474" type="line"/>
      <point x="133.73684210526315" y="424.6842105263158"/>
      <point x="197.1578947368421" y="425.2105263157895"/>
      <point x="252.05263157894737" y="425.2105263157895" type="curve"/>
      <point x="493.63157894736844" y="425.2105263157895" type="line"/>
      <point x="548.5263157894736" y="425.2105263157895"/>
      <point x="611.9473684210526" y="424.6842105263158"/>
      <point x="678.8947368421052" y="420.0526315789474" type="curve"/>
      <point x="678.8947368421052" y="527.8421052631579" type="line"/>
      <point x="611.9473684210526" y="523.2105263157895"/>
      <point x="548.5263157894736" y="522.6842105263158"/>
      <point x="493.63157894736844" y="522.6842105263158" type="curve"/>
      <point x="252.05263157894737" y="522.6842105263158" type="line"/>
      <point x="197.1578947368421" y="522.6842105263158"/>
      <point x="133.73684210526315" y="523.2105263157895"/>
      <point x="66.78947368421052" y="527.8421052631579" type="curve"/>
    </contour>
    <contour>
      <point x="346.42105263157896" y="0.0" type="curve"/>
      <point x="465.1052631578947" y="0.0" type="line"/>
      <point x="469.1578947368421" y="68.52631578947368"/>
      <point x="480.10526315789474" y="129.73684210526315"/>
      <point x="496.0" y="214.26315789473685" type="curve"/>
      <point x="538.6842105263158" y="442.94736842105266" type="line"/>
      <point x="555.0526315789474" y="533.5263157894736"/>
      <point x="566.4736842105262" y="590.9473684210526"/>
      <point x="587.6842105263157" y="663.5263157894736" type="curve"/>
      <point x="470.0526315789474" y="663.5263157894736" type="line"/>
      <point x="464.4736842105263" y="588.8421052631578"/>
      <point x="455.10526315789474" y="531.9473684210526"/>
      <point x="438.7368421052632" y="443.89473684210526" type="curve"/>
      <point x="396.05263157894734" y="214.26315789473685" type="line"/>
      <point x="380.1578947368421" y="128.68421052631578"/>
      <point x="366.1578947368421" y="66.42105263157895"/>
    </contour>
  </outline>
</glyph>
<glyph name="dollar" format="2">
  <advance width="570.9473684210526"/>
  <unicode hex="0024"/>
  <outline>
    <contour>
      <point x="285.2631578947368" y="-12.157894736842106" type="curve" smooth="yes"/>
      <point x="461.1578947368421" y="-12.157894736842106"/>
      <point x="538.2105263157895" y="70.6842105263158"/>
      <point x="538.2105263157895" y="192.78947368421052" type="curve" smooth="yes"/>
      <point x="538.2105263157895" y="299.7368421052632"/>
      <point x="486.1578947368421" y="348.7894736842105"/>
      <point x="323.7368421052632" y="398.5263157894737" type="curve" smooth="yes"/>
      <point x="215.52631578947367" y="432.4736842105263"/>
      <point x="168.5263157894737" y="448.2631578947368"/>
      <point x="168.5263157894737" y="499.8421052631579" type="curve" smooth="yes"/>
      <point x="168.5263157894737" y="559.8421052631579"/>
      <point x="230.4736842105263" y="584.6315789473684"/>
      <point x="297.8421052631579" y="585.578947368421" type="curve"/>
      <point x="331.7894736842105" y="585.578947368421"/>
      <point x="405.0" y="567.5263157894736"/>
      <point x="487.63157894736844" y="529.6315789473684" type="curve"/>
      <point x="498.8421052631579" y="653.0" type="line"/>
      <point x="447.7894736842105" y="668.7368421052631"/>
      <point x="352.2631578947368" y="698.1052631578947"/>
      <point x="278.2105263157895" y="698.1052631578947" type="curve" smooth="yes"/>
      <point x="121.05263157894737" y="698.1052631578947"/>
      <point x="44.421052631578945" y="615.3157894736842"/>
      <point x="44.421052631578945" y="499.3157894736842" type="curve" smooth="yes"/>
      <point x="44.421052631578945" y="382.89473684210526"/>
      <point x="116.73684210526315" y="337.1578947368421"/>
      <point x="242.31578947368422" y="299.4736842105263" type="curve" smooth="yes"/>
      <point x="349.0526315789474" y="267.36842105263156"/>
      <point x="414.63157894736844" y="248.6315789473684"/>
      <point x="414.63157894736844" y="191.1578947368421" type="curve" smooth="yes"/>
      <point x="414.63157894736844" y="125.05263157894737"/>
      <point x="359.4736842105263" y="99.21052631578947"/>
      <point x="280.0" y="98.26315789473684" type="curve"/>
      <point x="219.6842105263158" y="98.26315789473684"/>
      <point x="136.6315789473684" y="122.84210526315789"/>
      <point x="65.3157894736842" y="155.73684210526315" type="curve"/>
      <point x="54.526315789473685" y="29.789473684210527" type="line"/>
      <point x="105.52631578947368" y="15.578947368421053"/>
      <point x="185.10526315789474" y="-12.157894736842106"/>
    </contour>
    <contour>
      <point x="235.57894736842104" y="-137.0" type="curve"/>
      <point x="348.52631578947364" y="-137.0" type="line"/>
      <point x="341.7894736842105" y="-19.0"/>
      <point x="341.2631578947368" y="84.0"/>
      <point x="341.2631578947368" y="192.0" type="curve"/>
      <point x="341.2631578947368" y="474.0" type="line"/>
      <point x="341.2631578947368" y="582.0"/>
      <point x="341.7894736842105" y="685.0"/>
      <point x="348.52631578947364" y="803.0" type="curve"/>
      <point x="235.57894736842104" y="803.0" type="line"/>
      <point x="242.31578947368422" y="685.0"/>
      <point x="242.8421052631579" y="582.0"/>
      <point x="242.8421052631579" y="474.0" type="curve"/>
      <point x="242.8421052631579" y="192.0" type="line"/>
      <point x="242.8421052631579" y="84.0"/>
      <point x="242.31578947368422" y="-19.0"/>
    </contour>
  </outline>
</glyph>
<glyph name="ampersand" format="2">
  <advance width="760.6893203883496"/>
  <unicode hex="0026"/>
  <outline>
    <contour>
      <point x="573.2912621359224" y="0.0" type="curve"/>
      <point x="758.3300970873786" y="0.0" type="line"/>
      <point x="684.0582524271844" y="68.01941747572816"/>
      <point x="618.7961165048544" y="136.0388349514563"/>
      <point x="554.5339805825242" y="204.05825242718447" type="curve"/>
      <point x="339.68932038834953" y="429.0485436893204" type="line" smooth="yes"/>
      <point x="290.2135922330097" y="479.90291262135923"/>
      <point x="269.8446601941747" y="515.0097087378641"/>
      <point x="269.8446601941747" y="555.4951456310679" type="curve" smooth="yes"/>
      <point x="269.8446601941747" y="601.4660194174758"/>
      <point x="299.4563106796116" y="630.6990291262136"/>
      <point x="345.04854368932035" y="633.8252427184466" type="curve"/>
      <point x="388.2718446601942" y="630.6990291262136"/>
      <point x="421.62135922330094" y="601.3398058252428"/>
      <point x="421.62135922330094" y="559.6116504854368" type="curve" smooth="yes"/>
      <point x="421.62135922330094" y="507.7766990291263"/>
      <point x="368.1553398058252" y="476.7669902912622"/>
      <point x="316.94174757281553" y="444.02912621359224" type="curve"/>
      <point x="380.34951456310677" y="369.0" type="line"/>
      <point x="440.07766990291265" y="409.873786407767"/>
      <point x="538.6990291262135" y="475.87378640776694"/>
      <point x="538.6990291262135" y="563.6213592233009" type="curve" smooth="yes"/>
      <point x="538.6990291262135" y="668.0"/>
      <point x="451.4466019417476" y="727.252427184466"/>
      <point x="338.41747572815535" y="727.252427184466" type="curve" smooth="yes"/>
      <point x="228.1359223300971" y="727.252427184466"/>
      <point x="139.35922330097088" y="665.5048543689321"/>
      <point x="139.35922330097088" y="553.6116504854369" type="curve" smooth="yes"/>
      <point x="139.35922330097088" y="484.368932038835"/>
      <point x="175.4757281553398" y="429.36893203883494"/>
      <point x="232.2135922330097" y="369.126213592233" type="curve" smooth="yes"/>
      <point x="453.81553398058253" y="136.0" type="line"/>
      <point x="497.31067961165047" y="91.0"/>
      <point x="541.8058252427184" y="44.12621359223301"/>
    </contour>
    <contour>
      <point x="262.2330097087379" y="-11.37864077669903" type="curve" smooth="yes"/>
      <point x="343.09708737864077" y="-11.37864077669903"/>
      <point x="413.59223300970876" y="26.35922330097087"/>
      <point x="484.08737864077665" y="93.46601941747574" type="curve"/>
      <point x="497.4660194174757" y="93.46601941747574" type="line"/>
      <point x="493.97087378640776" y="114.09708737864078" type="line"/>
      <point x="425.94174757281553" y="185.12621359223303" type="line"/>
      <point x="378.85436893203877" y="127.05825242718447"/>
      <point x="317.2621359223301" y="95.58252427184468"/>
      <point x="284.15533980582524" y="95.58252427184468" type="curve"/>
      <point x="211.8155339805825" y="98.58252427184468"/>
      <point x="166.84466019417474" y="140.5631067961165"/>
      <point x="166.84466019417474" y="202.90291262135923" type="curve" smooth="yes"/>
      <point x="166.84466019417474" y="263.8543689320388"/>
      <point x="207.6796116504854" y="309.45631067961165"/>
      <point x="271.88349514563106" y="339.44660194174753" type="curve"/>
      <point x="215.83495145631068" y="417.24271844660194" type="line"/>
      <point x="124.70873786407765" y="377.11650485436894"/>
      <point x="39.22330097087379" y="308.11650485436894"/>
      <point x="39.22330097087379" y="186.873786407767" type="curve" smooth="yes"/>
      <point x="39.22330097087379" y="74.49514563106796"/>
      <point x="113.60194174757281" y="-11.37864077669903"/>
    </contour>
    <contour>
      <point x="570.9320388349514" y="174.6116504854369" type="line"/>
      <point x="619.8155339805825" y="235.10679611650485"/>
      <point x="667.9514563106795" y="293.8543689320388"/>
      <point x="721.5922330097088" y="348.97087378640776" type="curve"/>
      <point x="603.2330097087378" y="425.5436893203883" type="line"/>
      <point x="572.990291262136" y="361.66990291262135"/>
      <point x="537.1165048543689" y="304.7961165048544"/>
      <point x="498.49514563106794" y="245.4271844660194" type="curve"/>
    </contour>
  </outline>
</glyph>
<glyph name="parenleft" format="2">
  <advance width="404.5263157894737"/>
  <unicode hex="0028"/>
  <outline>
    <contour>
      <point x="272.05263157894734" y="-129.3684210526316" type="curve"/>
      <point x="378.6842105263158" y="-89.63157894736842" type="line"/>
      <point x="269.6315789473684" y="21.947368421052634"/>
      <point x="182.0" y="142.57894736842107"/>
      <point x="182.0" y="323.4736842105263" type="curve" smooth="yes"/>
      <point x="182.0" y="504.8421052631579"/>
      <point x="269.6315789473684" y="625.0"/>
      <point x="378.6842105263158" y="736.578947368421" type="curve"/>
      <point x="272.05263157894734" y="776.3157894736842" type="line"/>
      <point x="167.57894736842107" y="677.7368421052631"/>
      <point x="48.94736842105263" y="528.7894736842105"/>
      <point x="48.94736842105263" y="323.4736842105263" type="curve" smooth="yes"/>
      <point x="48.94736842105263" y="118.63157894736841"/>
      <point x="167.57894736842107" y="-30.78947368421052"/>
    </contour>
  </outline>
</glyph>
<glyph name="asterisk" format="2">
  <advance width="486.9473684210526"/>
  <unicode hex="002A"/>
  <outline>
    <contour>
      <point x="416.84210526315786" y="358.1578947368421" type="curve"/>
      <point x="464.2631578947368" y="439.2105263157894" type="line"/>
      <point x="394.0" y="470.9473684210526"/>
      <point x="325.3157894736842" y="504.7368421052632"/>
      <point x="257.57894736842104" y="539.5263157894736" type="curve"/>
      <point x="193.57894736842104" y="583.6842105263158"/>
      <point x="131.57894736842104" y="628.3684210526316"/>
      <point x="70.10526315789474" y="675.1052631578947" type="curve"/>
      <point x="22.684210526315788" y="594.0526315789474" type="line"/>
      <point x="92.94736842105263" y="562.3157894736843"/>
      <point x="162.1578947368421" y="528.5263157894738"/>
      <point x="230.3684210526316" y="492.7368421052632" type="curve"/>
      <point x="293.36842105263156" y="449.57894736842104"/>
      <point x="355.36842105263156" y="404.3684210526316"/>
    </contour>
    <contour>
      <point x="70.63157894736842" y="358.1578947368421" type="line"/>
      <point x="131.57894736842104" y="404.89473684210526"/>
      <point x="194.1052631578947" y="449.57894736842104"/>
      <point x="257.57894736842104" y="493.7368421052631" type="curve"/>
      <point x="325.3157894736842" y="528.5263157894738"/>
      <point x="394.5263157894737" y="562.3157894736843"/>
      <point x="464.2631578947368" y="594.578947368421" type="curve"/>
      <point x="416.84210526315786" y="675.1052631578947" type="line"/>
      <point x="355.36842105263156" y="628.3684210526316"/>
      <point x="293.36842105263156" y="583.6842105263158"/>
      <point x="230.3684210526316" y="540.0" type="curve"/>
      <point x="161.63157894736844" y="504.7368421052632"/>
      <point x="92.94736842105263" y="470.9473684210526"/>
      <point x="22.684210526315788" y="439.2105263157894" type="curve"/>
    </contour>
    <contour>
      <point x="196.26315789473685" y="287.1578947368421" type="curve"/>
      <point x="290.6842105263158" y="287.1578947368421" type="line"/>
      <point x="281.89473684210526" y="363.7368421052632"/>
      <point x="275.6842105263158" y="440.3157894736842"/>
      <point x="269.9473684210526" y="517.3684210526316" type="curve"/>
      <point x="275.6842105263158" y="593.4736842105264"/>
      <point x="281.89473684210526" y="670.0526315789474"/>
      <point x="290.1578947368421" y="746.6315789473684" type="curve"/>
      <point x="196.26315789473685" y="746.6315789473684" type="line"/>
      <point x="205.05263157894737" y="670.0526315789474"/>
      <point x="211.26315789473685" y="593.4736842105264"/>
      <point x="217.0" y="517.3684210526316" type="curve"/>
      <point x="211.26315789473685" y="440.3157894736842"/>
      <point x="205.05263157894737" y="363.7368421052632"/>
    </contour>
  </outline>
</glyph>
<glyph name="plus" format="2">
  <advance width="595.7894736842105"/>
  <unicode hex="002B"/>
  <outline>
    <contour>
      <point x="234.05263157894737" y="53.94736842105263" type="curve"/>
      <point x="361.7368421052631" y="53.94736842105263" type="line"/>
      <point x="357.10526315789474" y="120.89473684210526"/>
      <point x="356.57894736842104" y="184.31578947368422"/>
      <point x="356.57894736842104" y="239.21052631578948" type="curve"/>
      <point x="356.57894736842104" y="365.5263157894737" type="line"/>
      <point x="356.57894736842104" y="420.42105263157896"/>
      <point x="357.10526315789474" y="483.8421052631579"/>
      <point x="361.7368421052631" y="550.7894736842105" type="curve"/>
      <point x="234.05263157894737" y="550.7894736842105" type="line"/>
      <point x="238.6842105263158" y="483.8421052631579"/>
      <point x="239.21052631578948" y="420.42105263157896"/>
      <point x="239.21052631578948" y="365.5263157894737" type="curve"/>
      <point x="239.21052631578948" y="239.21052631578948" type="line"/>
      <point x="239.21052631578948" y="184.31578947368422"/>
      <point x="238.6842105263158" y="120.89473684210526"/>
    </contour>
    <contour>
      <point x="54.21052631578947" y="240.10526315789474" type="line"/>
      <point x="121.15789473684211" y="244.73684210526318"/>
      <point x="184.57894736842104" y="245.26315789473685"/>
      <point x="239.4736842105263" y="245.26315789473685" type="curve"/>
      <point x="356.3157894736842" y="245.26315789473685" type="line"/>
      <point x="411.2105263157895" y="245.26315789473685"/>
      <point x="474.63157894736844" y="244.73684210526318"/>
      <point x="541.578947368421" y="240.10526315789474" type="curve"/>
      <point x="541.578947368421" y="364.6315789473684" type="line"/>
      <point x="474.63157894736844" y="360.0"/>
      <point x="411.2105263157895" y="359.4736842105263"/>
      <point x="356.3157894736842" y="359.4736842105263" type="curve"/>
      <point x="239.4736842105263" y="359.4736842105263" type="line"/>
      <point x="184.57894736842104" y="359.4736842105263"/>
      <point x="121.15789473684211" y="360.0"/>
      <point x="54.21052631578947" y="364.6315789473684" type="curve"/>
    </contour>
  </outline>
</glyph>
<glyph name="comma" format="2">
  <advance width="244.52631578947367"/>
  <unicode hex="002C"/>
  <outline>
    <contour>
      <point x="18.157894736842106" y="-157.0" type="curve"/>
      <point x="87.21052631578948" y="-155.47368421052633" type="line"/>
      <point x="128.0" y="-109.63157894736842"/>
      <point x="201.5263157894737" y="-10.105263157894736"/>
      <point x="201.5263157894737" y="66.63157894736842" type="curve" smooth="yes"/>
      <point x="201.5263157894737" y="114.3157894736842"/>
      <point x="180.4736842105263" y="150.78947368421052"/>
      <point x="130.57894736842104" y="156.5263157894737" type="curve"/>
      <point x="57.736842105263165" y="151.31578947368422" type="line"/>
      <point x="66.52631578947368" y="111.0"/>
      <point x="70.15789473684211" y="70.68421052631578"/>
      <point x="70.15789473684211" y="33.526315789473685" type="curve"/>
      <point x="70.15789473684211" y="-26.631578947368418"/>
      <point x="49.26315789473684" y="-98.52631578947368"/>
    </contour>
  </outline>
</glyph>
<glyph name="hyphen" format="2">
  <advance width="425.2631578947368"/>
  <unicode hex="002D"/>
  <outline>
    <contour>
      <point x="54.21052631578947" y="237.47368421052633" type="line"/>
      <point x="111.52631578947368" y="242.10526315789477"/>
      <point x="165.8421052631579" y="242.63157894736844"/>
      <point x="212.6315789473684" y="242.63157894736844" type="curve"/>
      <point x="259.42105263157896" y="242.63157894736844"/>
      <point x="313.7368421052632" y="242.10526315789477"/>
      <point x="371.05263157894734" y="237.47368421052633" type="curve"/>
      <point x="371.05263157894734" y="362.0" type="line"/>
      <point x="313.7368421052632" y="357.3684210526316"/>
      <point x="259.42105263157896" y="356.8421052631579"/>
      <point x="212.6315789473684" y="356.8421052631579" type="curve"/>
      <point x="165.8421052631579" y="356.8421052631579"/>
      <point x="111.52631578947368" y="357.3684210526316"/>
      <point x="54.21052631578947" y="362.0" type="curve"/>
    </contour>
  </outline>
</glyph>
<glyph name="slash" format="2">
  <advance width="462.7368421052631"/>
  <unicode hex="002F"/>
  <outline>
    <contour>
      <point x="15.894736842105265" y="0.0" type="curve"/>
      <point x="161.8421052631579" y="0.0" type="line"/>
      <point x="183.3157894736842" y="74.0"/>
      <point x="207.10526315789474" y="137.0"/>
      <point x="243.8421052631579" y="228.0" type="curve"/>
      <point x="342.1578947368421" y="474.0" type="line"/>
      <point x="380.89473684210526" y="571.0"/>
      <point x="407.7368421052632" y="636.0"/>
      <point x="446.8421052631579" y="713.0" type="curve"/>
      <point x="301.42105263157896" y="713.0" type="line"/>
      <point x="278.4736842105263" y="636.0"/>
      <point x="253.68421052631578" y="570.4736842105264"/>
      <point x="215.94736842105263" y="476.0" type="curve"/>
      <point x="116.63157894736841" y="228.0" type="line"/>
      <point x="79.89473684210526" y="137.0"/>
      <point x="53.05263157894737" y="74.0"/>
    </contour>
  </outline>
</glyph>
<glyph name="one" format="2">
  <advance width="451.1578947368421"/>
  <unicode hex="0031"/>
  <outline>
    <contour>
      <point x="58.94736842105264" y="445.1052631578947" type="line"/>
      <point x="132.52631578947367" y="491.7368421052632"/>
      <point x="208.21052631578948" y="531.0526315789474"/>
      <point x="284.89473684210526" y="569.3684210526316" type="curve"/>
      <point x="289.63157894736844" y="691.2631578947369" type="line"/>
      <point x="201.0" y="647.2631578947369"/>
      <point x="112.3157894736842" y="603.7368421052631"/>
      <point x="21.63157894736842" y="568.0" type="curve"/>
    </contour>
    <contour>
      <point x="209.42105263157893" y="0.0" type="curve"/>
      <point x="366.0" y="0.0" type="line"/>
      <point x="358.2631578947368" y="71.84210526315789"/>
      <point x="355.10526315789474" y="134.21052631578948"/>
      <point x="355.10526315789474" y="216.78947368421052" type="curve"/>
      <point x="355.10526315789474" y="448.05263157894734" type="line"/>
      <point x="355.10526315789474" y="529.8947368421053"/>
      <point x="357.6842105263158" y="609.3684210526316"/>
      <point x="366.0" y="687.1578947368421" type="curve"/>
      <point x="289.63157894736844" y="691.2631578947369" type="line"/>
      <point x="214.10526315789474" y="630.6315789473684" type="line"/>
      <point x="218.31578947368422" y="560.8421052631579"/>
      <point x="219.8421052631579" y="491.57894736842104"/>
      <point x="219.8421052631579" y="422.2631578947368" type="curve"/>
      <point x="219.8421052631579" y="216.78947368421052" type="line"/>
      <point x="219.8421052631579" y="134.21052631578948"/>
      <point x="216.1578947368421" y="71.84210526315789"/>
    </contour>
  </outline>
</glyph>
<glyph name="four" format="2">
  <advance width="609.7766990291262"/>
  <unicode hex="0034"/>
  <outline>
    <contour>
      <point x="330.6893203883495" y="0.0" type="curve"/>
      <point x="487.4660194174757" y="0.0" type="line"/>
      <point x="477.45631067961165" y="65.50485436893203"/>
      <point x="476.45631067961165" y="119.38834951456312"/>
      <point x="476.45631067961165" y="198.14563106796115" type="curve"/>
      <point x="476.45631067961165" y="446.37864077669906" type="line"/>
      <point x="476.45631067961165" y="525.378640776699"/>
      <point x="477.58252427184465" y="604.378640776699"/>
      <point x="487.4660194174757" y="687.378640776699" type="curve"/>
      <point x="334.19417475728153" y="687.378640776699" type="line"/>
      <point x="312.33009708737865" y="644.8834951456311"/>
      <point x="281.7087378640777" y="600.5145631067961"/>
      <point x="251.08737864077668" y="558.0194174757281" type="curve"/>
      <point x="167.09708737864077" y="438.53398058252424" type="line"/>
      <point x="123.72815533980582" y="378.29126213592235"/>
      <point x="66.35922330097087" y="297.4271844660194"/>
      <point x="25.864077669902912" y="249.94174757281553" type="curve"/>
      <point x="25.864077669902912" y="148.3495145631068" type="line"/>
      <point x="391.3592233009709" y="148.3495145631068" type="line"/>
      <point x="448.62135922330094" y="148.3495145631068"/>
      <point x="531.5145631067961" y="147.22330097087377"/>
      <point x="583.6504854368933" y="141.59223300970874" type="curve"/>
      <point x="583.6504854368933" y="272.2135922330097" type="line"/>
      <point x="531.5145631067961" y="265.58252427184465"/>
      <point x="448.62135922330094" y="264.58252427184465"/>
      <point x="391.3592233009709" y="264.58252427184465" type="curve"/>
      <point x="375.9805825242718" y="262.05825242718447" type="line"/>
      <point x="133.0873786407767" y="262.05825242718447" type="line"/>
      <point x="143.84466019417474" y="223.71844660194174" type="line"/>
      <point x="168.96116504854368" y="266.0873786407767"/>
      <point x="196.45631067961165" y="308.45631067961165"/>
      <point x="226.9514563106796" y="350.82524271844665" type="curve"/>
      <point x="340.05825242718447" y="511.3009708737864" type="line"/>
      <point x="374.5533980582524" y="560.5436893203884"/>
      <point x="408.9223300970874" y="606.4077669902913"/>
      <point x="444.41747572815535" y="647.7669902912621" type="curve"/>
      <point x="338.8349514563107" y="627.5825242718446" type="line"/>
      <point x="346.59223300970876" y="558.0873786407767"/>
      <point x="347.71844660194176" y="489.59223300970876"/>
      <point x="347.71844660194176" y="420.09708737864077" type="curve"/>
      <point x="347.71844660194176" y="218.28155339805826" type="line"/>
      <point x="341.6990291262136" y="198.14563106796115" type="line"/>
      <point x="341.6990291262136" y="119.38834951456312"/>
      <point x="340.6990291262136" y="65.50485436893203"/>
    </contour>
  </outline>
</glyph>
<glyph name="five" format="2">
  <advance width="580.7669902912622"/>
  <unicode hex="0035"/>
  <outline>
    <contour>
      <point x="275.50485436893206" y="-12.504854368932039" type="curve" smooth="yes"/>
      <point x="451.7864077669903" y="-12.504854368932039"/>
      <point x="537.9126213592233" y="84.74757281553397"/>
      <point x="537.9126213592233" y="227.49514563106794" type="curve" smooth="yes"/>
      <point x="537.9126213592233" y="374.8543689320388"/>
      <point x="445.04854368932035" y="445.8543689320389"/>
      <point x="329.93203883495147" y="445.8543689320389" type="curve" smooth="yes"/>
      <point x="291.18446601941747" y="445.8543689320389"/>
      <point x="248.95145631067962" y="434.3592233009708"/>
      <point x="215.58252427184468" y="419.4854368932039" type="curve"/>
      <point x="204.82524271844662" y="419.4854368932039" type="line"/>
      <point x="204.95145631067962" y="456.97087378640776" type="line"/>
      <point x="205.9514563106796" y="508.70873786407765"/>
      <point x="209.20388349514565" y="561.4466019417476"/>
      <point x="214.96116504854368" y="614.0582524271845" type="curve"/>
      <point x="163.4368932038835" y="571.1456310679612" type="line"/>
      <point x="263.05825242718447" y="571.1456310679612" type="line"/>
      <point x="341.67961165048547" y="571.1456310679612"/>
      <point x="422.3009708737864" y="570.2718446601942"/>
      <point x="501.0485436893204" y="558.0097087378641" type="curve"/>
      <point x="501.0485436893204" y="687.378640776699" type="line"/>
      <point x="68.97087378640776" y="687.378640776699" type="line"/>
      <point x="77.72815533980582" y="606.3689320388349"/>
      <point x="78.85436893203884" y="517.1067961165049"/>
      <point x="78.85436893203884" y="421.84466019417476" type="curve"/>
      <point x="78.85436893203884" y="309.2038834951456" type="line"/>
      <point x="137.40776699029126" y="304.82524271844665" type="line"/>
      <point x="179.88349514563106" y="331.8058252427184"/>
      <point x="228.7378640776699" y="341.17475728155335"/>
      <point x="265.3495145631068" y="341.17475728155335" type="curve"/>
      <point x="342.94174757281553" y="339.04854368932035"/>
      <point x="398.77669902912623" y="307.06796116504853"/>
      <point x="398.77669902912623" y="223.88349514563106" type="curve" smooth="yes"/>
      <point x="398.77669902912623" y="146.6893203883495"/>
      <point x="355.18446601941747" y="104.4757281553398"/>
      <point x="262.8640776699029" y="102.3495145631068" type="curve"/>
      <point x="203.49514563106794" y="102.3495145631068"/>
      <point x="121.4854368932039" y="128.6019417475728"/>
      <point x="50.36893203883495" y="163.2233009708738" type="curve"/>
      <point x="38.6116504854369" y="35.23300970873785" type="line"/>
      <point x="91.48543689320388" y="18.864077669902915"/>
      <point x="172.7378640776699" y="-12.504854368932039"/>
    </contour>
  </outline>
</glyph>
<glyph name="six" format="2">
  <advance width="614.0194174757281"/>
  <unicode hex="0036"/>
  <outline>
    <contour>
      <point x="322.2621359223301" y="-12.504854368932039" type="curve" smooth="yes"/>
      <point x="492.2912621359223" y="-12.504854368932039"/>
      <point x="571.1650485436894" y="106.74757281553399"/>
      <point x="571.1650485436894" y="233.36893203883497" type="curve" smooth="yes"/>
      <point x="571.1650485436894" y="363.36893203883494"/>
      <point x="486.7864077669903" y="447.7281553398059"/>
      <point x="360.4271844660194" y="447.7281553398059" type="curve" smooth="yes"/>
      <point x="291.58252427184465" y="447.7281553398059"/>
      <point x="234.3495145631068" y="416.37864077669906"/>
      <point x="191.35922330097088" y="380.1456310679612" type="curve"/>
      <point x="174.85436893203882" y="381.0194174757282" type="line"/>
      <point x="146.19417475728156" y="335.37864077669906"/>
      <point x="145.06796116504853" y="319.631067961165"/>
      <point x="175.98058252427185" y="277.9805825242718" type="curve"/>
      <point x="215.6990291262136" y="320.9417475728156"/>
      <point x="269.40776699029124" y="343.4271844660194"/>
      <point x="319.252427184466" y="344.3009708737864" type="curve"/>
      <point x="399.18446601941747" y="341.04854368932035"/>
      <point x="436.7864077669903" y="293.4660194174757"/>
      <point x="436.7864077669903" y="227.88349514563106" type="curve" smooth="yes"/>
      <point x="436.7864077669903" y="161.30097087378638"/>
      <point x="398.18446601941747" y="105.4757281553398"/>
      <point x="316.504854368932" y="102.3495145631068" type="curve"/>
      <point x="229.6990291262136" y="108.98058252427184"/>
      <point x="178.72815533980582" y="172.80582524271844"/>
      <point x="178.72815533980582" y="331.2621359223301" type="curve" smooth="yes"/>
      <point x="178.72815533980582" y="501.95145631067965"/>
      <point x="224.4466019417476" y="581.5242718446602"/>
      <point x="343.02912621359224" y="585.9029126213593" type="curve"/>
      <point x="372.28155339805824" y="585.9029126213593"/>
      <point x="446.9126213592233" y="565.3980582524271"/>
      <point x="517.0291262135922" y="532.1553398058253" type="curve"/>
      <point x="529.7864077669904" y="657.8932038834952" type="line"/>
      <point x="481.40776699029124" y="673.5145631067961"/>
      <point x="393.5242718446602" y="701.6310679611651"/>
      <point x="334.0194174757282" y="701.6310679611651" type="curve" smooth="yes"/>
      <point x="160.51456310679612" y="701.6310679611651"/>
      <point x="46.601941747572816" y="586.2912621359224"/>
      <point x="46.601941747572816" y="334.5145631067961" type="curve" smooth="yes"/>
      <point x="46.601941747572816" y="106.74757281553397"/>
      <point x="140.98058252427182" y="-12.504854368932039"/>
    </contour>
  </outline>
</glyph>
<glyph name="seven" format="2">
  <advance width="543.6315789473684"/>
  <unicode hex="0037"/>
  <outline>
    <contour>
      <point x="91.42105263157895" y="0.0" type="curve"/>
      <point x="258.7894736842105" y="0.0" type="line"/>
      <point x="282.6315789473684" y="78.10526315789474"/>
      <point x="313.1578947368421" y="155.10526315789474"/>
      <point x="347.42105263157896" y="232.26315789473685" type="curve"/>
      <point x="406.4736842105263" y="365.10526315789474" type="line"/>
      <point x="441.6842105263158" y="444.63157894736844"/>
      <point x="474.42105263157896" y="516.1052631578948"/>
      <point x="509.1578947368421" y="584.3157894736842" type="curve"/>
      <point x="509.1578947368421" y="687.1578947368421" type="line"/>
      <point x="25.0" y="687.1578947368421" type="line"/>
      <point x="25.0" y="556.2631578947369" type="line"/>
      <point x="104.0" y="567.6842105263158"/>
      <point x="182.47368421052633" y="570.8421052631579"/>
      <point x="260.4736842105263" y="570.8421052631579" type="curve"/>
      <point x="392.63157894736844" y="570.8421052631579" type="line"/>
      <point x="357.2631578947368" y="598.2105263157895" type="line"/>
      <point x="342.21052631578954" y="550.0"/>
      <point x="322.42105263157896" y="501.7368421052632"/>
      <point x="300.57894736842104" y="453.5263157894737" type="curve"/>
      <point x="211.21052631578948" y="256.10526315789474" type="line"/>
      <point x="173.4736842105263" y="172.05263157894737"/>
      <point x="133.21052631578948" y="85.0"/>
    </contour>
  </outline>
</glyph>
<glyph name="eight" format="2">
  <advance width="615.2718446601941"/>
  <unicode hex="0038"/>
  <outline>
    <contour>
      <point x="308.1359223300971" y="-12.504854368932039" type="curve" smooth="yes"/>
      <point x="488.7864077669903" y="-12.504854368932039"/>
      <point x="572.4174757281554" y="75.36893203883494"/>
      <point x="572.4174757281554" y="193.252427184466" type="curve" smooth="yes"/>
      <point x="572.4174757281554" y="302.62135922330094"/>
      <point x="497.05825242718447" y="353.36893203883494"/>
      <point x="433.1747572815534" y="367.49514563106794" type="curve"/>
      <point x="433.1747572815534" y="378.252427184466" type="line"/>
      <point x="496.93203883495147" y="394.0"/>
      <point x="552.1747572815534" y="444.495145631068"/>
      <point x="552.1747572815534" y="525.3689320388349" type="curve" smooth="yes"/>
      <point x="552.1747572815534" y="631.126213592233"/>
      <point x="460.41747572815535" y="701.6310679611651"/>
      <point x="308.1359223300971" y="701.6310679611651" type="curve" smooth="yes"/>
      <point x="154.85436893203882" y="701.6310679611651"/>
      <point x="63.09708737864077" y="631.126213592233"/>
      <point x="63.09708737864077" y="525.3689320388349" type="curve" smooth="yes"/>
      <point x="63.09708737864077" y="444.495145631068"/>
      <point x="118.33980582524272" y="394.0"/>
      <point x="182.09708737864077" y="378.252427184466" type="curve"/>
      <point x="182.09708737864077" y="367.49514563106794" type="line"/>
      <point x="118.3398058252427" y="353.36893203883494"/>
      <point x="42.85436893203884" y="303.62135922330094"/>
      <point x="42.85436893203884" y="193.252427184466" type="curve" smooth="yes"/>
      <point x="42.85436893203884" y="75.36893203883494"/>
      <point x="126.48543689320388" y="-12.504854368932039"/>
    </contour>
    <contour>
      <point x="308.1359223300971" y="102.46601941747574" type="curve"/>
      <point x="216.70873786407768" y="105.71844660194176"/>
      <point x="177.23300970873788" y="147.3106796116505"/>
      <point x="177.23300970873788" y="207.01941747572815" type="curve" smooth="yes"/>
      <point x="177.23300970873788" y="275.7184466019417"/>
      <point x="232.68932038834953" y="307.32038834951453"/>
      <point x="307.1359223300971" y="311.5728155339806" type="curve"/>
      <point x="382.5825242718447" y="307.32038834951453"/>
      <point x="438.0388349514563" y="275.7184466019417"/>
      <point x="438.0388349514563" y="207.01941747572815" type="curve" smooth="yes"/>
      <point x="438.0388349514563" y="147.3106796116505"/>
      <point x="398.68932038834953" y="105.71844660194176"/>
    </contour>
    <contour>
      <point x="308.1359223300971" y="412.6407766990291" type="curve"/>
      <point x="236.32038834951456" y="417.0194174757282"/>
      <point x="195.0970873786408" y="450.368932038835"/>
      <point x="195.0970873786408" y="504.2135922330097" type="curve" smooth="yes"/>
      <point x="195.0970873786408" y="560.3106796116505"/>
      <point x="240.06796116504853" y="587.2912621359224"/>
      <point x="308.1359223300971" y="590.6699029126214" type="curve"/>
      <point x="375.3300970873787" y="587.2912621359224"/>
      <point x="421.30097087378635" y="560.3106796116505"/>
      <point x="421.30097087378635" y="504.2135922330097" type="curve" smooth="yes"/>
      <point x="421.30097087378635" y="450.368932038835"/>
      <point x="379.07766990291265" y="417.0194174757282"/>
    </contour>
  </outline>
</glyph>
<glyph name="less" format="2">
  <advance width="575.7894736842105"/>
  <unicode hex="003C"/>
  <outline>
    <contour>
      <point x="521.578947368421" y="52.8421052631579" type="curve"/>
      <point x="521.578947368421" y="186.57894736842104" type="line"/>
      <point x="458.9473684210526" y="204.89473684210526"/>
      <point x="393.9473684210526" y="230.78947368421052"/>
      <point x="330.36842105263156" y="256.2105263157895" type="curve"/>
      <point x="229.36842105263156" y="296.2631578947368" type="line"/>
      <point x="229.36842105263156" y="307.5263157894737" type="line"/>
      <point x="330.36842105263156" y="347.57894736842104" type="line"/>
      <point x="393.9473684210526" y="373.0"/>
      <point x="458.9473684210526" y="398.89473684210526"/>
      <point x="521.578947368421" y="417.2105263157895" type="curve"/>
      <point x="521.578947368421" y="550.9473684210526" type="line"/>
      <point x="455.10526315789474" y="519.2105263157895"/>
      <point x="391.2105263157895" y="493.2105263157895"/>
      <point x="335.8421052631579" y="471.2105263157895" type="curve"/>
      <point x="239.0" y="432.5263157894737" type="line"/>
      <point x="184.57894736842104" y="411.0"/>
      <point x="120.6842105263158" y="386.0"/>
      <point x="54.21052631578947" y="365.6842105263158" type="curve"/>
      <point x="54.21052631578947" y="238.10526315789474" type="line"/>
      <point x="120.6842105263158" y="217.78947368421055"/>
      <point x="184.57894736842104" y="192.78947368421052"/>
      <point x="239.0" y="171.26315789473685" type="curve"/>
      <point x="335.8421052631579" y="132.57894736842104" type="line"/>
      <point x="391.2105263157895" y="110.57894736842105"/>
      <point x="455.10526315789474" y="84.57894736842105"/>
    </contour>
  </outline>
</glyph>
<glyph name="equal" format="2">
  <advance width="575.7894736842105"/>
  <unicode hex="003D"/>
  <outline>
    <contour>
      <point x="59.473684210526315" y="121.94736842105263" type="line"/>
      <point x="126.42105263157895" y="126.57894736842105"/>
      <point x="189.8421052631579" y="127.10526315789474"/>
      <point x="244.73684210526315" y="127.10526315789474" type="curve"/>
      <point x="331.05263157894734" y="127.10526315789474" type="line"/>
      <point x="385.94736842105266" y="127.10526315789474"/>
      <point x="449.36842105263156" y="126.57894736842105"/>
      <point x="516.3157894736842" y="121.94736842105263" type="curve"/>
      <point x="516.3157894736842" y="246.47368421052633" type="line"/>
      <point x="449.36842105263156" y="241.8421052631579"/>
      <point x="385.94736842105266" y="241.31578947368422"/>
      <point x="331.05263157894734" y="241.31578947368422" type="curve"/>
      <point x="244.73684210526315" y="241.31578947368422" type="line"/>
      <point x="189.8421052631579" y="241.31578947368422"/>
      <point x="126.42105263157895" y="241.8421052631579"/>
      <point x="59.473684210526315" y="246.47368421052633" type="curve"/>
    </contour>
    <contour>
      <point x="59.473684210526315" y="358.2631578947369" type="line"/>
      <point x="126.42105263157895" y="362.89473684210526"/>
      <point x="189.8421052631579" y="363.42105263157896"/>
      <point x="244.73684210526315" y="363.42105263157896" type="curve"/>
      <point x="331.05263157894734" y="363.42105263157896" type="line"/>
      <point x="385.94736842105266" y="363.42105263157896"/>
      <point x="449.36842105263156" y="362.89473684210526"/>
      <point x="516.3157894736842" y="358.2631578947369" type="curve"/>
      <point x="516.3157894736842" y="482.7894736842105" type="line"/>
      <point x="449.36842105263156" y="478.15789473684214"/>
      <point x="385.94736842105266" y="477.63157894736844"/>
      <point x="331.05263157894734" y="477.63157894736844" type="curve"/>
      <point x="244.73684210526315" y="477.63157894736844" type="line"/>
      <point x="189.8421052631579" y="477.63157894736844"/>
      <point x="126.42105263157895" y="478.15789473684214"/>
      <point x="59.473684210526315" y="482.7894736842105" type="curve"/>
    </contour>
  </outline>
</glyph>
<glyph name="greater" format="2">
  <advance width="575.7894736842105"/>
  <unicode hex="003E"/>
  <outline>
    <contour>
      <point x="54.21052631578947" y="52.8421052631579" type="line"/>
      <point x="120.6842105263158" y="84.57894736842105"/>
      <point x="184.57894736842104" y="110.57894736842105"/>
      <point x="239.94736842105263" y="132.57894736842104" type="curve"/>
      <point x="336.7894736842105" y="171.26315789473685" type="line"/>
      <point x="391.2105263157895" y="192.78947368421052"/>
      <point x="455.10526315789474" y="217.78947368421055"/>
      <point x="521.578947368421" y="238.10526315789474" type="curve"/>
      <point x="521.578947368421" y="365.6842105263158" type="line"/>
      <point x="455.10526315789474" y="386.0"/>
      <point x="391.2105263157895" y="411.0"/>
      <point x="336.7894736842105" y="432.5263157894737" type="curve"/>
      <point x="239.94736842105263" y="471.2105263157895" type="line"/>
      <point x="184.57894736842104" y="493.2105263157895"/>
      <point x="120.6842105263158" y="519.2105263157895"/>
      <point x="54.21052631578947" y="550.9473684210526" type="curve"/>
      <point x="54.21052631578947" y="417.2105263157895" type="line"/>
      <point x="116.84210526315789" y="398.89473684210526"/>
      <point x="181.8421052631579" y="373.0"/>
      <point x="245.42105263157896" y="347.57894736842104" type="curve"/>
      <point x="346.42105263157896" y="307.5263157894737" type="line"/>
      <point x="346.42105263157896" y="296.2631578947368" type="line"/>
      <point x="245.42105263157896" y="256.2105263157895" type="line"/>
      <point x="181.8421052631579" y="230.78947368421052"/>
      <point x="116.84210526315789" y="204.89473684210526"/>
      <point x="54.21052631578947" y="186.57894736842104" type="curve"/>
    </contour>
  </outline>
</glyph>
<glyph name="at" format="2">
  <advance width="889.2105263157895"/>
  <unicode hex="0040"/>
  <outline>
    <contour>
      <point x="475.2631578947368" y="-140.42105263157896" type="curve" smooth="yes"/>
      <point x="560.3157894736843" y="-140.42105263157896"/>
      <point x="675.2105263157895" y="-106.21052631578947"/>
      <point x="758.3157894736842" y="-71.78947368421052" type="curve"/>
      <point x="758.3157894736842" y="19.89473684210526" type="line"/>
      <point x="650.4736842105264" y="-33.31578947368421"/>
      <point x="537.8421052631579" y="-58.526315789473685"/>
      <point x="475.2631578947368" y="-62.578947368421055" type="curve"/>
      <point x="207.21052631578948" y="-58.526315789473685"/>
      <point x="86.57894736842105" y="118.05263157894737"/>
      <point x="133.68421052631578" y="335.63157894736844" type="curve" smooth="yes"/>
      <point x="171.3684210526316" y="510.8947368421053"/>
      <point x="291.0" y="608.1052631578947"/>
      <point x="470.2631578947368" y="612.1578947368421" type="curve"/>
      <point x="677.3684210526316" y="608.1052631578947"/>
      <point x="796.9473684210526" y="469.7368421052632"/>
      <point x="757.0" y="268.5263157894737" type="curve" smooth="yes"/>
      <point x="743.6315789473684" y="201.1578947368421"/>
      <point x="687.578947368421" y="147.73684210526318"/>
      <point x="648.1052631578947" y="145.63157894736844" type="curve"/>
      <point x="603.7368421052631" y="148.6842105263158"/>
      <point x="588.6315789473683" y="180.78947368421052"/>
      <point x="600.0526315789474" y="235.78947368421052" type="curve"/>
      <point x="616.7894736842105" y="316.0" type="line"/>
      <point x="630.3157894736842" y="372.2631578947368"/>
      <point x="645.8947368421052" y="428.6315789473684"/>
      <point x="667.0" y="484.3157894736842" type="curve"/>
      <point x="562.8421052631579" y="478.6842105263158" type="line"/>
      <point x="546.3157894736842" y="426.3157894736842" type="line"/>
      <point x="537.1052631578948" y="426.3157894736842" type="line"/>
      <point x="510.8421052631578" y="464.57894736842104"/>
      <point x="460.7894736842105" y="489.7894736842105"/>
      <point x="418.2631578947368" y="489.7894736842105" type="curve" smooth="yes"/>
      <point x="325.3157894736842" y="489.7894736842105"/>
      <point x="258.1578947368421" y="411.8421052631579"/>
      <point x="236.78947368421052" y="307.36842105263156" type="curve" smooth="yes"/>
      <point x="211.26315789473685" y="182.52631578947367"/>
      <point x="263.57894736842104" y="69.84210526315789"/>
      <point x="377.2105263157895" y="69.84210526315789" type="curve" smooth="yes"/>
      <point x="413.3157894736842" y="69.84210526315789"/>
      <point x="460.7894736842105" y="92.89473684210527"/>
      <point x="499.94736842105266" y="136.26315789473685" type="curve"/>
      <point x="508.63157894736844" y="136.26315789473685" type="line"/>
      <point x="524.6315789473684" y="96.10526315789474"/>
      <point x="570.6315789473684" y="60.89473684210526"/>
      <point x="648.2631578947369" y="60.89473684210526" type="curve" smooth="yes"/>
      <point x="700.5263157894738" y="60.89473684210526"/>
      <point x="813.8421052631579" y="126.47368421052633"/>
      <point x="838.578947368421" y="252.0" type="curve" smooth="yes"/>
      <point x="885.7894736842105" y="493.2105263157895"/>
      <point x="727.1578947368421" y="690.0"/>
      <point x="471.7894736842105" y="690.0" type="curve" smooth="yes"/>
      <point x="277.57894736842104" y="690.0"/>
      <point x="100.84210526315789" y="585.8421052631579"/>
      <point x="52.15789473684211" y="352.7894736842105" type="curve" smooth="yes"/>
      <point x="-2.2105263157894726" y="94.36842105263158"/>
      <point x="153.94736842105263" y="-140.42105263157896"/>
    </contour>
    <contour>
      <point x="408.05263157894734" y="163.52631578947367" type="curve"/>
      <point x="349.1578947368421" y="165.52631578947367"/>
      <point x="325.8421052631579" y="221.68421052631578"/>
      <point x="339.89473684210526" y="289.10526315789474" type="curve" smooth="yes"/>
      <point x="352.57894736842104" y="349.1578947368421"/>
      <point x="387.6842105263158" y="391.5263157894737"/>
      <point x="443.94736842105266" y="394.0526315789474" type="curve"/>
      <point x="474.94736842105266" y="393.47368421052636"/>
      <point x="501.36842105263156" y="377.57894736842104"/>
      <point x="520.5263157894738" y="356.89473684210526" type="curve"/>
      <point x="490.63157894736844" y="217.68421052631578" type="line"/>
      <point x="464.68421052631584" y="180.5263157894737"/>
      <point x="434.7894736842105" y="165.52631578947367"/>
    </contour>
  </outline>
</glyph>
<glyph name="A" format="2">
  <advance width="712.7368421052631"/>
  <unicode hex="0041"/>
  <anchor x="356.6315789473684" y="0.0" name="bottom"/>
  <anchor x="697.1052631578947" y="0.0" name="ogonek"/>
  <anchor x="356.6315789473684" y="713.0" name="top"/>
  <outline>
    <contour>
      <point x="12.578947368421053" y="0.0" type="curve"/>
      <point x="183.0" y="0.0" type="line"/>
      <point x="198.6315789473684" y="77.36842105263158"/>
      <point x="219.8421052631579" y="163.31578947368422"/>
      <point x="243.3157894736842" y="239.73684210526315" type="curve"/>
      <point x="350.89473684210526" y="589.1052631578948" type="line"/>
      <point x="362.1578947368421" y="589.1052631578948" type="line"/>
      <point x="468.7368421052631" y="236.21052631578948" type="line"/>
      <point x="490.7368421052631" y="163.26315789473685"/>
      <point x="513.578947368421" y="77.94736842105263"/>
      <point x="527.6842105263158" y="0.0" type="curve"/>
      <point x="700.7368421052631" y="0.0" type="line"/>
      <point x="667.7368421052631" y="76.0"/>
      <point x="635.2631578947369" y="162.0"/>
      <point x="608.9473684210526" y="241.0" type="curve"/>
      <point x="527.0526315789474" y="486.4736842105263" type="line"/>
      <point x="497.78947368421046" y="573.421052631579"/>
      <point x="479.10526315789474" y="638.8947368421053"/>
      <point x="464.0526315789474" y="713.0" type="curve"/>
      <point x="252.1578947368421" y="713.0" type="line"/>
      <point x="237.1578947368421" y="641.0"/>
      <point x="217.94736842105263" y="575.0"/>
      <point x="188.1578947368421" y="486.4736842105263" type="curve"/>
      <point x="105.78947368421052" y="241.47368421052633" type="line"/>
      <point x="80.0" y="165.0"/>
      <point x="46.631578947368425" y="76.47368421052632"/>
    </contour>
    <contour>
      <point x="185.42105263157893" y="157.21052631578948" type="line"/>
      <point x="542.5263157894738" y="157.21052631578948" type="line"/>
      <point x="530.421052631579" y="266.1578947368421" type="line"/>
      <point x="200.1578947368421" y="266.1578947368421" type="line"/>
    </contour>
  </outline>
</glyph>
<glyph name="C" format="2">
  <advance width="683.3684210526317"/>
  <unicode hex="0043"/>
  <anchor x="396.7894736842105" y="0.0" name="bottom"/>
  <anchor x="392.05263157894734" y="713.0" name="top"/>
  <outline>
    <contour>
      <point x="414.36842105263156" y="-12.68421052631579" type="curve" smooth="yes"/>
      <point x="491.2631578947369" y="-12.68421052631579"/>
      <point x="574.421052631579" y="8.894736842105264"/>
      <point x="633.9473684210526" y="30.421052631578945" type="curve"/>
      <point x="625.3157894736842" y="168.36842105263156" type="line"/>
      <point x="563.2631578947369" y="129.21052631578945"/>
      <point x="486.63157894736844" y="107.1578947368421"/>
      <point x="431.3157894736842" y="107.1578947368421" type="curve"/>
      <point x="271.36842105263156" y="110.68421052631578"/>
      <point x="191.42105263157896" y="220.89473684210526"/>
      <point x="191.42105263157896" y="356.42105263157896" type="curve" smooth="yes"/>
      <point x="191.42105263157896" y="513.1578947368421"/>
      <point x="286.2631578947368" y="600.0526315789474"/>
      <point x="399.89473684210526" y="603.578947368421" type="curve"/>
      <point x="439.3684210526316" y="603.578947368421"/>
      <point x="521.7368421052632" y="584.5263157894736"/>
      <point x="627.0526315789474" y="536.3684210526316" type="curve"/>
      <point x="638.3684210526317" y="674.3684210526316" type="line"/>
      <point x="579.3157894736842" y="696.2631578947368"/>
      <point x="486.94736842105266" y="727.1052631578947"/>
      <point x="401.42105263157896" y="727.1052631578947" type="curve" smooth="yes"/>
      <point x="178.57894736842104" y="727.1052631578947"/>
      <point x="41.05263157894737" y="571.2631578947369"/>
      <point x="41.05263157894737" y="356.36842105263156" type="curve" smooth="yes"/>
      <point x="41.05263157894737" y="138.26315789473685"/>
      <point x="183.94736842105263" y="-12.68421052631579"/>
    </contour>
  </outline>
</glyph>
<glyph name="D" format="2">
  <advance width="736.8947368421053"/>
  <unicode hex="0044"/>
  <anchor x="352.63157894736844" y="0.0" name="bottom"/>
  <anchor x="368.9473684210526" y="357.0" name="center"/>
  <anchor x="352.63157894736844" y="713.0" name="top"/>
  <outline>
    <contour>
      <point x="68.00000000000001" y="0.0" type="curve"/>
      <point x="147.6315789473684" y="0.0"/>
      <point x="222.31578947368422" y="-5.2105263157894735"/>
      <point x="319.7368421052632" y="-5.2105263157894735" type="curve"/>
      <point x="596.3684210526316" y="-5.2105263157894735"/>
      <point x="695.8421052631579" y="157.42105263157896"/>
      <point x="695.8421052631579" y="358.94736842105266" type="curve" smooth="yes"/>
      <point x="695.8421052631579" y="583.6842105263158"/>
      <point x="571.2631578947369" y="717.1578947368421"/>
      <point x="353.47368421052636" y="717.1578947368421" type="curve"/>
      <point x="253.10526315789474" y="717.1578947368421"/>
      <point x="156.68421052631578" y="713.0"/>
      <point x="68.00000000000001" y="713.0" type="curve"/>
      <point x="75.26315789473685" y="634.1052631578947"/>
      <point x="78.94736842105264" y="565.6842105263158"/>
      <point x="78.94736842105264" y="474.4736842105263" type="curve"/>
      <point x="78.94736842105264" y="233.26315789473685" type="line"/>
      <point x="78.94736842105264" y="144.1578947368421"/>
      <point x="75.26315789473685" y="77.3157894736842"/>
    </contour>
    <contour>
      <point x="227.1578947368421" y="116.26315789473684" type="line"/>
      <point x="224.6315789473684" y="162.68421052631578"/>
      <point x="223.57894736842104" y="208.31578947368422"/>
      <point x="223.57894736842104" y="266.9473684210526" type="curve"/>
      <point x="223.57894736842104" y="441.8421052631579" type="line"/>
      <point x="223.57894736842104" y="502.57894736842104"/>
      <point x="224.6315789473684" y="548.7368421052631"/>
      <point x="227.1578947368421" y="596.7368421052631" type="curve"/>
      <point x="328.47368421052636" y="596.7368421052631" type="line"/>
      <point x="487.2105263157894" y="592.1578947368421"/>
      <point x="545.4736842105264" y="502.8421052631579"/>
      <point x="545.4736842105264" y="361.0" type="curve" smooth="yes"/>
      <point x="545.4736842105264" y="220.89473684210526"/>
      <point x="494.4736842105263" y="121.36842105263158"/>
      <point x="319.6842105263158" y="116.26315789473684" type="curve"/>
    </contour>
  </outline>
</glyph>
<glyph name="E" format="2">
  <advance width="598.0097087378641"/>
  <unicode hex="0045"/>
  <anchor x="311.49514563106794" y="0.0" name="bottom"/>
  <anchor x="544.1456310679612" y="0.0" name="ogonek"/>
  <anchor x="311.49514563106794" y="713.0" name="top"/>
  <anchor x="37.126213592233015" y="713.0" name="topleft"/>
  <outline>
    <contour>
      <point x="67.8252427184466" y="0.0" type="curve"/>
      <point x="232.23300970873785" y="0.0" type="line"/>
      <point x="232.23300970873785" y="22.524271844660195" type="line"/>
      <point x="223.6019417475728" y="100.01941747572816"/>
      <point x="220.22330097087377" y="167.51456310679612"/>
      <point x="220.22330097087377" y="255.89320388349515" type="curve"/>
      <point x="220.22330097087377" y="452.3495145631068" type="line"/>
      <point x="220.22330097087377" y="542.9805825242719"/>
      <point x="223.6019417475728" y="611.7281553398059"/>
      <point x="232.23300970873785" y="690.4757281553398" type="curve"/>
      <point x="232.23300970873785" y="713.0" type="line"/>
      <point x="67.8252427184466" y="713.0" type="line"/>
      <point x="75.45631067961166" y="634.252427184466"/>
      <point x="78.96116504854369" y="565.504854368932"/>
      <point x="78.96116504854369" y="474.873786407767" type="curve"/>
      <point x="78.96116504854369" y="233.36893203883494" type="line"/>
      <point x="78.96116504854369" y="144.11650485436894"/>
      <point x="75.45631067961166" y="77.49514563106796"/>
    </contour>
    <contour>
      <point x="203.83495145631068" y="0.0" type="line"/>
      <point x="547.5242718446602" y="0.0" type="line"/>
      <point x="547.5242718446602" y="131.4854368932039" type="line"/>
      <point x="479.7864077669903" y="121.72815533980582"/>
      <point x="408.0485436893204" y="119.60194174757282"/>
      <point x="326.56310679611653" y="119.60194174757282" type="curve"/>
      <point x="203.83495145631068" y="119.60194174757282" type="line"/>
    </contour>
    <contour>
      <point x="187.68932038834953" y="303.3300970873786" type="line"/>
      <point x="320.17475728155347" y="303.3300970873786" type="line"/>
      <point x="406.16504854368935" y="303.3300970873786"/>
      <point x="464.5339805825243" y="302.2038834951456"/>
      <point x="527.7766990291262" y="297.57281553398053" type="curve"/>
      <point x="527.7766990291262" y="424.4174757281553" type="line"/>
      <point x="467.53398058252435" y="417.9126213592233"/>
      <point x="409.16504854368935" y="416.7864077669903"/>
      <point x="320.17475728155347" y="416.7864077669903" type="curve"/>
      <point x="187.68932038834953" y="416.7864077669903" type="line"/>
    </contour>
    <contour>
      <point x="195.69902912621362" y="593.3980582524272" type="line"/>
      <point x="315.80582524271847" y="593.3980582524272" type="line"/>
      <point x="413.16504854368935" y="593.3980582524272"/>
      <point x="481.02912621359224" y="590.0194174757281"/>
      <point x="544.0194174757282" y="581.5145631067961" type="curve"/>
      <point x="544.0194174757282" y="713.0" type="line"/>
      <point x="195.69902912621362" y="713.0" type="line"/>
    </contour>
  </outline>
</glyph>
<glyph name="G" format="2">
  <advance width="729.1052631578948"/>
  <unicode hex="0047"/>
  <anchor x="396.7894736842105" y="0.0" name="bottom"/>
  <anchor x="396.7894736842105" y="713.0" name="top"/>
  <outline>
    <contour>
      <point x="424.42105263157896" y="-12.157894736842106" type="curve" smooth="yes"/>
      <point x="518.6315789473684" y="-12.157894736842106"/>
      <point x="623.6315789473684" y="9.736842105263158"/>
      <point x="675.7894736842105" y="23.42105263157895" type="curve"/>
      <point x="651.8947368421053" y="156.6315789473684" type="line"/>
      <point x="584.2631578947369" y="119.57894736842105"/>
      <point x="516.578947368421" y="104.52631578947368"/>
      <point x="436.5263157894737" y="104.52631578947368" type="curve"/>
      <point x="267.5263157894737" y="108.05263157894737"/>
      <point x="190.36842105263156" y="217.36842105263156"/>
      <point x="190.36842105263156" y="356.36842105263156" type="curve" smooth="yes"/>
      <point x="190.36842105263156" y="515.1578947368421"/>
      <point x="288.9473684210526" y="600.578947368421"/>
      <point x="402.7368421052631" y="603.578947368421" type="curve"/>
      <point x="444.7894736842105" y="603.578947368421"/>
      <point x="532.7894736842105" y="584.5263157894736"/>
      <point x="646.3157894736842" y="536.3684210526316" type="curve"/>
      <point x="657.6315789473684" y="673.8421052631578" type="line"/>
      <point x="594.0" y="695.7368421052631"/>
      <point x="495.47368421052636" y="727.1052631578947"/>
      <point x="403.7894736842105" y="727.1052631578947" type="curve" smooth="yes"/>
      <point x="180.94736842105263" y="727.1052631578947"/>
      <point x="41.05263157894737" y="574.1052631578947"/>
      <point x="41.05263157894737" y="356.89473684210526" type="curve" smooth="yes"/>
      <point x="41.05263157894737" y="143.5263157894737"/>
      <point x="178.57894736842104" y="-12.157894736842106"/>
    </contour>
    <contour>
      <point x="527.6842105263157" y="23.42105263157895" type="curve"/>
      <point x="675.7894736842105" y="23.42105263157895" type="line"/>
      <point x="670.1052631578948" y="96.21052631578948"/>
      <point x="669.0526315789474" y="148.42105263157896"/>
      <point x="669.0526315789474" y="203.68421052631578" type="curve"/>
      <point x="669.0526315789474" y="268.42105263157896"/>
      <point x="672.2105263157895" y="314.10526315789474"/>
      <point x="680.0" y="365.8421052631579" type="curve"/>
      <point x="521.9473684210526" y="365.8421052631579" type="line"/>
      <point x="529.2105263157895" y="314.10526315789474"/>
      <point x="533.3684210526316" y="268.42105263157896"/>
      <point x="533.3684210526316" y="203.68421052631578" type="curve"/>
      <point x="533.3684210526316" y="148.42105263157896"/>
      <point x="531.7894736842105" y="96.21052631578948"/>
    </contour>
  </outline>
</glyph>
<glyph name="H" format="2">
  <advance width="755.7894736842105"/>
  <unicode hex="0048"/>
  <anchor x="378.15789473684214" y="0.0" name="bottom"/>
  <anchor x="378.15789473684214" y="357.0" name="center"/>
  <anchor x="378.15789473684214" y="713.0" name="top"/>
  <anchor x="39.68421052631579" y="713.0" name="topleft"/>
  <outline>
    <contour>
      <point x="520.7894736842106" y="0.0" type="curve"/>
      <point x="687.7894736842105" y="0.0" type="line"/>
      <point x="679.5263157894736" y="77.3157894736842"/>
      <point x="676.3684210526316" y="144.1578947368421"/>
      <point x="676.3684210526316" y="233.26315789473685" type="curve"/>
      <point x="676.3684210526316" y="474.4736842105263" type="line"/>
      <point x="676.3684210526316" y="565.6842105263158"/>
      <point x="679.5263157894736" y="634.1052631578947"/>
      <point x="687.7894736842105" y="713.0" type="curve"/>
      <point x="520.7894736842106" y="713.0" type="line"/>
      <point x="528.0526315789474" y="634.1052631578947"/>
      <point x="531.7368421052632" y="565.6842105263158"/>
      <point x="531.7368421052632" y="474.4736842105263" type="curve"/>
      <point x="531.7368421052632" y="233.26315789473685" type="line"/>
      <point x="531.7368421052632" y="144.1578947368421"/>
      <point x="528.0526315789474" y="77.3157894736842"/>
    </contour>
    <contour>
      <point x="68.00000000000001" y="0.0" type="curve"/>
      <point x="235.0" y="0.0" type="line"/>
      <point x="226.73684210526315" y="77.3157894736842"/>
      <point x="223.57894736842104" y="144.1578947368421"/>
      <point x="223.57894736842104" y="233.26315789473685" type="curve"/>
      <point x="223.57894736842104" y="474.4736842105263" type="line"/>
      <point x="223.57894736842104" y="565.6842105263158"/>
      <point x="226.73684210526315" y="634.1052631578947"/>
      <point x="235.0" y="713.0" type="curve"/>
      <point x="68.00000000000001" y="713.0" type="line"/>
      <point x="75.26315789473685" y="634.1052631578947"/>
      <point x="78.94736842105264" y="565.6842105263158"/>
      <point x="78.94736842105264" y="474.4736842105263" type="curve"/>
      <point x="78.94736842105264" y="233.26315789473685" type="line"/>
      <point x="78.94736842105264" y="144.1578947368421"/>
      <point x="75.26315789473685" y="77.3157894736842"/>
    </contour>
    <contour>
      <point x="181.5263157894737" y="299.10526315789474" type="line"/>
      <point x="575.7368421052631" y="299.10526315789474" type="line"/>
      <point x="575.7368421052631" y="420.10526315789474" type="line"/>
      <point x="181.5263157894737" y="420.10526315789474" type="line"/>
    </contour>
  </outline>
</glyph>
<glyph name="I" format="2">
  <advance width="310.89473684210526"/>
  <unicode hex="0049"/>
  <anchor x="152.8421052631579" y="0.0" name="bottom"/>
  <anchor x="237.63157894736844" y="0.0" name="ogonek"/>
  <anchor x="152.8421052631579" y="713.0" name="top"/>
  <anchor x="33.84210526315789" y="713.0" name="topleft"/>
  <outline>
    <contour>
      <point x="70.63157894736842" y="0.0" type="curve"/>
      <point x="240.26315789473685" y="0.0" type="line"/>
      <point x="232.0" y="77.3157894736842"/>
      <point x="228.8421052631579" y="144.1578947368421"/>
      <point x="228.8421052631579" y="233.26315789473685" type="curve"/>
      <point x="228.8421052631579" y="474.4736842105263" type="line"/>
      <point x="228.8421052631579" y="565.6842105263158"/>
      <point x="232.0" y="634.1052631578947"/>
      <point x="240.26315789473685" y="713.0" type="curve"/>
      <point x="70.63157894736842" y="713.0" type="line"/>
      <point x="77.89473684210526" y="634.1052631578947"/>
      <point x="81.57894736842105" y="565.6842105263158"/>
      <point x="81.57894736842105" y="474.4736842105263" type="curve"/>
      <point x="81.57894736842105" y="233.26315789473685" type="line"/>
      <point x="81.57894736842105" y="144.1578947368421"/>
      <point x="77.89473684210526" y="77.3157894736842"/>
    </contour>
  </outline>
</glyph>
<glyph name="J" format="2">
  <advance width="316.2631578947369"/>
  <unicode hex="004A"/>
  <anchor x="159.8421052631579" y="0.0" name="bottom"/>
  <anchor x="159.8421052631579" y="713.0" name="top"/>
  <outline>
    <contour>
      <point x="7.578947368421054" y="-155.78947368421052" type="curve"/>
      <point x="153.94736842105263" y="-155.78947368421052" type="line"/>
      <point x="191.0" y="-109.73684210526316"/>
      <point x="242.05263157894737" y="-36.78947368421053"/>
      <point x="242.05263157894737" y="68.10526315789474" type="curve" smooth="yes"/>
      <point x="242.05263157894737" y="146.78947368421052"/>
      <point x="234.21052631578945" y="231.4736842105263"/>
      <point x="234.21052631578945" y="320.57894736842104" type="curve"/>
      <point x="234.21052631578945" y="474.4736842105263" type="line"/>
      <point x="234.21052631578945" y="565.6842105263158"/>
      <point x="237.36842105263156" y="634.1052631578947"/>
      <point x="245.6315789473684" y="713.0" type="curve"/>
      <point x="78.63157894736842" y="713.0" type="line"/>
      <point x="85.89473684210526" y="634.1052631578947"/>
      <point x="89.57894736842105" y="565.6842105263158"/>
      <point x="89.57894736842105" y="474.4736842105263" type="curve"/>
      <point x="89.57894736842105" y="305.89473684210526" type="line"/>
      <point x="89.10526315789474" y="75.84210526315789" type="line"/>
      <point x="89.10526315789474" y="-14.368421052631582"/>
      <point x="59.31578947368421" y="-87.42105263157895"/>
    </contour>
  </outline>
</glyph>
<glyph name="K" format="2">
  <advance width="692.7894736842105"/>
  <unicode hex="004B"/>
  <anchor x="355.15789473684214" y="0.0" name="bottom"/>
  <anchor x="355.15789473684214" y="713.0" name="top"/>
  <outline>
    <contour>
      <point x="484.6842105263158" y="0.0" type="curve"/>
      <point x="683.3684210526316" y="0.0" type="line"/>
      <point x="624.8421052631579" y="62.68421052631579"/>
      <point x="539.3157894736842" y="168.31578947368422"/>
      <point x="477.63157894736844" y="246.73684210526315" type="curve"/>
      <point x="344.36842105263156" y="417.1578947368421" type="line"/>
      <point x="347.0" y="353.6842105263158" type="line"/>
      <point x="466.47368421052636" y="492.36842105263156" type="line"/>
      <point x="530.1578947368421" y="566.0"/>
      <point x="593.3157894736842" y="638.578947368421"/>
      <point x="667.1578947368421" y="713.0" type="curve"/>
      <point x="475.7894736842105" y="713.0" type="line"/>
      <point x="428.2631578947369" y="643.0"/>
      <point x="390.94736842105266" y="594.3157894736842"/>
      <point x="346.15789473684214" y="540.7368421052631" type="curve"/>
      <point x="251.26315789473682" y="427.2105263157895" type="line"/>
      <point x="210.8421052631579" y="427.2105263157895" type="line"/>
      <point x="210.8421052631579" y="313.0526315789474" type="line"/>
      <point x="252.89473684210523" y="313.0526315789474" type="line"/>
      <point x="360.15789473684214" y="174.94736842105263" type="line"/>
      <point x="401.89473684210526" y="121.78947368421053"/>
      <point x="442.63157894736844" y="67.15789473684211"/>
    </contour>
    <contour>
      <point x="68.00000000000001" y="0.0" type="curve"/>
      <point x="234.47368421052633" y="0.0" type="line"/>
      <point x="226.21052631578948" y="77.3157894736842"/>
      <point x="223.05263157894737" y="144.1578947368421"/>
      <point x="223.05263157894737" y="233.26315789473685" type="curve"/>
      <point x="223.05263157894737" y="474.4736842105263" type="line"/>
      <point x="223.05263157894737" y="565.6842105263158"/>
      <point x="226.21052631578948" y="634.1052631578947"/>
      <point x="234.47368421052633" y="713.0" type="curve"/>
      <point x="68.00000000000001" y="713.0" type="line"/>
      <point x="75.26315789473685" y="634.1052631578947"/>
      <point x="78.94736842105264" y="565.6842105263158"/>
      <point x="78.94736842105264" y="474.4736842105263" type="curve"/>
      <point x="78.94736842105264" y="233.26315789473685" type="line"/>
      <point x="78.94736842105264" y="144.1578947368421"/>
      <point x="75.26315789473685" y="77.3157894736842"/>
    </contour>
  </outline>
</glyph>
<glyph name="L" format="2">
  <advance width="572.8421052631578"/>
  <unicode hex="004C"/>
  <anchor x="307.94736842105266" y="0.0" name="bottom"/>
  <anchor x="434.63157894736844" y="358.57894736842104" name="center"/>
  <anchor x="221.4736842105263" y="713.0" name="top"/>
  <anchor x="298.5263157894737" y="498.2105263157895" name="topright"/>
  <outline>
    <contour>
      <point x="68.00000000000001" y="0.0" type="curve"/>
      <point x="235.0" y="0.0" type="line"/>
      <point x="235.0" y="22.94736842105263" type="line"/>
      <point x="226.73684210526315" y="100.26315789473684"/>
      <point x="223.57894736842104" y="167.10526315789474"/>
      <point x="223.57894736842104" y="256.2105263157895" type="curve"/>
      <point x="223.57894736842104" y="474.4736842105263" type="line"/>
      <point x="223.57894736842104" y="565.6842105263158"/>
      <point x="226.73684210526315" y="634.1052631578947"/>
      <point x="235.0" y="713.0" type="curve"/>
      <point x="68.00000000000001" y="713.0" type="line"/>
      <point x="75.26315789473685" y="634.1052631578947"/>
      <point x="78.94736842105264" y="565.6842105263158"/>
      <point x="78.94736842105264" y="474.4736842105263" type="curve"/>
      <point x="78.94736842105264" y="233.26315789473685" type="line"/>
      <point x="78.94736842105264" y="144.1578947368421"/>
      <point x="75.26315789473685" y="77.3157894736842"/>
    </contour>
    <contour>
      <point x="203.89473684210523" y="0.0" type="line"/>
      <point x="542.2105263157895" y="0.0" type="line"/>
      <point x="542.2105263157895" y="141.3157894736842" type="line"/>
      <point x="469.7894736842105" y="130.94736842105263"/>
      <point x="408.2631578947369" y="126.26315789473684"/>
      <point x="302.10526315789474" y="126.26315789473684" type="curve"/>
      <point x="203.89473684210523" y="126.26315789473684" type="line"/>
    </contour>
  </outline>
</glyph>
<glyph name="M" format="2">
  <advance width="961.0526315789473"/>
  <unicode hex="004D"/>
  <anchor x="480.2631578947368" y="0.0" name="bottom"/>
  <anchor x="480.2631578947368" y="713.0" name="top"/>
  <outline>
    <contour>
      <point x="43.89473684210526" y="0.0" type="curve"/>
      <point x="203.94736842105263" y="0.0" type="line"/>
      <point x="206.31578947368422" y="107.0"/>
      <point x="213.3684210526316" y="204.1578947368421"/>
      <point x="223.68421052631578" y="288.10526315789474" type="curve"/>
      <point x="245.78947368421052" y="469.2631578947369" type="line"/>
      <point x="255.6315789473684" y="469.2631578947369" type="line"/>
      <point x="331.2631578947368" y="273.4736842105263" type="line"/>
      <point x="366.4210526315789" y="182.6842105263158"/>
      <point x="400.15789473684214" y="79.78947368421052"/>
      <point x="424.2105263157894" y="0.0" type="curve"/>
      <point x="542.578947368421" y="0.0" type="line"/>
      <point x="567.0526315789474" y="83.05263157894737"/>
      <point x="598.3157894736843" y="180.6842105263158"/>
      <point x="631.7894736842105" y="274.42105263157896" type="curve"/>
      <point x="701.6315789473684" y="469.2631578947369" type="line"/>
      <point x="711.4736842105264" y="469.2631578947369" type="line"/>
      <point x="733.578947368421" y="288.10526315789474" type="line"/>
      <point x="743.8947368421053" y="204.1578947368421"/>
      <point x="750.4736842105264" y="106.47368421052632"/>
      <point x="753.3684210526316" y="0.0" type="curve"/>
      <point x="917.1578947368421" y="0.0" type="line"/>
      <point x="900.421052631579" y="76.78947368421052"/>
      <point x="887.7368421052631" y="146.73684210526315"/>
      <point x="877.2105263157895" y="233.26315789473685" type="curve"/>
      <point x="847.1052631578948" y="472.4736842105263" type="line"/>
      <point x="836.1052631578948" y="559.421052631579"/>
      <point x="829.6842105263158" y="633.1052631578947"/>
      <point x="825.8947368421053" y="713.0" type="curve"/>
      <point x="660.0526315789474" y="713.0" type="line"/>
      <point x="635.5789473684212" y="623.8947368421052"/>
      <point x="609.0" y="547.0"/>
      <point x="578.2631578947369" y="468.5263157894737" type="curve"/>
      <point x="488.0" y="235.0" type="line"/>
      <point x="478.2105263157894" y="235.0" type="line"/>
      <point x="385.31578947368416" y="468.5263157894737" type="line"/>
      <point x="354.05263157894734" y="547.0"/>
      <point x="325.89473684210526" y="624.421052631579"/>
      <point x="301.42105263157896" y="713.0" type="curve"/>
      <point x="132.4736842105263" y="713.0" type="line"/>
      <point x="129.68421052631578" y="632.1052631578947"/>
      <point x="123.78947368421052" y="558.4736842105264"/>
      <point x="112.78947368421052" y="472.4736842105263" type="curve"/>
      <point x="83.26315789473685" y="233.26315789473685" type="line"/>
      <point x="72.26315789473685" y="146.78947368421052"/>
      <point x="59.57894736842106" y="75.21052631578948"/>
    </contour>
  </outline>
</glyph>
<glyph name="N" format="2">
  <advance width="756.9473684210526"/>
  <unicode hex="004E"/>
  <anchor x="379.0" y="0.0" name="bottom"/>
  <anchor x="379.0" y="713.0" name="top"/>
  <outline>
    <contour>
      <point x="68.00000000000001" y="0.0" type="curve"/>
      <point x="226.05263157894737" y="0.0" type="line"/>
      <point x="217.78947368421052" y="77.3157894736842"/>
      <point x="214.6315789473684" y="144.1578947368421"/>
      <point x="214.6315789473684" y="233.26315789473685" type="curve"/>
      <point x="214.6315789473684" y="470.2631578947369" type="line"/>
      <point x="224.94736842105263" y="470.2631578947369" type="line"/>
      <point x="353.10526315789474" y="286.5263157894737" type="line"/>
      <point x="428.84210526315786" y="177.84210526315792"/>
      <point x="488.89473684210526" y="88.63157894736842"/>
      <point x="539.8421052631578" y="0.0" type="curve"/>
      <point x="688.9473684210526" y="0.0" type="line"/>
      <point x="680.6842105263157" y="77.3157894736842"/>
      <point x="677.5263157894736" y="144.1578947368421"/>
      <point x="677.5263157894736" y="233.26315789473685" type="curve"/>
      <point x="677.5263157894736" y="474.4736842105263" type="line"/>
      <point x="677.5263157894736" y="565.6842105263158"/>
      <point x="680.6842105263157" y="634.1052631578947"/>
      <point x="688.9473684210526" y="713.0" type="curve"/>
      <point x="530.8947368421053" y="713.0" type="line"/>
      <point x="538.1578947368421" y="634.1052631578947"/>
      <point x="541.8421052631579" y="565.6842105263158"/>
      <point x="541.8421052631579" y="474.4736842105263" type="curve"/>
      <point x="541.8421052631579" y="244.6315789473684" type="line"/>
      <point x="531.0" y="244.6315789473684" type="line"/>
      <point x="404.42105263157896" y="426.89473684210526" type="line"/>
      <point x="342.3684210526316" y="515.5263157894738"/>
      <point x="283.0" y="608.6842105263157"/>
      <point x="221.78947368421052" y="713.0" type="curve"/>
      <point x="68.00000000000001" y="713.0" type="line"/>
      <point x="75.26315789473685" y="634.1052631578947"/>
      <point x="78.94736842105264" y="565.6842105263158"/>
      <point x="78.94736842105264" y="474.4736842105263" type="curve"/>
      <point x="78.94736842105264" y="233.26315789473685" type="line"/>
      <point x="78.94736842105264" y="144.1578947368421"/>
      <point x="75.26315789473685" y="77.3157894736842"/>
    </contour>
  </outline>
</glyph>
<glyph name="O" format="2">
  <advance width="814.7894736842105"/>
  <unicode hex="004F"/>
  <anchor x="407.42105263157896" y="0.0" name="bottom"/>
  <anchor x="407.42105263157896" y="357.0" name="center"/>
  <anchor x="512.421052631579" y="0.0" name="ogonek"/>
  <anchor x="407.42105263157896" y="713.0" name="top"/>
  <anchor x="25.42105263157895" y="713.0" name="topleft"/>
  <anchor x="708.3157894736842" y="713.0" name="topright"/>
  <outline>
    <contour>
      <point x="410.89473684210526" y="-12.68421052631579" type="curve" smooth="yes"/>
      <point x="643.9473684210526" y="-12.68421052631579"/>
      <point x="773.7368421052631" y="144.8421052631579"/>
      <point x="773.7368421052631" y="356.94736842105266" type="curve" smooth="yes"/>
      <point x="773.7368421052631" y="562.0"/>
      <point x="650.4736842105264" y="727.1052631578947"/>
      <point x="406.7894736842105" y="727.1052631578947" type="curve" smooth="yes"/>
      <point x="166.57894736842104" y="727.1052631578947"/>
      <point x="41.05263157894737" y="563.9473684210526"/>
      <point x="41.05263157894737" y="356.42105263157896" type="curve" smooth="yes"/>
      <point x="41.05263157894737" y="159.57894736842104"/>
      <point x="157.21052631578948" y="-12.68421052631579"/>
    </contour>
    <contour>
      <point x="408.36842105263156" y="107.1578947368421" type="curve"/>
      <point x="259.4736842105263" y="113.26315789473684"/>
      <point x="191.42105263157896" y="222.10526315789474"/>
      <point x="191.42105263157896" y="356.94736842105266" type="curve" smooth="yes"/>
      <point x="191.42105263157896" y="492.89473684210526"/>
      <point x="262.9473684210526" y="601.1578947368422"/>
      <point x="408.36842105263156" y="607.2631578947369" type="curve"/>
      <point x="548.8947368421053" y="601.1578947368422"/>
      <point x="623.3684210526316" y="498.57894736842104"/>
      <point x="623.3684210526316" y="356.94736842105266" type="curve" smooth="yes"/>
      <point x="623.3684210526316" y="224.0"/>
      <point x="556.7368421052632" y="113.26315789473684"/>
    </contour>
  </outline>
</glyph>
<glyph name="R" format="2">
  <advance width="690.4174757281553"/>
  <unicode hex="0052"/>
  <anchor x="346.1456310679612" y="0.0" name="bottom"/>
  <anchor x="342.99029126213594" y="713.0" name="top"/>
  <outline>
    <contour>
      <point x="489.6504854368932" y="0.0" type="curve"/>
      <point x="677.5728155339805" y="0.0" type="line"/>
      <point x="631.4563106796116" y="53.74757281553398"/>
      <point x="566.7184466019418" y="140.37864077669903"/>
      <point x="520.1067961165048" y="206.63106796116503" type="curve"/>
      <point x="419.1359223300971" y="349.1359223300971" type="line"/>
      <point x="365.3203883495146" y="292.4854368932039" type="line"/>
      <point x="539.9320388349514" y="293.3592233009709"/>
      <point x="606.4466019417476" y="389.0873786407767"/>
      <point x="606.4466019417476" y="510.4757281553398" type="curve" smooth="yes"/>
      <point x="606.4466019417476" y="661.6310679611651"/>
      <point x="515.5436893203884" y="717.378640776699"/>
      <point x="344.27184466019423" y="717.378640776699" type="curve"/>
      <point x="241.76699029126215" y="717.378640776699"/>
      <point x="141.3495145631068" y="713.0"/>
      <point x="67.8252427184466" y="713.0" type="curve"/>
      <point x="174.80582524271844" y="598.0291262135922" type="line"/>
      <point x="339.0194174757282" y="598.0291262135922" type="line" smooth="yes"/>
      <point x="394.73786407766994" y="598.0291262135922"/>
      <point x="458.30097087378647" y="584.5145631067962"/>
      <point x="458.30097087378647" y="493.70873786407765" type="curve" smooth="yes"/>
      <point x="458.30097087378647" y="405.50485436893206"/>
      <point x="410.33009708737865" y="376.15533980582524"/>
      <point x="318.2912621359224" y="376.15533980582524" type="curve" smooth="yes"/>
      <point x="194.5728155339806" y="376.15533980582524" type="line"/>
      <point x="194.5728155339806" y="265.8543689320388" type="line"/>
      <point x="359.95145631067965" y="265.8543689320388" type="line"/>
      <point x="273.621359223301" y="336.63106796116506" type="line"/>
      <point x="394.33980582524276" y="159.3495145631068" type="line"/>
      <point x="428.32038834951453" y="109.6116504854369"/>
      <point x="458.6796116504854" y="59.495145631067956"/>
    </contour>
    <contour>
      <point x="67.8252427184466" y="0.0" type="curve"/>
      <point x="232.35922330097088" y="0.0" type="line"/>
      <point x="223.72815533980582" y="77.49514563106796"/>
      <point x="221.2233009708738" y="144.11650485436894"/>
      <point x="221.2233009708738" y="233.36893203883494" type="curve"/>
      <point x="221.2233009708738" y="452.3495145631068" type="line"/>
      <point x="221.2233009708738" y="542.9805825242719"/>
      <point x="223.72815533980582" y="611.7281553398059"/>
      <point x="232.35922330097088" y="690.4757281553398" type="curve"/>
      <point x="67.8252427184466" y="713.0" type="line"/>
      <point x="75.45631067961166" y="634.252427184466"/>
      <point x="78.96116504854369" y="565.504854368932"/>
      <point x="78.96116504854369" y="474.873786407767" type="curve"/>
      <point x="78.96116504854369" y="233.36893203883494" type="line"/>
      <point x="78.96116504854369" y="144.11650485436894"/>
      <point x="75.45631067961166" y="77.49514563106796"/>
    </contour>
  </outline>
</glyph>
<glyph name="S" format="2">
  <advance width="596.7766990291262"/>
  <unicode hex="0053"/>
  <anchor x="301.00970873786406" y="0.0" name="bottom"/>
  <anchor x="301.00970873786406" y="713.0" name="top"/>
  <outline>
    <contour>
      <point x="297.495145631068" y="-12.504854368932039" type="curve" smooth="yes"/>
      <point x="483.40776699029124" y="-12.504854368932039"/>
      <point x="563.7961165048544" y="74.11650485436893"/>
      <point x="563.7961165048544" y="201.14563106796115" type="curve" smooth="yes"/>
      <point x="563.7961165048544" y="317.28155339805824"/>
      <point x="508.66990291262135" y="365.7864077669903"/>
      <point x="337.7961165048544" y="417.90291262135923" type="curve" smooth="yes"/>
      <point x="239.4757281553398" y="447.88349514563106"/>
      <point x="196.62135922330097" y="471.1165048543689"/>
      <point x="196.62135922330097" y="524.7087378640776" type="curve" smooth="yes"/>
      <point x="196.62135922330097" y="579.7961165048545"/>
      <point x="247.07766990291265" y="605.3980582524272"/>
      <point x="307.28155339805824" y="607.5242718446602" type="curve"/>
      <point x="344.15533980582524" y="607.5242718446602"/>
      <point x="422.91262135922335" y="589.2718446601941"/>
      <point x="510.54368932038835" y="550.5242718446601" type="curve"/>
      <point x="522.1747572815534" y="685.5145631067962" type="line"/>
      <point x="468.04854368932035" y="699.757281553398"/>
      <point x="368.1456310679611" y="727.252427184466"/>
      <point x="290.63106796116506" y="727.252427184466" type="curve" smooth="yes"/>
      <point x="125.4757281553398" y="727.252427184466"/>
      <point x="44.22330097087379" y="641.495145631068"/>
      <point x="44.22330097087379" y="519.8446601941748" type="curve" smooth="yes"/>
      <point x="44.22330097087379" y="396.58252427184465"/>
      <point x="120.84466019417475" y="348.69902912621365"/>
      <point x="252.45631067961165" y="309.83495145631065" type="curve" smooth="yes"/>
      <point x="352.16504854368935" y="280.4757281553398"/>
      <point x="412.3980582524272" y="255.2427184466019"/>
      <point x="412.3980582524272" y="194.15533980582524" type="curve" smooth="yes"/>
      <point x="412.3980582524272" y="132.95145631067962"/>
      <point x="360.94174757281553" y="107.97087378640778"/>
      <point x="296.36893203883494" y="105.84466019417476" type="curve"/>
      <point x="232.621359223301" y="105.84466019417476"/>
      <point x="142.85436893203882" y="129.3495145631068"/>
      <point x="66.23300970873787" y="163.09708737864077" type="curve"/>
      <point x="55.47572815533981" y="27.106796116504853" type="line"/>
      <point x="109.47572815533981" y="13.737864077669903"/>
      <point x="191.6019417475728" y="-12.504854368932039"/>
    </contour>
  </outline>
</glyph>
<glyph name="T" format="2">
  <advance width="644.3684210526316"/>
  <unicode hex="0054"/>
  <anchor x="322.6842105263158" y="0.0" name="bottom"/>
  <anchor x="322.6842105263158" y="326.4736842105263" name="center"/>
  <anchor x="322.6842105263158" y="713.0" name="top"/>
  <outline>
    <contour>
      <point x="239.42105263157896" y="0.0" type="curve"/>
      <point x="405.89473684210526" y="0.0" type="line"/>
      <point x="397.6315789473684" y="77.3157894736842"/>
      <point x="394.4736842105263" y="144.1578947368421"/>
      <point x="394.4736842105263" y="233.26315789473685" type="curve"/>
      <point x="394.4736842105263" y="452.0" type="line"/>
      <point x="394.4736842105263" y="543.2105263157895"/>
      <point x="398.10526315789474" y="611.6315789473684"/>
      <point x="405.89473684210526" y="690.5263157894736" type="curve"/>
      <point x="405.89473684210526" y="713.0" type="line"/>
      <point x="238.94736842105263" y="713.0" type="line"/>
      <point x="238.94736842105263" y="690.5263157894736" type="line"/>
      <point x="246.73684210526318" y="611.6315789473684"/>
      <point x="250.3684210526316" y="543.2105263157895"/>
      <point x="250.3684210526316" y="452.0" type="curve"/>
      <point x="250.3684210526316" y="233.26315789473685" type="line"/>
      <point x="250.3684210526316" y="144.1578947368421"/>
      <point x="247.21052631578948" y="77.3157894736842"/>
    </contour>
    <contour>
      <point x="27.105263157894736" y="571.6842105263157" type="line"/>
      <point x="80.3157894736842" y="581.578947368421"/>
      <point x="136.5263157894737" y="586.7368421052631"/>
      <point x="213.6315789473684" y="586.7368421052631" type="curve"/>
      <point x="274.3157894736842" y="586.7368421052631" type="line"/>
      <point x="274.3157894736842" y="713.0" type="line"/>
      <point x="27.105263157894736" y="713.0" type="line"/>
    </contour>
    <contour>
      <point x="370.05263157894734" y="586.7368421052631" type="line"/>
      <point x="430.7368421052632" y="586.7368421052631" type="line"/>
      <point x="507.8421052631579" y="586.7368421052631"/>
      <point x="564.5263157894738" y="582.0526315789473"/>
      <point x="617.2631578947369" y="571.6842105263157" type="curve"/>
      <point x="617.2631578947369" y="713.0" type="line"/>
      <point x="370.05263157894734" y="713.0" type="line"/>
    </contour>
  </outline>
</glyph>
<glyph name="U" format="2">
  <advance width="728.8421052631579"/>
  <unicode hex="0055"/>
  <anchor x="365.42105263157896" y="0.0" name="bottom"/>
  <anchor x="470.57894736842104" y="0.0" name="ogonek"/>
  <anchor x="365.42105263157896" y="713.0" name="top"/>
  <anchor x="703.2105263157895" y="713.0" name="topright"/>
  <outline>
    <contour>
      <point x="365.4736842105263" y="-12.68421052631579" type="curve" smooth="yes"/>
      <point x="569.8947368421053" y="-12.68421052631579"/>
      <point x="662.4210526315788" y="90.0"/>
      <point x="662.4210526315788" y="271.1578947368421" type="curve" smooth="yes"/>
      <point x="662.4210526315788" y="308.8421052631579"/>
      <point x="659.3157894736842" y="395.36842105263156"/>
      <point x="659.3157894736842" y="474.4736842105263" type="curve"/>
      <point x="659.3157894736842" y="565.6842105263158"/>
      <point x="662.4736842105262" y="634.1052631578947"/>
      <point x="670.7368421052631" y="713.0" type="curve"/>
      <point x="504.2631578947368" y="713.0" type="line"/>
      <point x="511.5263157894737" y="634.1052631578947"/>
      <point x="515.2105263157895" y="565.6842105263158"/>
      <point x="515.2105263157895" y="474.4736842105263" type="curve"/>
      <point x="515.2105263157895" y="281.1578947368421" type="line" smooth="yes"/>
      <point x="515.2105263157895" y="167.73684210526318"/>
      <point x="475.7368421052632" y="110.26315789473684"/>
      <point x="364.94736842105266" y="107.1578947368421" type="curve"/>
      <point x="256.2631578947368" y="110.26315789473684"/>
      <point x="213.15789473684208" y="168.21052631578948"/>
      <point x="213.15789473684208" y="280.6842105263158" type="curve" smooth="yes"/>
      <point x="213.15789473684208" y="474.4736842105263" type="line"/>
      <point x="213.15789473684208" y="565.6842105263158"/>
      <point x="216.3157894736842" y="634.1052631578947"/>
      <point x="224.57894736842104" y="713.0" type="curve"/>
      <point x="58.10526315789474" y="713.0" type="line"/>
      <point x="65.36842105263158" y="634.1052631578947"/>
      <point x="69.05263157894737" y="565.6842105263158"/>
      <point x="69.05263157894737" y="474.4736842105263" type="curve"/>
      <point x="69.05263157894737" y="395.36842105263156"/>
      <point x="65.94736842105263" y="310.94736842105266"/>
      <point x="65.94736842105263" y="271.6842105263158" type="curve" smooth="yes"/>
      <point x="65.94736842105263" y="93.15789473684211"/>
      <point x="152.57894736842104" y="-12.68421052631579"/>
    </contour>
  </outline>
</glyph>
<glyph name="V" format="2">
  <advance width="705.8947368421052"/>
  <unicode hex="0056"/>
  <anchor x="353.42105263157896" y="0.0" name="bottom"/>
  <anchor x="353.42105263157896" y="713.0" name="top"/>
  <outline>
    <contour>
      <point x="245.78947368421052" y="0.0" type="curve"/>
      <point x="459.36842105263156" y="0.0" type="line"/>
      <point x="477.4736842105263" y="72.47368421052632"/>
      <point x="500.0" y="156.52631578947367"/>
      <point x="522.7894736842105" y="225.52631578947367" type="curve"/>
      <point x="595.578947368421" y="450.0" type="line"/>
      <point x="620.8421052631579" y="527.5263157894736"/>
      <point x="658.7368421052631" y="631.1578947368421"/>
      <point x="695.3157894736843" y="713.0" type="curve"/>
      <point x="512.7368421052632" y="713.0" type="line"/>
      <point x="492.3684210526316" y="617.9473684210526"/>
      <point x="464.89473684210526" y="508.89473684210526"/>
      <point x="437.6842105263158" y="415.42105263157896" type="curve"/>
      <point x="358.4736842105263" y="147.05263157894734" type="line"/>
      <point x="347.2105263157894" y="147.05263157894734" type="line"/>
      <point x="270.6842105263158" y="414.42105263157896" type="line"/>
      <point x="244.05263157894737" y="507.0"/>
      <point x="214.1578947368421" y="618.8947368421053"/>
      <point x="194.73684210526315" y="713.0" type="curve"/>
      <point x="9.578947368421053" y="713.0" type="line"/>
      <point x="47.631578947368425" y="630.1578947368421"/>
      <point x="85.0" y="527.0526315789473"/>
      <point x="109.73684210526316" y="450.0" type="curve"/>
      <point x="182.42105263157896" y="226.0" type="line"/>
      <point x="204.1578947368421" y="158.5263157894737"/>
      <point x="228.21052631578948" y="71.52631578947368"/>
    </contour>
  </outline>
</glyph>
<glyph name="W" format="2">
  <advance width="1039.5263157894738"/>
  <unicode hex="0057"/>
  <anchor x="516.3684210526316" y="0.0" name="bottom"/>
  <anchor x="516.3684210526316" y="713.0" name="top"/>
  <outline>
    <contour>
      <point x="206.5263157894737" y="0.0" type="curve"/>
      <point x="395.57894736842104" y="0.0" type="line"/>
      <point x="409.3157894736842" y="83.6842105263158"/>
      <point x="429.42105263157896" y="184.05263157894737"/>
      <point x="449.3157894736842" y="266.1578947368421" type="curve"/>
      <point x="507.05263157894734" y="506.7368421052632" type="line"/>
      <point x="518.3157894736842" y="506.7368421052632" type="line"/>
      <point x="577.578947368421" y="266.6842105263158" type="line"/>
      <point x="598.0" y="184.05263157894737"/>
      <point x="618.1052631578948" y="84.15789473684211"/>
      <point x="632.3157894736842" y="0.0" type="curve"/>
      <point x="830.8421052631578" y="0.0" type="line"/>
      <point x="842.0526315789474" y="69.05263157894737"/>
      <point x="863.3157894736842" y="155.5263157894737"/>
      <point x="882.6842105263158" y="225.47368421052633" type="curve"/>
      <point x="944.8421052631579" y="450.0" type="line"/>
      <point x="966.2105263157895" y="528.4736842105262"/>
      <point x="996.7368421052631" y="629.6315789473683"/>
      <point x="1032.0" y="713.0" type="curve"/>
      <point x="846.2631578947369" y="713.0" type="line"/>
      <point x="831.5789473684212" y="623.1052631578947"/>
      <point x="810.5263157894736" y="516.3684210526316"/>
      <point x="790.7368421052631" y="428.5263157894737" type="curve"/>
      <point x="733.2631578947369" y="171.21052631578948" type="line"/>
      <point x="722.0" y="171.21052631578948" type="line"/>
      <point x="662.7368421052631" y="427.5263157894737" type="line"/>
      <point x="641.3684210526316" y="517.3157894736842"/>
      <point x="621.7368421052632" y="622.1578947368421"/>
      <point x="607.0526315789474" y="713.0" type="curve"/>
      <point x="431.0" y="713.0" type="line"/>
      <point x="417.2631578947369" y="623.578947368421"/>
      <point x="396.1578947368421" y="515.421052631579"/>
      <point x="376.2631578947368" y="428.5263157894737" type="curve"/>
      <point x="318.5263157894737" y="171.21052631578948" type="line"/>
      <point x="307.2631578947368" y="171.21052631578948" type="line"/>
      <point x="250.26315789473682" y="426.5789473684211" type="line"/>
      <point x="229.99999999999997" y="516.3684210526316"/>
      <point x="209.42105263157896" y="622.1578947368421"/>
      <point x="194.26315789473682" y="713.0" type="curve"/>
      <point x="8.000000000000002" y="713.0" type="line"/>
      <point x="42.84210526315789" y="630.0526315789474"/>
      <point x="73.21052631578948" y="527.5263157894738"/>
      <point x="94.57894736842105" y="449.05263157894734" type="curve"/>
      <point x="155.21052631578948" y="225.0" type="line"/>
      <point x="173.57894736842107" y="156.52631578947367"/>
      <point x="193.8421052631579" y="71.52631578947368"/>
    </contour>
  </outline>
</glyph>
<glyph name="X" format="2">
  <advance width="711.1052631578947"/>
  <unicode hex="0058"/>
  <outline>
    <contour>
      <point x="19.894736842105264" y="0.0" type="curve"/>
      <point x="205.36842105263156" y="0.0" type="line"/>
      <point x="228.15789473684208" y="56.31578947368421"/>
      <point x="251.31578947368422" y="105.31578947368422"/>
      <point x="277.0" y="152.10526315789474" type="curve"/>
      <point x="339.63157894736844" y="267.63157894736844" type="line"/>
      <point x="350.89473684210526" y="267.63157894736844" type="line"/>
      <point x="417.89473684210526" y="152.57894736842104" type="line"/>
      <point x="444.57894736842104" y="107.21052631578948"/>
      <point x="473.2105263157895" y="56.31578947368421"/>
      <point x="497.94736842105266" y="0.0" type="curve"/>
      <point x="692.7894736842105" y="0.0" type="line"/>
      <point x="634.8947368421053" y="72.36842105263158"/>
      <point x="589.1578947368421" y="140.42105263157893"/>
      <point x="540.0526315789473" y="219.52631578947367" type="curve"/>
      <point x="442.94736842105266" y="375.57894736842104" type="line"/>
      <point x="442.94736842105266" y="335.94736842105266" type="line"/>
      <point x="537.6315789473683" y="503.94736842105266" type="line"/>
      <point x="571.8421052631579" y="564.6315789473684"/>
      <point x="615.0526315789474" y="637.8947368421053"/>
      <point x="672.2105263157895" y="713.0" type="curve"/>
      <point x="486.2631578947368" y="713.0" type="line"/>
      <point x="461.36842105263156" y="655.0"/>
      <point x="434.36842105263156" y="597.6315789473684"/>
      <point x="407.6842105263158" y="548.2631578947369" type="curve"/>
      <point x="355.2105263157895" y="450.8421052631579" type="line"/>
      <point x="343.94736842105266" y="450.8421052631579" type="line"/>
      <point x="289.4736842105263" y="547.7894736842105" type="line"/>
      <point x="261.7894736842105" y="596.6842105263158"/>
      <point x="233.26315789473685" y="654.1052631578948"/>
      <point x="207.3684210526316" y="713.0" type="curve"/>
      <point x="18.789473684210527" y="713.0" type="line"/>
      <point x="78.78947368421052" y="634.0526315789473"/>
      <point x="119.94736842105264" y="565.421052631579"/>
      <point x="160.57894736842104" y="497.3157894736842" type="curve"/>
      <point x="248.21052631578948" y="349.7368421052632" type="line"/>
      <point x="248.21052631578948" y="385.1578947368421" type="line"/>
      <point x="148.73684210526318" y="206.89473684210526" type="line"/>
      <point x="106.63157894736842" y="131.21052631578948"/>
      <point x="66.94736842105263" y="65.63157894736842"/>
    </contour>
  </outline>
</glyph>
<glyph name="Y" format="2">
  <advance width="674.2631578947369"/>
  <unicode hex="0059"/>
  <anchor x="339.2105263157894" y="0.0" name="bottom"/>
  <anchor x="339.2105263157894" y="713.0" name="top"/>
  <anchor x="20.0" y="713.0" name="topleft"/>
  <outline>
    <contour>
      <point x="270.0" y="258.94736842105266" type="line"/>
      <point x="407.89473684210526" y="258.94736842105266" type="line"/>
      <point x="556.6842105263158" y="534.6842105263158" type="line"/>
      <point x="588.0526315789474" y="593.0"/>
      <point x="622.4736842105262" y="652.7368421052631"/>
      <point x="665.7894736842105" y="713.0" type="curve"/>
      <point x="479.1578947368421" y="713.0" type="line"/>
      <point x="448.8421052631579" y="626.9473684210526"/>
      <point x="429.57894736842104" y="582.3684210526316"/>
      <point x="396.7368421052631" y="515.3157894736842" type="curve"/>
      <point x="345.36842105263156" y="410.0526315789474" type="line"/>
      <point x="333.05263157894734" y="410.0526315789474" type="line"/>
      <point x="280.7894736842105" y="518.2105263157895" type="line"/>
      <point x="249.36842105263156" y="582.8421052631579"/>
      <point x="231.05263157894737" y="625.9473684210526"/>
      <point x="200.26315789473682" y="713.0" type="curve"/>
      <point x="8.894736842105264" y="713.0" type="line"/>
      <point x="59.21052631578947" y="643.2105263157895"/>
      <point x="88.73684210526316" y="593.4736842105264"/>
      <point x="120.63157894736842" y="534.6842105263158" type="curve"/>
    </contour>
    <contour>
      <point x="255.94736842105266" y="0.0" type="curve"/>
      <point x="422.9473684210526" y="0.0" type="line"/>
      <point x="414.6842105263158" y="77.3157894736842"/>
      <point x="411.52631578947364" y="144.1578947368421"/>
      <point x="411.52631578947364" y="233.26315789473685" type="curve"/>
      <point x="411.52631578947364" y="380.2105263157895" type="line"/>
      <point x="266.89473684210526" y="380.2105263157895" type="line"/>
      <point x="266.89473684210526" y="233.26315789473685" type="line"/>
      <point x="266.89473684210526" y="144.1578947368421"/>
      <point x="263.2105263157895" y="77.3157894736842"/>
    </contour>
  </outline>
</glyph>
<glyph name="Z" format="2">
  <advance width="682.6842105263158"/>
  <unicode hex="005A"/>
  <anchor x="341.57894736842104" y="0.0" name="bottom"/>
  <anchor x="341.57894736842104" y="357.0" name="center"/>
  <anchor x="341.57894736842104" y="713.0" name="top"/>
  <outline>
    <contour>
      <point x="41.8421052631579" y="0.0" type="line"/>
      <point x="638.4736842105264" y="0.0" type="line"/>
      <point x="638.4736842105264" y="136.52631578947367" type="line"/>
      <point x="565.2105263157895" y="124.15789473684211"/>
      <point x="446.9473684210526" y="120.47368421052632"/>
      <point x="365.7894736842105" y="120.47368421052632" type="curve"/>
      <point x="196.52631578947367" y="120.47368421052632" type="line"/>
      <point x="209.4736842105263" y="71.3157894736842" type="line"/>
      <point x="469.1578947368421" y="403.1578947368421" type="line"/>
      <point x="523.0526315789474" y="472.7894736842105"/>
      <point x="577.4736842105264" y="541.8947368421053"/>
      <point x="633.3684210526316" y="602.578947368421" type="curve"/>
      <point x="633.3684210526316" y="713.0" type="line"/>
      <point x="51.526315789473685" y="713.0" type="line"/>
      <point x="51.526315789473685" y="574.8421052631578" type="line"/>
      <point x="144.10526315789474" y="588.3684210526316"/>
      <point x="231.26315789473685" y="592.5263157894736"/>
      <point x="308.0" y="592.5263157894736" type="curve"/>
      <point x="494.1578947368421" y="592.5263157894736" type="line"/>
      <point x="474.3157894736842" y="637.8947368421053" type="line"/>
      <point x="225.63157894736844" y="315.2105263157895" type="line"/>
      <point x="170.63157894736844" y="243.94736842105263"/>
      <point x="93.36842105263158" y="145.5263157894737"/>
      <point x="41.8421052631579" y="93.26315789473685" type="curve"/>
    </contour>
  </outline>
</glyph>
<glyph name="bracketleft" format="2">
  <advance width="397.63157894736844"/>
  <unicode hex="005B"/>
  <outline>
    <contour>
      <point x="72.15789473684211" y="-121.47368421052632" type="curve"/>
      <point x="212.89473684210526" y="-121.47368421052632" type="line"/>
      <point x="212.89473684210526" y="-98.52631578947368" type="line"/>
      <point x="204.6315789473684" y="-21.210526315789473"/>
      <point x="201.4736842105263" y="45.63157894736842"/>
      <point x="201.4736842105263" y="134.73684210526315" type="curve"/>
      <point x="201.4736842105263" y="511.10526315789474" type="line"/>
      <point x="201.4736842105263" y="602.3157894736842"/>
      <point x="204.6315789473684" y="670.7368421052631"/>
      <point x="212.89473684210526" y="749.6315789473684" type="curve"/>
      <point x="212.89473684210526" y="772.1052631578947" type="line"/>
      <point x="72.15789473684211" y="772.1052631578947" type="line"/>
      <point x="77.84210526315789" y="693.2105263157895"/>
      <point x="81.52631578947368" y="624.7894736842105"/>
      <point x="81.52631578947368" y="533.578947368421" type="curve"/>
      <point x="81.52631578947368" y="111.78947368421052" type="line"/>
      <point x="81.52631578947368" y="22.68421052631579"/>
      <point x="77.84210526315789" y="-44.1578947368421"/>
    </contour>
    <contour>
      <point x="184.94736842105263" y="-121.47368421052632" type="line"/>
      <point x="376.63157894736844" y="-121.47368421052632" type="line"/>
      <point x="376.63157894736844" y="-8.894736842105269" type="line"/>
      <point x="331.3157894736842" y="-14.631578947368427"/>
      <point x="282.4736842105263" y="-16.21052631578948"/>
      <point x="227.6842105263158" y="-16.21052631578948" type="curve"/>
      <point x="184.94736842105263" y="-16.21052631578948" type="line"/>
    </contour>
    <contour>
      <point x="176.5263157894737" y="666.8421052631579" type="line"/>
      <point x="219.94736842105263" y="666.8421052631579" type="line"/>
      <point x="285.7368421052632" y="666.8421052631579"/>
      <point x="331.63157894736844" y="663.6842105263158"/>
      <point x="374.4736842105263" y="659.5263157894738" type="curve"/>
      <point x="374.4736842105263" y="772.1052631578947" type="line"/>
      <point x="176.5263157894737" y="772.1052631578947" type="line"/>
    </contour>
  </outline>
</glyph>
<glyph name="backslash" format="2">
  <advance width="462.7368421052631"/>
  <unicode hex="005C"/>
  <outline>
    <contour>
      <point x="300.89473684210526" y="0.0" type="curve"/>
      <point x="446.8421052631579" y="0.0" type="line"/>
      <point x="409.6842105263158" y="74.0"/>
      <point x="382.84210526315786" y="137.0"/>
      <point x="346.10526315789474" y="228.0" type="curve"/>
      <point x="246.78947368421052" y="476.0" type="line"/>
      <point x="209.05263157894737" y="570.4736842105264"/>
      <point x="184.26315789473682" y="636.0"/>
      <point x="161.3157894736842" y="713.0" type="curve"/>
      <point x="15.894736842105265" y="713.0" type="line"/>
      <point x="55.0" y="636.0"/>
      <point x="81.84210526315789" y="571.0"/>
      <point x="120.57894736842105" y="474.0" type="curve"/>
      <point x="218.8947368421053" y="228.0" type="line"/>
      <point x="255.63157894736844" y="137.0"/>
      <point x="279.42105263157896" y="74.0"/>
    </contour>
  </outline>
</glyph>
<glyph name="asciicircum" format="2">
  <advance width="625.7894736842105"/>
  <unicode hex="005E"/>
  <outline>
    <contour>
      <point x="458.6842105263158" y="365.0526315789474" type="curve"/>
      <point x="575.1578947368421" y="366.57894736842104" type="line"/>
      <point x="513.5263157894736" y="473.10526315789474"/>
      <point x="453.42105263157896" y="580.6315789473684"/>
      <point x="403.10526315789474" y="687.1578947368421" type="curve"/>
      <point x="222.6842105263158" y="687.1578947368421" type="line"/>
      <point x="172.3684210526316" y="580.6315789473684"/>
      <point x="112.26315789473685" y="475.10526315789474"/>
      <point x="50.631578947368425" y="368.57894736842104" type="curve"/>
      <point x="167.63157894736844" y="368.57894736842104" type="line"/>
      <point x="216.89473684210526" y="437.2105263157895"/>
      <point x="262.10526315789474" y="506.8421052631579"/>
      <point x="307.2631578947368" y="575.4736842105264" type="curve"/>
      <point x="318.5263157894737" y="575.4736842105264" type="line"/>
      <point x="363.6842105263158" y="505.3157894736842"/>
      <point x="409.42105263157896" y="435.2105263157895"/>
    </contour>
  </outline>
</glyph>
<glyph name="a" format="2">
  <advance width="533.0"/>
  <unicode hex="0061"/>
  <anchor x="264.126213592233" y="0.0" name="bottom"/>
  <anchor x="468.7864077669903" y="0.0" name="ogonek"/>
  <anchor x="264.126213592233" y="498.504854368932" name="top"/>
  <outline>
    <contour>
      <point x="185.4466019417476" y="-11.37864077669903" type="curve" smooth="yes"/>
      <point x="246.4466019417476" y="-11.37864077669903"/>
      <point x="310.4271844660194" y="30.252427184466022"/>
      <point x="340.9223300970874" y="62.5145631067961" type="curve"/>
      <point x="351.4271844660194" y="62.5145631067961" type="line"/>
      <point x="370.0485436893204" y="0.0" type="line"/>
      <point x="500.5339805825243" y="0.0" type="line"/>
      <point x="477.90291262135923" y="61.13592233009709"/>
      <point x="468.5339805825243" y="115.52427184466018"/>
      <point x="468.5339805825243" y="164.66019417475727" type="curve"/>
      <point x="468.5339805825243" y="211.126213592233" type="line" smooth="yes"/>
      <point x="468.5339805825243" y="250.11650485436894"/>
      <point x="471.6601941747573" y="301.49514563106794"/>
      <point x="471.6601941747573" y="333.873786407767" type="curve" smooth="yes"/>
      <point x="471.6601941747573" y="458.757281553398"/>
      <point x="397.39805825242723" y="511.00970873786406"/>
      <point x="273.1359223300971" y="511.00970873786406" type="curve" smooth="yes"/>
      <point x="197.23300970873785" y="511.00970873786406"/>
      <point x="109.22330097087378" y="488.631067961165"/>
      <point x="61.71844660194175" y="475.75728155339806" type="curve"/>
      <point x="67.09708737864078" y="355.5339805825243" type="line"/>
      <point x="133.70873786407765" y="382.40776699029124"/>
      <point x="214.09708737864077" y="402.7864077669903"/>
      <point x="239.59223300970874" y="402.7864077669903" type="curve" smooth="yes"/>
      <point x="296.84466019417476" y="402.7864077669903"/>
      <point x="346.93203883495147" y="382.6699029126213"/>
      <point x="344.18446601941747" y="317.6116504854369" type="curve"/>
      <point x="202.20388349514565" y="296.2330097087378" type="line" smooth="yes"/>
      <point x="125.7378640776699" y="284.4854368932039"/>
      <point x="39.59223300970874" y="248.36893203883494"/>
      <point x="39.59223300970874" y="136.48543689320388" type="curve" smooth="yes"/>
      <point x="39.59223300970874" y="43.262135922330096"/>
      <point x="100.6893203883495" y="-11.37864077669903"/>
    </contour>
    <contour>
      <point x="233.5242718446602" y="90.96116504854368" type="curve" smooth="yes"/>
      <point x="200.3009708737864" y="90.96116504854368"/>
      <point x="170.32038834951456" y="106.20388349514563"/>
      <point x="170.32038834951456" y="148.4271844660194" type="curve" smooth="yes"/>
      <point x="170.32038834951456" y="187.28155339805826"/>
      <point x="194.3106796116505" y="212.1359223300971"/>
      <point x="235.5242718446602" y="219.8834951456311" type="curve" smooth="yes"/>
      <point x="309.07766990291265" y="233.25242718446603"/>
      <point x="327.56310679611653" y="238.37864077669903"/>
      <point x="340.80582524271847" y="247.37864077669903" type="curve"/>
      <point x="340.80582524271847" y="169.38834951456312" type="line"/>
      <point x="314.07766990291265" y="122.05825242718448"/>
      <point x="264.12621359223306" y="90.96116504854368"/>
    </contour>
  </outline>
</glyph>
<glyph name="b" format="2">
  <advance width="594.2105263157895"/>
  <unicode hex="0062"/>
  <outline>
    <contour>
      <point x="350.6842105263158" y="-12.68421052631579" type="curve" smooth="yes"/>
      <point x="488.7894736842105" y="-12.68421052631579"/>
      <point x="554.3157894736842" y="111.05263157894737"/>
      <point x="554.3157894736842" y="250.05263157894737" type="curve" smooth="yes"/>
      <point x="554.3157894736842" y="398.10526315789474"/>
      <point x="482.4210526315789" y="511.36842105263156"/>
      <point x="349.2105263157894" y="511.36842105263156" type="curve" smooth="yes"/>
      <point x="294.0" y="511.36842105263156"/>
      <point x="246.9473684210526" y="482.7894736842106"/>
      <point x="212.6315789473684" y="445.1052631578947" type="curve"/>
      <point x="201.3684210526316" y="445.1052631578947" type="line"/>
      <point x="201.3684210526316" y="493.4736842105263" type="line"/>
      <point x="201.3684210526316" y="584.2631578947369"/>
      <point x="207.1578947368421" y="666.9473684210526"/>
      <point x="215.42105263157896" y="746.3157894736842" type="curve"/>
      <point x="49.05263157894737" y="730.578947368421" type="line"/>
      <point x="64.63157894736842" y="652.7894736842105"/>
      <point x="70.31578947368422" y="575.3157894736842"/>
      <point x="70.31578947368422" y="493.4736842105263" type="curve"/>
      <point x="70.31578947368422" y="216.78947368421052" type="line"/>
      <point x="70.31578947368422" y="134.21052631578948"/>
      <point x="66.63157894736842" y="71.84210526315789"/>
      <point x="59.89473684210527" y="0.0" type="curve"/>
      <point x="173.1578947368421" y="0.0" type="line"/>
      <point x="188.26315789473685" y="63.631578947368425" type="line"/>
      <point x="197.94736842105263" y="63.631578947368425" type="line"/>
      <point x="243.73684210526318" y="12.157894736842104"/>
      <point x="299.0" y="-12.68421052631579"/>
    </contour>
    <contour>
      <point x="302.7894736842105" y="99.84210526315789" type="curve"/>
      <point x="262.0" y="101.42105263157895"/>
      <point x="227.78947368421052" y="123.26315789473684"/>
      <point x="201.3684210526316" y="162.42105263157896" type="curve"/>
      <point x="201.3684210526316" y="346.10526315789474" type="line"/>
      <point x="229.3157894736842" y="379.3157894736842"/>
      <point x="267.4210526315789" y="396.2631578947369"/>
      <point x="301.84210526315786" y="397.2631578947369" type="curve"/>
      <point x="381.7894736842105" y="394.2631578947369"/>
      <point x="420.1578947368421" y="329.89473684210526"/>
      <point x="420.1578947368421" y="249.0" type="curve" smooth="yes"/>
      <point x="420.1578947368421" y="172.05263157894737"/>
      <point x="383.6315789473684" y="102.84210526315789"/>
    </contour>
  </outline>
</glyph>
<glyph name="g" format="2">
  <advance width="549.7669902912621"/>
  <unicode hex="0067"/>
  <anchor x="274.13592233009706" y="-192.0" name="bottom"/>
  <anchor x="274.13592233009706" y="498.504854368932" name="top"/>
  <outline>
    <contour>
      <point x="240.11650485436894" y="-204.252427184466" type="curve" smooth="yes"/>
      <point x="366.7669902912621" y="-204.252427184466"/>
      <point x="513.6699029126213" y="-151.88349514563106"/>
      <point x="513.6699029126213" y="-20.71844660194175" type="curve" smooth="yes"/>
      <point x="513.6699029126213" y="74.5631067961165"/>
      <point x="441.7669902912621" y="103.18446601941747"/>
      <point x="311.9126213592233" y="103.18446601941747" type="curve" smooth="yes"/>
      <point x="291.2912621359223" y="103.18446601941747" type="line" smooth="yes"/>
      <point x="229.57281553398062" y="103.18446601941747"/>
      <point x="203.70873786407768" y="108.80582524271844"/>
      <point x="203.70873786407768" y="129.92233009708738" type="curve" smooth="yes"/>
      <point x="203.70873786407768" y="149.66990291262135"/>
      <point x="232.19417475728156" y="157.29126213592232"/>
      <point x="291.54368932038835" y="170.53398058252426" type="curve" smooth="yes"/>
      <point x="383.90291262135923" y="190.9029126213592"/>
      <point x="453.4174757281553" y="239.76699029126215"/>
      <point x="453.4174757281553" y="339.126213592233" type="curve" smooth="yes"/>
      <point x="453.4174757281553" y="394.99029126213594"/>
      <point x="432.30097087378635" y="439.1067961165049"/>
      <point x="385.33009708737865" y="467.1067961165048" type="curve"/>
      <point x="350.30097087378635" y="419.43689320388347" type="line"/>
      <point x="410.2912621359223" y="417.31067961165047"/>
      <point x="467.02912621359224" y="410.80582524271847"/>
      <point x="530.2718446601941" y="395.2912621359223" type="curve"/>
      <point x="530.2718446601941" y="499.88349514563106" type="line"/>
      <point x="388.5533980582524" y="499.88349514563106" type="line" smooth="yes"/>
      <point x="324.15533980582524" y="499.88349514563106"/>
      <point x="299.6504854368932" y="511.00970873786406"/>
      <point x="246.0097087378641" y="511.00970873786406" type="curve" smooth="yes"/>
      <point x="108.83495145631068" y="511.00970873786406"/>
      <point x="38.09708737864078" y="440.49514563106794"/>
      <point x="38.09708737864078" y="346.126213592233" type="curve" smooth="yes"/>
      <point x="38.09708737864078" y="255.1359223300971"/>
      <point x="106.44660194174757" y="210.1359223300971"/>
      <point x="143.98058252427185" y="190.37864077669906" type="curve"/>
      <point x="143.98058252427185" y="181.74757281553397" type="line"/>
      <point x="101.34951456310678" y="163.12621359223303"/>
      <point x="83.09708737864077" y="133.24271844660194"/>
      <point x="83.09708737864077" y="100.24271844660194" type="curve" smooth="yes"/>
      <point x="83.09708737864077" y="53.873786407766985"/>
      <point x="117.84466019417475" y="31.86407766990291"/>
      <point x="135.9902912621359" y="26.737864077669904" type="curve"/>
      <point x="135.9902912621359" y="17.233009708737868" type="line"/>
      <point x="107.3495145631068" y="7.233009708737865"/>
      <point x="44.980582524271846" y="-27.514563106796118"/>
      <point x="44.980582524271846" y="-88.63106796116506" type="curve" smooth="yes"/>
      <point x="44.980582524271846" y="-147.1359223300971"/>
      <point x="90.48543689320387" y="-204.252427184466"/>
    </contour>
    <contour>
      <point x="262.1456310679612" y="-108.07766990291263" type="curve"/>
      <point x="188.67961165048544" y="-106.95145631067962"/>
      <point x="160.5631067961165" y="-83.21359223300969"/>
      <point x="160.5631067961165" y="-57.728155339805824" type="curve" smooth="yes"/>
      <point x="160.5631067961165" y="-26.126213592233007"/>
      <point x="217.40776699029126" y="-7.262135922330097"/>
      <point x="253.75728155339803" y="-0.019417475728154443" type="curve"/>
      <point x="273.86407766990294" y="-0.019417475728154443" type="line" smooth="yes"/>
      <point x="363.05825242718447" y="-0.019417475728154443"/>
      <point x="390.6796116504854" y="-15.514563106796116"/>
      <point x="390.6796116504854" y="-43.495145631067956" type="curve" smooth="yes"/>
      <point x="390.6796116504854" y="-72.47572815533981"/>
      <point x="339.20388349514565" y="-103.95145631067962"/>
    </contour>
    <contour>
      <point x="240.2621359223301" y="250.9126213592233" type="curve"/>
      <point x="206.5339805825243" y="263.15533980582524"/>
      <point x="158.70873786407768" y="288.5145631067961"/>
      <point x="158.70873786407768" y="333.22330097087377" type="curve" smooth="yes"/>
      <point x="158.70873786407768" y="378.93203883495147"/>
      <point x="199.66990291262135" y="402.41747572815535"/>
      <point x="244.0097087378641" y="405.41747572815535" type="curve"/>
      <point x="290.73786407766994" y="402.54368932038835"/>
      <point x="335.45631067961165" y="380.93203883495147"/>
      <point x="335.45631067961165" y="328.1067961165049" type="curve" smooth="yes"/>
      <point x="335.45631067961165" y="276.65048543689323"/>
      <point x="278.61165048543694" y="257.40776699029124"/>
    </contour>
  </outline>
</glyph>
<glyph name="h" format="2">
  <advance width="583.7894736842106"/>
  <unicode hex="0068"/>
  <guideline x="99.89473684210526" y="729.2631578947368" angle="4.470799999999997"/>
  <anchor x="295.84210526315786" y="0.0" name="bottom"/>
  <anchor x="295.84210526315786" y="409.0" name="center"/>
  <anchor x="272.5263157894737" y="728.2631578947369" name="top"/>
  <outline>
    <contour>
      <point x="59.89473684210527" y="0.0" type="curve"/>
      <point x="212.26315789473685" y="0.0" type="line"/>
      <point x="204.5263157894737" y="71.84210526315789"/>
      <point x="201.3684210526316" y="134.21052631578948"/>
      <point x="201.3684210526316" y="209.94736842105263" type="curve"/>
      <point x="201.3684210526316" y="317.05263157894734" type="line"/>
      <point x="230.8421052631579" y="357.47368421052636"/>
      <point x="282.7368421052632" y="390.9473684210526"/>
      <point x="314.4736842105263" y="390.9473684210526" type="curve" smooth="yes"/>
      <point x="371.1578947368421" y="390.9473684210526"/>
      <point x="389.57894736842104" y="354.10526315789474"/>
      <point x="389.57894736842104" y="279.6842105263158" type="curve"/>
      <point x="389.57894736842104" y="209.94736842105263" type="line"/>
      <point x="389.57894736842104" y="134.21052631578948"/>
      <point x="386.42105263157896" y="71.84210526315789"/>
      <point x="380.7368421052632" y="0.0" type="curve"/>
      <point x="532.0526315789474" y="0.0" type="line"/>
      <point x="522.7368421052632" y="71.84210526315789"/>
      <point x="520.6315789473684" y="134.21052631578948"/>
      <point x="520.6315789473684" y="216.78947368421052" type="curve"/>
      <point x="520.6315789473684" y="249.6315789473684"/>
      <point x="523.7368421052632" y="290.36842105263156"/>
      <point x="523.7368421052632" y="333.89473684210526" type="curve" smooth="yes"/>
      <point x="523.7368421052632" y="451.05263157894734"/>
      <point x="471.7368421052631" y="511.36842105263156"/>
      <point x="368.6315789473684" y="511.36842105263156" type="curve" smooth="yes"/>
      <point x="310.42105263157896" y="511.36842105263156"/>
      <point x="248.6315789473684" y="467.7894736842105"/>
      <point x="213.1578947368421" y="424.7368421052632" type="curve"/>
      <point x="201.3684210526316" y="424.7368421052632" type="line"/>
      <point x="201.3684210526316" y="493.4736842105263" type="line"/>
      <point x="201.3684210526316" y="584.2631578947369"/>
      <point x="207.1578947368421" y="666.9473684210527"/>
      <point x="216.47368421052633" y="746.3157894736842" type="curve"/>
      <point x="49.05263157894737" y="730.578947368421" type="line"/>
      <point x="64.63157894736842" y="652.7894736842105"/>
      <point x="70.31578947368422" y="575.3157894736842"/>
      <point x="70.31578947368422" y="493.4736842105263" type="curve"/>
      <point x="70.31578947368422" y="216.78947368421052" type="line"/>
      <point x="70.31578947368422" y="134.21052631578948"/>
      <point x="66.63157894736842" y="71.84210526315789"/>
    </contour>
  </outline>
</glyph>
<glyph name="l" format="2">
  <advance width="271.6842105263158"/>
  <unicode hex="006C"/>
  <anchor x="135.8421052631579" y="0.0" name="bottom"/>
  <anchor x="138.47368421052633" y="409.0" name="center"/>
  <anchor x="135.8421052631579" y="728.2631578947369" name="top"/>
  <anchor x="237.1578947368421" y="498.2105263157895" name="topright"/>
  <outline>
    <contour>
      <point x="59.89473684210527" y="0.0" type="curve"/>
      <point x="212.26315789473685" y="0.0" type="line"/>
      <point x="204.5263157894737" y="71.84210526315789"/>
      <point x="201.3684210526316" y="134.21052631578948"/>
      <point x="201.3684210526316" y="216.78947368421052" type="curve"/>
      <point x="201.3684210526316" y="493.4736842105263" type="line"/>
      <point x="201.3684210526316" y="584.2631578947369"/>
      <point x="207.1578947368421" y="666.9473684210526"/>
      <point x="215.42105263157896" y="746.3157894736842" type="curve"/>
      <point x="49.05263157894737" y="730.578947368421" type="line"/>
      <point x="64.63157894736842" y="652.7894736842105"/>
      <point x="70.31578947368422" y="575.3157894736842"/>
      <point x="70.31578947368422" y="493.4736842105263" type="curve"/>
      <point x="70.31578947368422" y="216.78947368421052" type="line"/>
      <point x="70.31578947368422" y="134.21052631578948"/>
      <point x="66.63157894736842" y="71.84210526315789"/>
    </contour>
  </outline>
</glyph>
<glyph name="m" format="2">
  <advance width="884.3684210526316"/>
  <unicode hex="006D"/>
  <anchor x="449.42105263157896" y="0.0" name="bottom"/>
  <anchor x="449.42105263157896" y="498.2105263157895" name="top"/>
  <outline>
    <contour>
      <point x="64.8421052631579" y="0.0" type="curve"/>
      <point x="217.21052631578948" y="0.0" type="line"/>
      <point x="209.47368421052633" y="71.84210526315789"/>
      <point x="206.31578947368422" y="134.21052631578948"/>
      <point x="206.31578947368422" y="209.94736842105263" type="curve"/>
      <point x="206.31578947368422" y="317.05263157894734" type="line"/>
      <point x="235.78947368421052" y="357.4736842105263"/>
      <point x="282.4736842105263" y="390.9473684210526"/>
      <point x="313.6842105263158" y="390.9473684210526" type="curve" smooth="yes"/>
      <point x="366.42105263157896" y="390.9473684210526"/>
      <point x="383.89473684210526" y="354.10526315789474"/>
      <point x="383.89473684210526" y="279.6842105263158" type="curve"/>
      <point x="383.89473684210526" y="209.94736842105263" type="line"/>
      <point x="383.89473684210526" y="134.21052631578948"/>
      <point x="380.7368421052632" y="71.84210526315789"/>
      <point x="375.05263157894734" y="0.0" type="curve"/>
      <point x="526.3684210526316" y="0.0" type="line"/>
      <point x="517.0526315789474" y="71.84210526315789"/>
      <point x="514.9473684210526" y="134.21052631578948"/>
      <point x="514.9473684210526" y="216.78947368421052" type="curve"/>
      <point x="514.9473684210526" y="249.6315789473684"/>
      <point x="518.0526315789474" y="291.4210526315789"/>
      <point x="518.0526315789474" y="333.89473684210526" type="curve" smooth="yes"/>
      <point x="518.0526315789474" y="356.57894736842104"/>
      <point x="516.0" y="377.7368421052631"/>
      <point x="511.94736842105266" y="395.84210526315786" type="curve"/>
      <point x="502.0" y="397.7368421052631" type="line"/>
      <point x="486.3157894736842" y="473.57894736842104"/>
      <point x="440.7368421052632" y="511.36842105263156"/>
      <point x="367.7894736842105" y="511.36842105263156" type="curve" smooth="yes"/>
      <point x="305.36842105263156" y="511.36842105263156"/>
      <point x="243.05263157894737" y="464.6315789473684"/>
      <point x="203.3684210526316" y="416.31578947368416" type="curve"/>
      <point x="191.57894736842104" y="416.31578947368416" type="line"/>
      <point x="182.05263157894737" y="504.89473684210526" type="line"/>
      <point x="53.10526315789474" y="498.2105263157895" type="line"/>
      <point x="70.10526315789474" y="419.4736842105263"/>
      <point x="75.26315789473685" y="342.0"/>
      <point x="75.26315789473685" y="266.7894736842105" type="curve"/>
      <point x="75.26315789473685" y="216.78947368421052" type="line"/>
      <point x="75.26315789473685" y="134.21052631578948"/>
      <point x="71.57894736842105" y="71.84210526315789"/>
    </contour>
    <contour>
      <point x="681.3157894736843" y="0.0" type="curve"/>
      <point x="832.6315789473683" y="0.0" type="line"/>
      <point x="823.3157894736842" y="71.84210526315789"/>
      <point x="821.2105263157894" y="134.21052631578948"/>
      <point x="821.2105263157894" y="216.78947368421052" type="curve"/>
      <point x="821.2105263157894" y="249.6315789473684"/>
      <point x="824.3157894736842" y="290.36842105263156"/>
      <point x="824.3157894736842" y="333.89473684210526" type="curve" smooth="yes"/>
      <point x="824.3157894736842" y="451.05263157894734"/>
      <point x="772.3157894736843" y="511.36842105263156"/>
      <point x="674.0526315789473" y="511.36842105263156" type="curve" smooth="yes"/>
      <point x="611.6315789473683" y="511.36842105263156"/>
      <point x="548.6842105263157" y="465.57894736842104"/>
      <point x="506.6315789473684" y="414.89473684210526" type="curve"/>
      <point x="493.2631578947368" y="414.89473684210526" type="line"/>
      <point x="512.0526315789473" y="317.05263157894734" type="line"/>
      <point x="541.5263157894738" y="357.47368421052636"/>
      <point x="588.7368421052631" y="390.9473684210526"/>
      <point x="619.9473684210526" y="390.9473684210526" type="curve" smooth="yes"/>
      <point x="672.2105263157895" y="390.9473684210526"/>
      <point x="690.1578947368421" y="354.10526315789474"/>
      <point x="690.1578947368421" y="279.6842105263158" type="curve"/>
      <point x="690.1578947368421" y="209.94736842105263" type="line"/>
      <point x="690.1578947368421" y="134.21052631578948"/>
      <point x="687.0" y="71.84210526315789"/>
    </contour>
  </outline>
</glyph>
<glyph name="n" format="2">
  <advance width="588.7368421052632"/>
  <unicode hex="006E"/>
  <anchor x="296.63157894736844" y="0.0" name="bottom"/>
  <anchor x="296.63157894736844" y="498.2105263157895" name="top"/>
  <outline>
    <contour>
      <point x="64.8421052631579" y="0.0" type="curve"/>
      <point x="217.21052631578948" y="0.0" type="line"/>
      <point x="209.47368421052633" y="71.84210526315789"/>
      <point x="206.31578947368422" y="134.21052631578948"/>
      <point x="206.31578947368422" y="209.94736842105263" type="curve"/>
      <point x="206.31578947368422" y="317.05263157894734" type="line"/>
      <point x="235.78947368421055" y="357.47368421052636"/>
      <point x="287.6842105263158" y="390.9473684210526"/>
      <point x="319.42105263157896" y="390.9473684210526" type="curve" smooth="yes"/>
      <point x="376.10526315789474" y="390.9473684210526"/>
      <point x="394.5263157894737" y="354.10526315789474"/>
      <point x="394.5263157894737" y="279.6842105263158" type="curve"/>
      <point x="394.5263157894737" y="209.94736842105263" type="line"/>
      <point x="394.5263157894737" y="134.21052631578948"/>
      <point x="391.3684210526316" y="71.84210526315789"/>
      <point x="385.6842105263158" y="0.0" type="curve"/>
      <point x="537.0" y="0.0" type="line"/>
      <point x="527.6842105263158" y="71.84210526315789"/>
      <point x="525.578947368421" y="134.21052631578948"/>
      <point x="525.578947368421" y="216.78947368421052" type="curve"/>
      <point x="525.578947368421" y="249.6315789473684"/>
      <point x="528.6842105263158" y="290.36842105263156"/>
      <point x="528.6842105263158" y="333.89473684210526" type="curve" smooth="yes"/>
      <point x="528.6842105263158" y="451.05263157894734"/>
      <point x="476.6842105263158" y="511.36842105263156"/>
      <point x="373.57894736842104" y="511.36842105263156" type="curve" smooth="yes"/>
      <point x="310.10526315789474" y="511.36842105263156"/>
      <point x="243.05263157894737" y="464.6315789473684"/>
      <point x="203.3684210526316" y="416.3157894736842" type="curve"/>
      <point x="191.57894736842104" y="416.3157894736842" type="line"/>
      <point x="182.05263157894737" y="504.89473684210526" type="line"/>
      <point x="53.10526315789474" y="498.2105263157895" type="line"/>
      <point x="70.10526315789474" y="419.4736842105263"/>
      <point x="75.26315789473685" y="342.0"/>
      <point x="75.26315789473685" y="266.7894736842105" type="curve"/>
      <point x="75.26315789473685" y="216.78947368421052" type="line"/>
      <point x="75.26315789473685" y="134.21052631578948"/>
      <point x="71.57894736842105" y="71.84210526315789"/>
    </contour>
  </outline>
</glyph>
<glyph name="o" format="2">
  <advance width="597.5263157894736"/>
  <unicode hex="006F"/>
  <anchor x="298.5263157894737" y="0.0" name="bottom"/>
  <anchor x="298.5263157894737" y="249.10526315789474" name="center"/>
  <anchor x="385.10526315789474" y="0.0" name="ogonek"/>
  <anchor x="298.5263157894737" y="498.2105263157895" name="top"/>
  <anchor x="527.4736842105264" y="498.2105263157895" name="topright"/>
  <outline>
    <contour>
      <point x="301.05263157894734" y="-12.68421052631579" type="curve" smooth="yes"/>
      <point x="463.6842105263158" y="-12.68421052631579"/>
      <point x="558.6842105263158" y="101.26315789473685"/>
      <point x="558.6842105263158" y="251.0" type="curve" smooth="yes"/>
      <point x="558.6842105263158" y="397.63157894736844"/>
      <point x="469.7894736842105" y="511.36842105263156"/>
      <point x="298.42105263157896" y="511.36842105263156" type="curve" smooth="yes"/>
      <point x="131.57894736842104" y="511.36842105263156"/>
      <point x="38.8421052631579" y="400.05263157894734"/>
      <point x="38.8421052631579" y="251.0" type="curve" smooth="yes"/>
      <point x="38.8421052631579" y="111.94736842105263"/>
      <point x="123.6842105263158" y="-12.68421052631579"/>
    </contour>
    <contour>
      <point x="300.5263157894737" y="95.63157894736841" type="curve"/>
      <point x="215.36842105263156" y="99.1578947368421"/>
      <point x="172.4736842105263" y="169.26315789473685"/>
      <point x="172.4736842105263" y="251.0" type="curve" smooth="yes"/>
      <point x="172.4736842105263" y="336.63157894736844"/>
      <point x="216.21052631578948" y="399.00000000000006"/>
      <point x="300.5263157894737" y="403.0526315789474" type="curve"/>
      <point x="380.57894736842104" y="397.42105263157896"/>
      <point x="425.0526315789474" y="340.4210526315789"/>
      <point x="425.0526315789474" y="251.0" type="curve" smooth="yes"/>
      <point x="425.0526315789474" y="167.6842105263158"/>
      <point x="384.6842105263158" y="99.1578947368421"/>
    </contour>
  </outline>
</glyph>
<glyph name="p" format="2">
  <advance width="599.1578947368421"/>
  <unicode hex="0070"/>
  <outline>
    <contour>
      <point x="64.36842105263159" y="-196.10526315789474" type="curve"/>
      <point x="219.8421052631579" y="-192.0" type="line"/>
      <point x="210.0" y="-120.15789473684211"/>
      <point x="206.31578947368422" y="-57.78947368421053"/>
      <point x="206.31578947368422" y="17.94736842105263" type="curve"/>
      <point x="206.31578947368422" y="57.315789473684205" type="line"/>
      <point x="216.0" y="57.315789473684205" type="line"/>
      <point x="257.6315789473684" y="10.05263157894737"/>
      <point x="308.1578947368421" y="-12.68421052631579"/>
      <point x="355.63157894736844" y="-12.68421052631579" type="curve" smooth="yes"/>
      <point x="493.7368421052632" y="-12.68421052631579"/>
      <point x="559.2631578947368" y="111.05263157894737"/>
      <point x="559.2631578947368" y="250.05263157894737" type="curve" smooth="yes"/>
      <point x="559.2631578947368" y="398.10526315789474"/>
      <point x="487.36842105263156" y="511.36842105263156"/>
      <point x="354.1578947368421" y="511.36842105263156" type="curve" smooth="yes"/>
      <point x="294.2631578947368" y="511.36842105263156"/>
      <point x="243.05263157894734" y="479.6842105263158"/>
      <point x="205.10526315789474" y="435.7368421052632" type="curve"/>
      <point x="193.8421052631579" y="435.7368421052632" type="line"/>
      <point x="186.78947368421052" y="504.89473684210526" type="line"/>
      <point x="53.10526315789474" y="498.2105263157895" type="line"/>
      <point x="70.10526315789474" y="419.4736842105263"/>
      <point x="75.26315789473685" y="342.0"/>
      <point x="75.26315789473685" y="266.7894736842105" type="curve"/>
      <point x="75.26315789473685" y="24.789473684210527" type="line"/>
      <point x="75.26315789473685" y="-57.78947368421053"/>
      <point x="71.57894736842105" y="-124.26315789473684"/>
    </contour>
    <contour>
      <point x="307.7368421052632" y="99.84210526315789" type="curve"/>
      <point x="266.9473684210526" y="101.42105263157895"/>
      <point x="232.73684210526315" y="123.26315789473684"/>
      <point x="206.31578947368422" y="162.42105263157896" type="curve"/>
      <point x="206.31578947368422" y="346.10526315789474" type="line"/>
      <point x="234.26315789473682" y="379.3157894736842"/>
      <point x="272.36842105263156" y="396.2631578947369"/>
      <point x="306.7894736842105" y="397.2631578947369" type="curve"/>
      <point x="386.7368421052632" y="394.2631578947369"/>
      <point x="425.10526315789474" y="329.89473684210526"/>
      <point x="425.10526315789474" y="249.0" type="curve" smooth="yes"/>
      <point x="425.10526315789474" y="172.05263157894737"/>
      <point x="388.57894736842104" y="102.84210526315789"/>
    </contour>
  </outline>
</glyph>
<glyph name="q" format="2">
  <advance width="587.6315789473684"/>
  <unicode hex="0071"/>
  <outline>
    <contour>
      <point x="381.94736842105266" y="-196.10526315789474" type="curve"/>
      <point x="534.7894736842105" y="-192.0" type="line"/>
      <point x="527.0526315789473" y="-120.15789473684211"/>
      <point x="523.8947368421052" y="-57.78947368421053"/>
      <point x="523.8947368421052" y="24.789473684210527" type="curve"/>
      <point x="523.8947368421052" y="266.7894736842105" type="line"/>
      <point x="523.8947368421052" y="344.05263157894734"/>
      <point x="529.0526315789473" y="424.10526315789474"/>
      <point x="540.7894736842105" y="504.89473684210526" type="curve"/>
      <point x="412.3684210526316" y="498.2105263157895" type="line"/>
      <point x="405.3157894736842" y="435.7368421052632" type="line"/>
      <point x="394.0526315789474" y="435.7368421052632" type="line"/>
      <point x="356.10526315789474" y="479.6842105263158"/>
      <point x="304.89473684210526" y="511.36842105263156"/>
      <point x="245.0" y="511.36842105263156" type="curve" smooth="yes"/>
      <point x="111.78947368421052" y="511.36842105263156"/>
      <point x="39.89473684210526" y="398.10526315789474"/>
      <point x="39.89473684210526" y="250.05263157894737" type="curve" smooth="yes"/>
      <point x="39.89473684210526" y="111.05263157894737"/>
      <point x="105.42105263157895" y="-12.68421052631579"/>
      <point x="243.5263157894737" y="-12.68421052631579" type="curve" smooth="yes"/>
      <point x="291.0" y="-12.68421052631579"/>
      <point x="341.5263157894737" y="10.05263157894737"/>
      <point x="383.15789473684214" y="57.31578947368421" type="curve"/>
      <point x="392.8421052631579" y="57.31578947368421" type="line"/>
      <point x="392.8421052631579" y="17.94736842105263" type="line"/>
      <point x="392.8421052631579" y="-57.78947368421053"/>
      <point x="389.15789473684214" y="-124.26315789473684"/>
    </contour>
    <contour>
      <point x="291.42105263157896" y="99.84210526315789" type="curve"/>
      <point x="210.57894736842104" y="102.84210526315789"/>
      <point x="174.05263157894737" y="172.05263157894737"/>
      <point x="174.05263157894737" y="249.0" type="curve" smooth="yes"/>
      <point x="174.05263157894737" y="329.89473684210526"/>
      <point x="212.42105263157896" y="394.2631578947369"/>
      <point x="292.36842105263156" y="397.2631578947369" type="curve"/>
      <point x="326.7894736842105" y="396.2631578947369"/>
      <point x="364.89473684210526" y="379.3157894736842"/>
      <point x="392.8421052631579" y="346.10526315789474" type="curve"/>
      <point x="392.8421052631579" y="162.42105263157896" type="line"/>
      <point x="366.4210526315789" y="123.26315789473684"/>
      <point x="332.2105263157895" y="101.42105263157895"/>
    </contour>
  </outline>
</glyph>
<glyph name="r" format="2">
  <advance width="417.1578947368421"/>
  <unicode hex="0072"/>
  <anchor x="133.68421052631578" y="0.0" name="bottom"/>
  <anchor x="234.6315789473684" y="498.2105263157895" name="top"/>
  <outline>
    <contour>
      <point x="64.8421052631579" y="0.0" type="curve"/>
      <point x="217.21052631578948" y="0.0" type="line"/>
      <point x="209.47368421052633" y="71.84210526315789"/>
      <point x="206.31578947368422" y="134.21052631578948"/>
      <point x="206.31578947368422" y="209.94736842105263" type="curve"/>
      <point x="206.31578947368422" y="291.6315789473684" type="line"/>
      <point x="240.52631578947367" y="364.8421052631579"/>
      <point x="288.5263157894737" y="378.8421052631579"/>
      <point x="320.2105263157895" y="378.8421052631579" type="curve" smooth="yes"/>
      <point x="337.2105263157895" y="378.8421052631579"/>
      <point x="363.52631578947364" y="371.7368421052631"/>
      <point x="386.2631578947368" y="364.2105263157895" type="curve"/>
      <point x="397.6842105263158" y="502.3157894736842" type="line"/>
      <point x="380.6842105263158" y="509.42105263157896"/>
      <point x="360.57894736842104" y="511.36842105263156"/>
      <point x="344.8421052631579" y="511.36842105263156" type="curve" smooth="yes"/>
      <point x="301.8421052631579" y="511.36842105263156"/>
      <point x="248.1578947368421" y="487.10526315789474"/>
      <point x="201.94736842105263" y="409.6842105263158" type="curve"/>
      <point x="190.6315789473684" y="409.6842105263158" type="line"/>
      <point x="182.05263157894737" y="504.89473684210526" type="line"/>
      <point x="53.10526315789474" y="498.2105263157895" type="line"/>
      <point x="70.10526315789474" y="419.4736842105263"/>
      <point x="75.26315789473685" y="342.0"/>
      <point x="75.26315789473685" y="266.7894736842105" type="curve"/>
      <point x="75.26315789473685" y="216.78947368421052" type="line"/>
      <point x="75.26315789473685" y="134.21052631578948"/>
      <point x="71.57894736842105" y="71.84210526315789"/>
    </contour>
  </outline>
</glyph>
<glyph name="s" format="2">
  <advance width="463.1456310679612"/>
  <unicode hex="0073"/>
  <anchor x="233.38834951456312" y="0.0" name="bottom"/>
  <anchor x="233.38834951456312" y="498.504854368932" name="top"/>
  <outline>
    <contour>
      <point x="227.747572815534" y="-12.504854368932039" type="curve" smooth="yes"/>
      <point x="369.6601941747573" y="-12.504854368932039"/>
      <point x="429.1747572815534" y="52.74757281553398"/>
      <point x="429.1747572815534" y="148.50485436893203" type="curve" smooth="yes"/>
      <point x="429.1747572815534" y="237.98058252427182"/>
      <point x="377.4466019417476" y="263.49514563106794"/>
      <point x="272.4271844660194" y="292.621359223301" type="curve" smooth="yes"/>
      <point x="197.59223300970874" y="313.2330097087379"/>
      <point x="182.3495145631068" y="327.7281553398058"/>
      <point x="182.3495145631068" y="356.0873786407767" type="curve" smooth="yes"/>
      <point x="182.3495145631068" y="390.93203883495147"/>
      <point x="217.81553398058253" y="402.1747572815534"/>
      <point x="249.91262135922327" y="404.1747572815534" type="curve"/>
      <point x="274.9126213592233" y="404.1747572815534"/>
      <point x="329.41747572815535" y="390.92233009708735"/>
      <point x="390.66990291262135" y="361.0485436893204" type="curve"/>
      <point x="399.3009708737864" y="479.7669902912622" type="line"/>
      <point x="359.79611650485435" y="491.1359223300971"/>
      <point x="283.1456310679612" y="510.88349514563106"/>
      <point x="224.63106796116506" y="510.88349514563106" type="curve" smooth="yes"/>
      <point x="117.2233009708738" y="510.88349514563106"/>
      <point x="47.84466019417476" y="453.126213592233"/>
      <point x="47.84466019417476" y="353.49514563106794" type="curve" smooth="yes"/>
      <point x="47.84466019417476" y="264.5145631067961"/>
      <point x="98.57281553398059" y="229.747572815534"/>
      <point x="184.71844660194174" y="207.36893203883497" type="curve" smooth="yes"/>
      <point x="268.1844660194175" y="185.50485436893203"/>
      <point x="295.9223300970874" y="175.2621359223301"/>
      <point x="295.9223300970874" y="144.90291262135923" type="curve" smooth="yes"/>
      <point x="295.9223300970874" y="100.94174757281553"/>
      <point x="260.0776699029126" y="94.94174757281553"/>
      <point x="218.73786407766988" y="92.94174757281553" type="curve"/>
      <point x="172.9902912621359" y="92.94174757281553"/>
      <point x="109.60194174757282" y="112.44660194174757"/>
      <point x="54.85436893203883" y="139.44660194174756" type="curve"/>
      <point x="46.349514563106794" y="19.737864077669904" type="line"/>
      <point x="87.47572815533981" y="9.116504854368932"/>
      <point x="147.98058252427185" y="-12.504854368932039"/>
    </contour>
  </outline>
</glyph>
<glyph name="u" format="2">
  <advance width="573.2105263157895"/>
  <unicode hex="0075"/>
  <anchor x="285.0" y="0.0" name="bottom"/>
  <anchor x="515.1578947368421" y="0.0" name="ogonek"/>
  <anchor x="285.0" y="498.2105263157895" name="top"/>
  <anchor x="548.0" y="498.2105263157895" name="topright"/>
  <outline>
    <contour>
      <point x="211.47368421052633" y="-12.68421052631579" type="curve" smooth="yes"/>
      <point x="269.94736842105266" y="-12.68421052631579"/>
      <point x="337.0" y="34.05263157894737"/>
      <point x="376.6842105263158" y="82.36842105263158" type="curve"/>
      <point x="388.47368421052636" y="82.36842105263158" type="line"/>
      <point x="395.15789473684214" y="0.0" type="line"/>
      <point x="518.3157894736842" y="0.0" type="line"/>
      <point x="510.57894736842104" y="71.84210526315789"/>
      <point x="507.4210526315789" y="134.21052631578948"/>
      <point x="507.4210526315789" y="216.78947368421052" type="curve"/>
      <point x="507.4210526315789" y="272.05263157894734" type="line"/>
      <point x="507.4210526315789" y="363.05263157894734"/>
      <point x="511.6315789473684" y="426.36842105263156"/>
      <point x="519.3684210526316" y="498.2105263157895" type="curve"/>
      <point x="366.5263157894737" y="498.2105263157895" type="line"/>
      <point x="372.6842105263158" y="426.36842105263156"/>
      <point x="376.36842105263156" y="363.05263157894734"/>
      <point x="376.36842105263156" y="287.8421052631579" type="curve"/>
      <point x="376.36842105263156" y="178.99999999999997" type="line"/>
      <point x="346.89473684210526" y="138.57894736842107"/>
      <point x="295.0" y="105.10526315789473"/>
      <point x="265.6315789473684" y="105.10526315789473" type="curve" smooth="yes"/>
      <point x="208.94736842105263" y="105.10526315789473"/>
      <point x="190.52631578947367" y="141.9473684210526"/>
      <point x="190.52631578947367" y="216.3684210526316" type="curve"/>
      <point x="190.52631578947367" y="287.8421052631579" type="line"/>
      <point x="190.52631578947367" y="363.05263157894734"/>
      <point x="193.68421052631578" y="430.4736842105263"/>
      <point x="200.36842105263156" y="502.3157894736842" type="curve"/>
      <point x="47.526315789473685" y="498.2105263157895" type="line"/>
      <point x="54.73684210526316" y="426.36842105263156"/>
      <point x="59.473684210526315" y="363.0526315789474"/>
      <point x="59.473684210526315" y="272.05263157894734" type="curve"/>
      <point x="59.473684210526315" y="237.78947368421052"/>
      <point x="57.421052631578945" y="208.31578947368422"/>
      <point x="57.421052631578945" y="164.78947368421052" type="curve" smooth="yes"/>
      <point x="57.421052631578945" y="47.631578947368425"/>
      <point x="108.36842105263158" y="-12.68421052631579"/>
    </contour>
  </outline>
</glyph>
<glyph name="v" format="2">
  <advance width="541.7894736842105"/>
  <unicode hex="0076"/>
  <outline>
    <contour>
      <point x="193.42105263157893" y="0.0" type="curve"/>
      <point x="347.9473684210526" y="0.0" type="line"/>
      <point x="365.1578947368421" y="62.526315789473685"/>
      <point x="386.57894736842104" y="124.57894736842105"/>
      <point x="408.99999999999994" y="187.10526315789474" type="curve"/>
      <point x="440.89473684210526" y="276.1578947368421" type="line"/>
      <point x="467.31578947368416" y="349.6842105263158"/>
      <point x="494.7368421052631" y="424.6842105263158"/>
      <point x="528.7894736842105" y="498.2105263157895" type="curve"/>
      <point x="375.57894736842104" y="498.2105263157895" type="line"/>
      <point x="359.94736842105266" y="428.36842105263156"/>
      <point x="339.6842105263158" y="356.3157894736842"/>
      <point x="317.9473684210526" y="281.8421052631579" type="curve"/>
      <point x="277.36842105263156" y="141.8421052631579" type="line"/>
      <point x="266.1052631578947" y="141.8421052631579" type="line"/>
      <point x="225.52631578947367" y="281.8421052631579" type="line"/>
      <point x="203.78947368421052" y="356.3157894736842"/>
      <point x="184.05263157894737" y="428.36842105263156"/>
      <point x="167.89473684210526" y="502.3157894736842" type="curve"/>
      <point x="13.0" y="498.2105263157895" type="line"/>
      <point x="45.684210526315795" y="425.1578947368421"/>
      <point x="73.57894736842105" y="350.1578947368421"/>
      <point x="100.0" y="277.10526315789474" type="curve"/>
      <point x="131.89473684210526" y="188.57894736842104" type="line"/>
      <point x="153.8421052631579" y="127.0"/>
      <point x="175.6842105263158" y="62.526315789473685"/>
    </contour>
  </outline>
</glyph>
<glyph name="w" format="2">
  <advance width="827.1052631578948"/>
  <unicode hex="0077"/>
  <anchor x="413.4736842105263" y="0.0" name="bottom"/>
  <anchor x="413.4736842105263" y="498.2105263157895" name="top"/>
  <outline>
    <contour>
      <point x="171.94736842105263" y="0.0" type="curve"/>
      <point x="324.89473684210526" y="0.0" type="line"/>
      <point x="337.6842105263158" y="64.73684210526315"/>
      <point x="354.9473684210526" y="135.3684210526316"/>
      <point x="371.36842105263156" y="198.1578947368421" type="curve"/>
      <point x="403.7368421052632" y="321.2631578947369" type="line"/>
      <point x="413.9473684210526" y="321.2631578947369" type="line"/>
      <point x="446.8421052631579" y="199.63157894736844" type="line"/>
      <point x="464.2631578947368" y="136.8421052631579"/>
      <point x="483.57894736842104" y="64.73684210526315"/>
      <point x="497.3684210526316" y="0.0" type="curve"/>
      <point x="656.578947368421" y="0.0" type="line"/>
      <point x="671.3684210526316" y="61.0"/>
      <point x="689.7368421052631" y="126.05263157894737"/>
      <point x="710.2105263157895" y="190.57894736842104" type="curve"/>
      <point x="738.1578947368421" y="278.10526315789474" type="line"/>
      <point x="761.6315789473684" y="351.1578947368421"/>
      <point x="785.578947368421" y="424.1578947368421"/>
      <point x="816.2105263157895" y="498.2105263157895" type="curve"/>
      <point x="660.3157894736843" y="498.2105263157895" type="line"/>
      <point x="648.0000000000001" y="433.05263157894734"/>
      <point x="630.3157894736842" y="350.6842105263158"/>
      <point x="612.421052631579" y="278.63157894736844" type="curve"/>
      <point x="577.1052631578947" y="136.5263157894737" type="line"/>
      <point x="566.8421052631579" y="136.5263157894737" type="line"/>
      <point x="531.5263157894736" y="277.10526315789474" type="line"/>
      <point x="513.6315789473684" y="350.1578947368421"/>
      <point x="495.31578947368416" y="427.1578947368421"/>
      <point x="481.0" y="498.2105263157895" type="curve"/>
      <point x="348.7894736842105" y="498.2105263157895" type="line"/>
      <point x="334.0" y="423.7368421052632"/>
      <point x="316.63157894736844" y="349.7368421052632"/>
      <point x="298.7368421052632" y="276.1578947368421" type="curve"/>
      <point x="264.36842105263156" y="136.5263157894737" type="line"/>
      <point x="254.10526315789474" y="136.5263157894737" type="line"/>
      <point x="218.73684210526315" y="273.7894736842105" type="line"/>
      <point x="199.8421052631579" y="346.8421052631579"/>
      <point x="180.57894736842107" y="429.7368421052632"/>
      <point x="166.3157894736842" y="502.3157894736842" type="curve"/>
      <point x="10.894736842105262" y="498.2105263157895" type="line"/>
      <point x="42.05263157894737" y="423.6842105263158"/>
      <point x="66.05263157894737" y="352.1578947368421"/>
      <point x="89.47368421052632" y="278.10526315789474" type="curve"/>
      <point x="117.36842105263158" y="189.57894736842104" type="line"/>
      <point x="137.78947368421052" y="125.57894736842105"/>
      <point x="156.68421052631578" y="62.526315789473685"/>
    </contour>
  </outline>
</glyph>
<glyph name="x" format="2">
  <advance width="564.2105263157895"/>
  <unicode hex="0078"/>
  <outline>
    <contour>
      <point x="16.578947368421055" y="0.0" type="curve"/>
      <point x="176.89473684210526" y="0.0" type="line"/>
      <point x="194.05263157894737" y="40.578947368421055"/>
      <point x="208.42105263157893" y="69.21052631578948"/>
      <point x="229.10526315789474" y="109.26315789473685" type="curve"/>
      <point x="269.63157894736844" y="184.89473684210526" type="line"/>
      <point x="278.8421052631579" y="184.89473684210526" type="line"/>
      <point x="324.2631578947368" y="105.26315789473685" type="line"/>
      <point x="345.9473684210526" y="67.26315789473685"/>
      <point x="361.3157894736842" y="37.578947368421055"/>
      <point x="379.47368421052636" y="0.0" type="curve"/>
      <point x="550.2631578947368" y="0.0" type="line"/>
      <point x="498.3157894736842" y="66.15789473684211"/>
      <point x="469.4736842105263" y="106.73684210526315"/>
      <point x="436.6842105263158" y="154.8421052631579" type="curve"/>
      <point x="357.1578947368421" y="272.63157894736844" type="line"/>
      <point x="363.9473684210526" y="243.3684210526316" type="line"/>
      <point x="435.0526315789474" y="351.0" type="line"/>
      <point x="468.36842105263156" y="401.57894736842104"/>
      <point x="489.2631578947368" y="432.63157894736844"/>
      <point x="538.1052631578948" y="498.2105263157895" type="curve"/>
      <point x="376.7894736842105" y="498.2105263157895" type="line"/>
      <point x="359.63157894736844" y="457.10526315789474"/>
      <point x="344.2105263157895" y="427.42105263157896"/>
      <point x="323.89473684210526" y="388.7368421052632" type="curve"/>
      <point x="284.2105263157895" y="316.5263157894737" type="line"/>
      <point x="274.42105263157896" y="316.5263157894737" type="line"/>
      <point x="233.68421052631578" y="389.3157894736842" type="line"/>
      <point x="212.8421052631579" y="427.4736842105263"/>
      <point x="195.8421052631579" y="460.3157894736842"/>
      <point x="177.26315789473685" y="502.3157894736842" type="curve"/>
      <point x="15.842105263157896" y="498.2105263157895" type="line"/>
      <point x="63.15789473684211" y="435.6842105263158"/>
      <point x="88.05263157894737" y="398.57894736842104"/>
      <point x="120.26315789473685" y="348.57894736842104" type="curve"/>
      <point x="188.73684210526315" y="241.47368421052633" type="line"/>
      <point x="188.26315789473685" y="271.6842105263158" type="line"/>
      <point x="119.42105263157895" y="156.89473684210526" type="line"/>
      <point x="88.21052631578948" y="105.26315789473684"/>
      <point x="64.89473684210526" y="68.6842105263158"/>
    </contour>
  </outline>
</glyph>
<glyph name="y" format="2">
  <advance width="543.6842105263157"/>
  <unicode hex="0079"/>
  <anchor x="425.7894736842105" y="0.0" name="bottom"/>
  <anchor x="273.1578947368421" y="498.2105263157895" name="top"/>
  <outline>
    <contour>
      <point x="108.94736842105263" y="-196.10526315789474" type="curve"/>
      <point x="265.3157894736842" y="-192.0" type="line"/>
      <point x="287.0" y="-120.0"/>
      <point x="318.4736842105263" y="-36.89473684210526"/>
      <point x="367.89473684210526" y="90.10526315789474" type="curve"/>
      <point x="422.3157894736842" y="230.1578947368421" type="line"/>
      <point x="470.7368421052631" y="355.6842105263158"/>
      <point x="495.2105263157895" y="417.2105263157895"/>
      <point x="530.6842105263157" y="498.2105263157895" type="curve"/>
      <point x="378.52631578947364" y="498.2105263157895" type="line"/>
      <point x="362.42105263157896" y="424.6842105263158"/>
      <point x="341.6842105263158" y="353.6842105263158"/>
      <point x="318.94736842105266" y="279.2105263157895" type="curve"/>
      <point x="275.42105263157896" y="137.6315789473684" type="line"/>
      <point x="264.1578947368421" y="137.6315789473684" type="line"/>
      <point x="224.5263157894737" y="279.2631578947368" type="line"/>
      <point x="203.26315789473682" y="355.2631578947368"/>
      <point x="183.94736842105263" y="426.3157894736842"/>
      <point x="167.36842105263156" y="502.3157894736842" type="curve"/>
      <point x="13.0" y="498.2105263157895" type="line"/>
      <point x="44.578947368421055" y="427.2105263157895"/>
      <point x="72.52631578947368" y="351.2105263157895"/>
      <point x="98.47368421052632" y="279.1578947368421" type="curve"/>
      <point x="130.36842105263156" y="189.1578947368421" type="line"/>
      <point x="154.31578947368422" y="122.63157894736842"/>
      <point x="179.73684210526315" y="51.63157894736842"/>
      <point x="198.42105263157896" y="-16.894736842105264" type="curve"/>
      <point x="204.1578947368421" y="9.157894736842104" type="line"/>
      <point x="178.10526315789474" y="-58.05263157894737"/>
      <point x="146.94736842105266" y="-128.89473684210526"/>
    </contour>
  </outline>
</glyph>
<glyph name="z" format="2">
  <advance width="510.42105263157896"/>
  <unicode hex="007A"/>
  <anchor x="253.73684210526315" y="0.0" name="bottom"/>
  <anchor x="253.73684210526315" y="249.10526315789474" name="center"/>
  <anchor x="253.73684210526315" y="498.2105263157895" name="top"/>
  <outline>
    <contour>
      <point x="33.473684210526315" y="0.0" type="line"/>
      <point x="478.8421052631579" y="0.0" type="line"/>
      <point x="478.8421052631579" y="112.05263157894737" type="line"/>
      <point x="418.0" y="102.15789473684211"/>
      <point x="335.89473684210526" y="97.47368421052632"/>
      <point x="286.42105263157896" y="97.47368421052632" type="curve"/>
      <point x="177.10526315789474" y="97.47368421052632" type="line"/>
      <point x="191.05263157894734" y="68.47368421052632" type="line"/>
      <point x="327.89473684210526" y="247.10526315789474" type="line"/>
      <point x="370.3157894736842" y="302.3157894736842"/>
      <point x="426.15789473684214" y="368.6842105263158"/>
      <point x="463.9473684210526" y="409.52631578947364" type="curve"/>
      <point x="463.9473684210526" y="498.2105263157895" type="line"/>
      <point x="37.1578947368421" y="498.2105263157895" type="line"/>
      <point x="37.1578947368421" y="383.5263157894737" type="line"/>
      <point x="103.47368421052632" y="395.4736842105263"/>
      <point x="187.63157894736844" y="400.2105263157895"/>
      <point x="236.63157894736844" y="400.2105263157895" type="curve"/>
      <point x="336.63157894736844" y="400.2105263157895" type="line"/>
      <point x="319.10526315789474" y="437.6842105263158" type="line"/>
      <point x="177.4736842105263" y="251.6315789473684" type="line"/>
      <point x="137.5263157894737" y="198.8421052631579"/>
      <point x="87.57894736842105" y="138.73684210526318"/>
      <point x="33.473684210526315" y="78.26315789473684" type="curve"/>
    </contour>
  </outline>
</glyph>
<glyph name="bar" format="2">
  <advance width="277.36842105263156"/>
  <unicode hex="007C"/>
  <outline>
    <contour>
      <point x="74.31578947368422" y="-159.26315789473685" type="curve"/>
      <point x="203.05263157894737" y="-159.26315789473685" type="line"/>
      <point x="196.3157894736842" y="-41.26315789473684"/>
      <point x="195.78947368421052" y="61.73684210526316"/>
      <point x="195.78947368421052" y="169.73684210526315" type="curve"/>
      <point x="195.78947368421052" y="451.7368421052632" type="line"/>
      <point x="195.78947368421052" y="559.7368421052631"/>
      <point x="196.3157894736842" y="662.7368421052631"/>
      <point x="203.05263157894737" y="780.7368421052631" type="curve"/>
      <point x="74.31578947368422" y="780.7368421052631" type="line"/>
      <point x="81.05263157894737" y="662.7368421052631"/>
      <point x="81.57894736842105" y="559.7368421052631"/>
      <point x="81.57894736842105" y="451.7368421052632" type="curve"/>
      <point x="81.57894736842105" y="169.73684210526315" type="line"/>
      <point x="81.57894736842105" y="61.73684210526316"/>
      <point x="81.05263157894737" y="-41.26315789473684"/>
    </contour>
  </outline>
</glyph>
<glyph name="sterling" format="2">
  <advance width="602.1578947368421"/>
  <unicode hex="00A3"/>
  <outline>
    <contour>
      <point x="53.94736842105263" y="0.0" type="line"/>
      <point x="569.7894736842105" y="0.0" type="line"/>
      <point x="569.7894736842105" y="131.94736842105263" type="line"/>
      <point x="487.10526315789474" y="120.52631578947368"/>
      <point x="414.89473684210526" y="119.47368421052632"/>
      <point x="290.8421052631579" y="119.47368421052632" type="curve"/>
      <point x="153.89473684210526" y="119.47368421052632" type="line"/>
      <point x="164.1578947368421" y="94.68421052631578" type="line"/>
      <point x="259.4736842105263" y="165.68421052631578"/>
      <point x="266.5263157894737" y="224.78947368421052"/>
      <point x="266.5263157894737" y="277.42105263157896" type="curve" smooth="yes"/>
      <point x="266.5263157894737" y="437.4736842105263" type="line" smooth="yes"/>
      <point x="266.5263157894737" y="537.8947368421053"/>
      <point x="310.8421052631579" y="581.9473684210526"/>
      <point x="394.57894736842104" y="584.5263157894736" type="curve"/>
      <point x="418.4736842105263" y="584.5263157894736"/>
      <point x="468.2105263157895" y="573.0526315789474"/>
      <point x="531.1578947368422" y="545.1052631578947" type="curve"/>
      <point x="544.578947368421" y="665.8947368421053" type="line"/>
      <point x="504.0" y="680.8947368421053"/>
      <point x="442.0" y="701.2631578947369"/>
      <point x="383.57894736842104" y="701.2631578947369" type="curve" smooth="yes"/>
      <point x="213.8421052631579" y="701.2631578947369"/>
      <point x="125.57894736842105" y="612.5263157894736"/>
      <point x="125.57894736842105" y="443.0526315789474" type="curve" smooth="yes"/>
      <point x="125.57894736842105" y="374.1578947368421"/>
      <point x="128.1578947368421" y="306.2631578947368"/>
      <point x="128.1578947368421" y="237.89473684210526" type="curve"/>
      <point x="128.1578947368421" y="195.78947368421052"/>
      <point x="123.6842105263158" y="137.3684210526316"/>
      <point x="53.94736842105263" y="75.94736842105263" type="curve"/>
    </contour>
    <contour>
      <point x="53.89473684210526" y="318.0526315789474" type="line"/>
      <point x="120.84210526315789" y="322.6842105263158"/>
      <point x="184.26315789473685" y="323.2105263157895"/>
      <point x="239.1578947368421" y="323.2105263157895" type="curve"/>
      <point x="276.5263157894737" y="323.2105263157895" type="line"/>
      <point x="331.42105263157896" y="323.2105263157895"/>
      <point x="394.8421052631579" y="322.6842105263158"/>
      <point x="461.7894736842105" y="318.0526315789474" type="curve"/>
      <point x="461.7894736842105" y="420.57894736842104" type="line"/>
      <point x="394.8421052631579" y="415.94736842105266"/>
      <point x="331.42105263157896" y="415.42105263157896"/>
      <point x="276.5263157894737" y="415.42105263157896" type="curve"/>
      <point x="239.1578947368421" y="415.42105263157896" type="line"/>
      <point x="184.26315789473685" y="415.42105263157896"/>
      <point x="120.84210526315789" y="415.94736842105266"/>
      <point x="53.89473684210526" y="420.57894736842104" type="curve"/>
    </contour>
  </outline>
</glyph>
<glyph name="currency" format="2">
  <advance width="644.2105263157895"/>
  <unicode hex="00A4"/>
  <outline>
    <contour>
      <point x="320.63157894736844" y="102.10526315789474" type="curve" smooth="yes"/>
      <point x="453.36842105263156" y="102.10526315789474"/>
      <point x="548.0526315789474" y="180.31578947368422"/>
      <point x="548.0526315789474" y="321.05263157894734" type="curve" smooth="yes"/>
      <point x="548.0526315789474" y="448.7894736842105"/>
      <point x="453.8421052631579" y="538.3684210526316"/>
      <point x="322.63157894736844" y="538.3684210526316" type="curve" smooth="yes"/>
      <point x="189.42105263157896" y="538.3684210526316"/>
      <point x="95.21052631578948" y="450.9473684210526"/>
      <point x="95.21052631578948" y="321.05263157894734" type="curve" smooth="yes"/>
      <point x="95.21052631578948" y="180.8421052631579"/>
      <point x="189.42105263157896" y="102.10526315789474"/>
    </contour>
    <contour>
      <point x="121.10526315789474" y="29.157894736842106" type="line"/>
      <point x="164.8421052631579" y="79.57894736842105"/>
      <point x="209.10526315789474" y="124.89473684210526"/>
      <point x="247.89473684210526" y="163.68421052631578" type="curve"/>
      <point x="165.31578947368422" y="246.26315789473685" type="line"/>
      <point x="126.52631578947368" y="207.4736842105263"/>
      <point x="81.21052631578948" y="163.21052631578945"/>
      <point x="30.789473684210524" y="119.47368421052632" type="curve"/>
    </contour>
    <contour>
      <point x="321.1578947368421" y="209.89473684210526" type="curve"/>
      <point x="259.89473684210526" y="214.0"/>
      <point x="212.4736842105263" y="248.31578947368422"/>
      <point x="212.4736842105263" y="320.5263157894737" type="curve" smooth="yes"/>
      <point x="212.4736842105263" y="386.7368421052632"/>
      <point x="260.3684210526316" y="427.0"/>
      <point x="322.10526315789474" y="431.10526315789474" type="curve"/>
      <point x="383.89473684210526" y="427.0"/>
      <point x="430.7894736842105" y="385.6842105263158"/>
      <point x="430.7894736842105" y="320.5263157894737" type="curve" smooth="yes"/>
      <point x="430.7894736842105" y="248.31578947368422"/>
      <point x="383.36842105263156" y="214.0"/>
    </contour>
    <contour>
      <point x="166.3684210526316" y="395.7368421052632" type="curve"/>
      <point x="246.8421052631579" y="476.2105263157895" type="line"/>
      <point x="208.05263157894737" y="515.0"/>
      <point x="163.78947368421052" y="560.3157894736842"/>
      <point x="120.05263157894737" y="610.7368421052631" type="curve"/>
      <point x="31.842105263157894" y="522.5263157894738" type="line"/>
      <point x="82.26315789473684" y="478.7894736842105"/>
      <point x="127.57894736842105" y="434.5263157894737"/>
    </contour>
    <contour>
      <point x="524.1578947368422" y="30.210526315789476" type="curve"/>
      <point x="612.3684210526316" y="118.42105263157895" type="line"/>
      <point x="561.9473684210526" y="162.15789473684208"/>
      <point x="516.6315789473684" y="206.42105263157896"/>
      <point x="477.8421052631579" y="245.21052631578948" type="curve"/>
      <point x="397.36842105263156" y="164.73684210526315" type="line"/>
      <point x="436.1578947368421" y="125.94736842105263"/>
      <point x="480.42105263157896" y="80.63157894736842"/>
    </contour>
    <contour>
      <point x="478.89473684210526" y="394.6842105263158" type="line"/>
      <point x="517.6842105263158" y="433.4736842105263"/>
      <point x="563.0" y="477.7368421052631"/>
      <point x="613.421052631579" y="521.4736842105264" type="curve"/>
      <point x="523.1052631578948" y="611.7894736842105" type="line"/>
      <point x="479.36842105263156" y="561.3684210526316"/>
      <point x="435.10526315789474" y="516.0526315789474"/>
      <point x="396.3157894736842" y="477.2631578947368" type="curve"/>
    </contour>
  </outline>
</glyph>
<glyph name="yen" format="2">
  <advance width="645.1052631578947"/>
  <unicode hex="00A5"/>
  <outline>
    <contour>
      <point x="257.52631578947364" y="252.21052631578948" type="line"/>
      <point x="389.6842105263158" y="252.21052631578948" type="line"/>
      <point x="530.5263157894738" y="516.421052631579" type="line"/>
      <point x="559.8947368421053" y="571.6842105263158"/>
      <point x="592.7368421052631" y="631.8947368421053"/>
      <point x="633.5263157894736" y="687.1578947368421" type="curve"/>
      <point x="460.47368421052636" y="687.1578947368421" type="line"/>
      <point x="430.0526315789474" y="606.1052631578948"/>
      <point x="411.2105263157894" y="566.6315789473684"/>
      <point x="380.6842105263158" y="502.8421052631579" type="curve"/>
      <point x="329.7894736842105" y="396.5263157894737" type="line"/>
      <point x="317.4736842105263" y="396.5263157894737" type="line"/>
      <point x="268.1052631578947" y="501.8421052631579" type="line"/>
      <point x="237.6315789473684" y="566.0526315789474"/>
      <point x="219.78947368421052" y="605.0526315789474"/>
      <point x="189.89473684210526" y="687.1578947368421" type="curve"/>
      <point x="10.526315789473683" y="687.1578947368421" type="line"/>
      <point x="67.21052631578947" y="602.3157894736842"/>
      <point x="88.73684210526316" y="565.6315789473684"/>
      <point x="115.63157894736842" y="515.8947368421053" type="curve"/>
    </contour>
    <contour>
      <point x="244.52631578947367" y="0.0" type="curve"/>
      <point x="403.6842105263158" y="0.0" type="line"/>
      <point x="393.31578947368416" y="74.3157894736842"/>
      <point x="392.78947368421046" y="138.68421052631578"/>
      <point x="392.78947368421046" y="223.78947368421052" type="curve"/>
      <point x="392.78947368421046" y="364.57894736842104" type="line"/>
      <point x="254.94736842105263" y="364.57894736842104" type="line"/>
      <point x="254.94736842105263" y="223.78947368421052" type="line"/>
      <point x="254.94736842105263" y="138.68421052631578"/>
      <point x="254.42105263157893" y="74.3157894736842"/>
    </contour>
    <contour>
      <point x="74.36842105263158" y="120.73684210526315" type="line"/>
      <point x="141.31578947368422" y="125.36842105263158"/>
      <point x="204.73684210526315" y="125.89473684210526"/>
      <point x="259.6315789473684" y="125.89473684210526" type="curve"/>
      <point x="387.52631578947364" y="125.89473684210526" type="line"/>
      <point x="442.4210526315789" y="125.89473684210526"/>
      <point x="505.84210526315786" y="125.36842105263158"/>
      <point x="572.7894736842105" y="120.73684210526315" type="curve"/>
      <point x="572.7894736842105" y="210.1052631578947" type="line"/>
      <point x="505.84210526315786" y="208.1052631578947"/>
      <point x="442.4210526315789" y="207.57894736842104"/>
      <point x="387.52631578947364" y="207.57894736842104" type="curve"/>
      <point x="259.6315789473684" y="207.57894736842104" type="line"/>
      <point x="204.73684210526315" y="207.57894736842104"/>
      <point x="141.31578947368422" y="208.1052631578947"/>
      <point x="74.36842105263158" y="210.1052631578947" type="curve"/>
    </contour>
    <contour>
      <point x="74.36842105263158" y="279.1578947368421" type="line"/>
      <point x="141.31578947368422" y="281.1578947368421"/>
      <point x="204.73684210526315" y="281.6842105263158"/>
      <point x="259.6315789473684" y="281.6842105263158" type="curve"/>
      <point x="387.52631578947364" y="281.6842105263158" type="line"/>
      <point x="442.4210526315789" y="281.6842105263158"/>
      <point x="505.84210526315786" y="281.1578947368421"/>
      <point x="572.7894736842105" y="279.1578947368421" type="curve"/>
      <point x="572.7894736842105" y="368.52631578947364" type="line"/>
      <point x="505.84210526315786" y="363.89473684210526"/>
      <point x="442.4210526315789" y="363.36842105263156"/>
      <point x="387.52631578947364" y="363.36842105263156" type="curve"/>
      <point x="259.6315789473684" y="363.36842105263156" type="line"/>
      <point x="204.73684210526315" y="363.36842105263156"/>
      <point x="141.31578947368422" y="363.89473684210526"/>
      <point x="74.36842105263158" y="368.52631578947364" type="curve"/>
    </contour>
  </outline>
</glyph>
<glyph name="copyright" format="2">
  <advance width="806.8947368421053"/>
  <unicode hex="00A9"/>
  <outline>
    <contour>
      <point x="406.94736842105266" y="-12.68421052631579" type="curve" smooth="yes"/>
      <point x="635.6315789473684" y="-12.68421052631579"/>
      <point x="765.8421052631579" y="139.3684210526316"/>
      <point x="765.8421052631579" y="344.5263157894737" type="curve" smooth="yes"/>
      <point x="765.8421052631579" y="542.1052631578947"/>
      <point x="642.1578947368421" y="701.2631578947369"/>
      <point x="402.8421052631579" y="701.2631578947369" type="curve" smooth="yes"/>
      <point x="167.0" y="701.2631578947369"/>
      <point x="41.05263157894737" y="544.0526315789474"/>
      <point x="41.05263157894737" y="344.0" type="curve" smooth="yes"/>
      <point x="41.05263157894737" y="153.6315789473684"/>
      <point x="157.6315789473684" y="-12.68421052631579"/>
    </contour>
    <contour>
      <point x="415.5263157894737" y="155.47368421052633" type="curve" smooth="yes"/>
      <point x="456.94736842105266" y="155.47368421052633"/>
      <point x="498.10526315789474" y="167.78947368421052"/>
      <point x="525.6842105263158" y="175.15789473684208" type="curve"/>
      <point x="519.6842105263158" y="261.7368421052631" type="line"/>
      <point x="491.0526315789474" y="245.89473684210526"/>
      <point x="460.7368421052632" y="237.0"/>
      <point x="438.1578947368421" y="237.0" type="curve"/>
      <point x="367.94736842105266" y="238.47368421052633"/>
      <point x="327.4736842105263" y="278.4736842105263"/>
      <point x="327.4736842105263" y="346.05263157894734" type="curve" smooth="yes"/>
      <point x="327.4736842105263" y="412.2105263157895"/>
      <point x="365.94736842105266" y="446.84210526315786"/>
      <point x="418.4736842105263" y="449.36842105263156" type="curve"/>
      <point x="435.3684210526316" y="449.36842105263156"/>
      <point x="472.15789473684214" y="440.3684210526316"/>
      <point x="518.1052631578948" y="418.42105263157896" type="curve"/>
      <point x="525.7894736842105" y="507.10526315789474" type="line"/>
      <point x="496.2105263157895" y="517.578947368421"/>
      <point x="450.7368421052631" y="533.0"/>
      <point x="407.9473684210526" y="533.0" type="curve" smooth="yes"/>
      <point x="290.94736842105266" y="533.0"/>
      <point x="228.05263157894737" y="451.5263157894737"/>
      <point x="228.05263157894737" y="343.42105263157896" type="curve" smooth="yes"/>
      <point x="228.05263157894737" y="235.31578947368422"/>
      <point x="296.2631578947368" y="155.47368421052633"/>
    </contour>
    <contour>
      <point x="406.42105263157896" y="61.94736842105263" type="curve"/>
      <point x="216.31578947368422" y="68.05263157894737"/>
      <point x="119.89473684210526" y="177.78947368421052"/>
      <point x="119.89473684210526" y="344.0" type="curve" smooth="yes"/>
      <point x="119.89473684210526" y="513.1052631578947"/>
      <point x="220.8421052631579" y="620.5263157894738"/>
      <point x="403.36842105263156" y="626.6315789473684" type="curve"/>
      <point x="587.421052631579" y="620.5263157894738"/>
      <point x="687.0" y="513.5263157894736"/>
      <point x="687.0" y="344.5263157894737" type="curve" smooth="yes"/>
      <point x="687.0" y="172.42105263157896"/>
      <point x="584.3157894736842" y="68.05263157894737"/>
    </contour>
  </outline>
</glyph>
<glyph name="ordfeminine" format="2">
  <advance width="401.7669902912621"/>
  <unicode hex="00AA"/>
  <outline>
    <contour>
      <point x="141.72815533980582" y="330.368932038835" type="curve" smooth="yes"/>
      <point x="188.47572815533977" y="330.368932038835"/>
      <point x="235.33980582524273" y="361.495145631068"/>
      <point x="261.83495145631065" y="397.24271844660194" type="curve"/>
      <point x="269.21359223300965" y="397.24271844660194" type="line"/>
      <point x="283.83495145631065" y="338.62135922330094" type="line"/>
      <point x="379.1650485436893" y="338.62135922330094" type="line"/>
      <point x="362.66019417475724" y="385.37864077669906"/>
      <point x="355.1650485436893" y="427.5145631067961"/>
      <point x="355.1650485436893" y="464.0194174757282" type="curve"/>
      <point x="355.1650485436893" y="499.62135922330094" type="line" smooth="yes"/>
      <point x="355.1650485436893" y="528.990291262136"/>
      <point x="357.2912621359223" y="568.242718446602"/>
      <point x="357.2912621359223" y="592.495145631068" type="curve" smooth="yes"/>
      <point x="357.2912621359223" y="687.1262135922331"/>
      <point x="301.40776699029124" y="727.252427184466"/>
      <point x="212.76699029126215" y="727.252427184466" type="curve" smooth="yes"/>
      <point x="154.62135922330097" y="727.252427184466"/>
      <point x="89.86407766990291" y="709.126213592233"/>
      <point x="51.7378640776699" y="699.252427184466" type="curve"/>
      <point x="55.990291262135926" y="605.6893203883495" type="line"/>
      <point x="107.10679611650484" y="629.1844660194175"/>
      <point x="168.9902912621359" y="644.4368932038835"/>
      <point x="186.7378640776699" y="644.4368932038835" type="curve" smooth="yes"/>
      <point x="238.35922330097088" y="644.4368932038835"/>
      <point x="269.0873786407767" y="630.5631067961165"/>
      <point x="266.3398058252427" y="584.8543689320388" type="curve"/>
      <point x="152.48543689320388" y="562.3592233009708" type="line" smooth="yes"/>
      <point x="103.75728155339806" y="552.8640776699028"/>
      <point x="34.737864077669904" y="522.378640776699"/>
      <point x="34.737864077669904" y="434.62135922330094" type="curve" smooth="yes"/>
      <point x="34.737864077669904" y="375.873786407767"/>
      <point x="71.98058252427184" y="330.368932038835"/>
    </contour>
    <contour>
      <point x="182.65048543689318" y="408.55339805825247" type="curve" smooth="yes"/>
      <point x="152.3009708737864" y="408.55339805825247"/>
      <point x="127.81553398058253" y="422.7961165048544"/>
      <point x="127.81553398058253" y="456.65048543689323" type="curve" smooth="yes"/>
      <point x="127.81553398058253" y="492.378640776699"/>
      <point x="159.41747572815532" y="506.62135922330094"/>
      <point x="190.89320388349515" y="513.3689320388349" type="curve" smooth="yes"/>
      <point x="240.6019417475728" y="524.73786407767"/>
      <point x="253.46601941747574" y="530.3592233009709"/>
      <point x="264.08737864077665" y="537.4854368932039" type="curve"/>
      <point x="264.0873786407767" y="457.7669902912621" type="line"/>
      <point x="245.34951456310682" y="425.41747572815535"/>
      <point x="207.7572815533981" y="408.55339805825247"/>
    </contour>
  </outline>
</glyph>
<glyph name="logicalnot" format="2">
  <advance width="575.7894736842105"/>
  <unicode hex="00AC"/>
  <outline>
    <contour>
      <point x="399.0526315789474" y="53.94736842105263" type="curve"/>
      <point x="526.7368421052631" y="53.94736842105263" type="line"/>
      <point x="522.1052631578947" y="120.89473684210526"/>
      <point x="521.578947368421" y="184.31578947368422"/>
      <point x="521.578947368421" y="239.21052631578948" type="curve"/>
      <point x="521.578947368421" y="364.6315789473684" type="line"/>
      <point x="454.63157894736844" y="360.0"/>
      <point x="391.2105263157895" y="359.4736842105263"/>
      <point x="336.3157894736842" y="359.4736842105263" type="curve"/>
      <point x="239.4736842105263" y="359.4736842105263" type="line"/>
      <point x="184.57894736842104" y="359.4736842105263"/>
      <point x="121.15789473684211" y="360.0"/>
      <point x="54.21052631578947" y="364.6315789473684" type="curve"/>
      <point x="54.21052631578947" y="240.10526315789474" type="line"/>
      <point x="121.15789473684211" y="244.73684210526318"/>
      <point x="184.57894736842104" y="245.26315789473685"/>
      <point x="239.4736842105263" y="245.26315789473685" type="curve"/>
      <point x="336.3157894736842" y="245.26315789473685" type="line"/>
      <point x="385.05263157894734" y="245.26315789473685"/>
      <point x="441.7894736842105" y="244.73684210526318"/>
      <point x="501.05263157894734" y="240.10526315789474" type="curve"/>
      <point x="404.2105263157895" y="326.3157894736842" type="line"/>
      <point x="404.2105263157895" y="239.21052631578948" type="line"/>
      <point x="404.2105263157895" y="184.31578947368422"/>
      <point x="403.6842105263158" y="120.89473684210526"/>
    </contour>
  </outline>
</glyph>
<glyph name="registered" format="2">
  <advance width="575.6842105263158"/>
  <unicode hex="00AE"/>
  <outline>
    <contour>
      <point x="290.36842105263156" y="244.42105263157896" type="curve" smooth="yes"/>
      <point x="453.1578947368421" y="244.42105263157896"/>
      <point x="543.578947368421" y="351.6842105263158"/>
      <point x="543.578947368421" y="496.05263157894734" type="curve" smooth="yes"/>
      <point x="543.578947368421" y="634.3157894736842"/>
      <point x="458.7368421052632" y="746.6315789473684"/>
      <point x="286.7368421052632" y="746.6315789473684" type="curve" smooth="yes"/>
      <point x="117.3157894736842" y="746.6315789473684"/>
      <point x="32.10526315789474" y="635.7894736842105"/>
      <point x="32.10526315789474" y="495.5263157894737" type="curve" smooth="yes"/>
      <point x="32.10526315789474" y="362.89473684210526"/>
      <point x="111.89473684210526" y="244.42105263157896"/>
    </contour>
    <contour>
      <point x="179.63157894736844" y="360.63157894736844" type="curve"/>
      <point x="247.94736842105263" y="360.63157894736844" type="line"/>
      <point x="243.8421052631579" y="392.63157894736844"/>
      <point x="242.78947368421052" y="419.63157894736844"/>
      <point x="242.78947368421052" y="454.63157894736844" type="curve"/>
      <point x="242.78947368421052" y="546.6315789473684" type="line"/>
      <point x="242.78947368421052" y="579.5263157894736"/>
      <point x="243.8421052631579" y="605.9473684210526"/>
      <point x="247.42105263157893" y="636.3684210526316" type="curve"/>
      <point x="178.05263157894737" y="645.6315789473684" type="line"/>
      <point x="182.6842105263158" y="613.6315789473684"/>
      <point x="183.21052631578948" y="585.6315789473684"/>
      <point x="183.21052631578948" y="550.6315789473684" type="curve"/>
      <point x="183.21052631578948" y="454.63157894736844" type="line"/>
      <point x="183.21052631578948" y="419.63157894736844"/>
      <point x="182.6842105263158" y="392.63157894736844"/>
    </contour>
    <contour>
      <point x="289.8421052631579" y="289.6842105263158" type="curve"/>
      <point x="143.57894736842104" y="293.2631578947368"/>
      <point x="81.05263157894737" y="380.3157894736842"/>
      <point x="81.05263157894737" y="495.5263157894737" type="curve" smooth="yes"/>
      <point x="81.05263157894737" y="615.6315789473684"/>
      <point x="147.1578947368421" y="698.3157894736843"/>
      <point x="287.2631578947368" y="701.8947368421053" type="curve"/>
      <point x="428.42105263157896" y="698.3157894736843"/>
      <point x="494.1578947368421" y="615.0"/>
      <point x="494.1578947368421" y="496.05263157894734" type="curve" smooth="yes"/>
      <point x="494.1578947368421" y="373.8947368421053"/>
      <point x="424.2105263157895" y="293.2631578947368"/>
    </contour>
    <contour>
      <point x="344.5263157894737" y="360.63157894736844" type="curve"/>
      <point x="424.4210526315789" y="360.63157894736844" type="line"/>
      <point x="405.5263157894737" y="382.63157894736844"/>
      <point x="382.6842105263158" y="415.1578947368421"/>
      <point x="362.8421052631579" y="443.6842105263158" type="curve"/>
      <point x="323.1578947368421" y="500.7368421052632" type="line"/>
      <point x="299.4736842105263" y="478.89473684210526" type="line"/>
      <point x="371.05263157894734" y="478.89473684210526"/>
      <point x="396.4736842105263" y="517.421052631579"/>
      <point x="396.4736842105263" y="565.0" type="curve" smooth="yes"/>
      <point x="396.4736842105263" y="622.578947368421"/>
      <point x="357.4736842105263" y="647.6842105263158"/>
      <point x="289.36842105263156" y="647.6842105263158" type="curve"/>
      <point x="243.57894736842104" y="647.6842105263158"/>
      <point x="207.3684210526316" y="645.6315789473684"/>
      <point x="178.05263157894737" y="645.6315789473684" type="curve"/>
      <point x="223.78947368421052" y="597.578947368421" type="line"/>
      <point x="286.7894736842105" y="597.578947368421" type="line" smooth="yes"/>
      <point x="304.42105263157896" y="597.578947368421"/>
      <point x="334.3157894736842" y="596.1052631578948"/>
      <point x="334.3157894736842" y="558.6842105263158" type="curve" smooth="yes"/>
      <point x="334.3157894736842" y="523.7368421052631"/>
      <point x="311.2631578947368" y="512.8947368421053"/>
      <point x="277.4736842105263" y="512.8947368421053" type="curve" smooth="yes"/>
      <point x="230.94736842105263" y="512.8947368421053" type="line"/>
      <point x="230.94736842105263" y="472.6842105263158" type="line"/>
      <point x="298.05263157894734" y="472.6842105263158" type="line"/>
      <point x="261.63157894736844" y="495.2105263157895" type="line"/>
      <point x="304.6842105263158" y="430.1578947368421" type="line"/>
      <point x="319.0" y="408.6842105263158"/>
      <point x="333.36842105263156" y="386.10526315789474"/>
    </contour>
  </outline>
</glyph>
<glyph name="degree" format="2">
  <advance width="500.8421052631579"/>
  <unicode hex="00B0"/>
  <outline>
    <contour>
      <point x="250.1578947368421" y="303.2631578947368" type="curve" smooth="yes"/>
      <point x="380.7894736842105" y="303.2631578947368"/>
      <point x="466.10526315789474" y="378.89473684210526"/>
      <point x="466.10526315789474" y="502.63157894736844" type="curve" smooth="yes"/>
      <point x="466.10526315789474" y="615.4736842105264"/>
      <point x="380.7894736842105" y="701.2631578947369"/>
      <point x="251.1578947368421" y="701.2631578947369" type="curve" smooth="yes"/>
      <point x="120.52631578947368" y="701.2631578947369"/>
      <point x="34.73684210526316" y="615.4736842105264"/>
      <point x="34.73684210526316" y="502.63157894736844" type="curve" smooth="yes"/>
      <point x="34.73684210526316" y="378.89473684210526"/>
      <point x="120.52631578947368" y="303.2631578947368"/>
    </contour>
    <contour>
      <point x="250.1578947368421" y="396.36842105263156" type="curve"/>
      <point x="187.26315789473685" y="400.4736842105263"/>
      <point x="144.68421052631578" y="438.10526315789474"/>
      <point x="144.68421052631578" y="501.57894736842104" type="curve" smooth="yes"/>
      <point x="144.68421052631578" y="561.5263157894736"/>
      <point x="186.73684210526315" y="604.0526315789474"/>
      <point x="251.1578947368421" y="608.1578947368421" type="curve"/>
      <point x="315.10526315789474" y="603.5263157894736"/>
      <point x="356.1578947368421" y="559.9473684210526"/>
      <point x="356.1578947368421" y="501.57894736842104" type="curve" smooth="yes"/>
      <point x="356.1578947368421" y="438.10526315789474"/>
      <point x="314.05263157894734" y="400.4736842105263"/>
    </contour>
  </outline>
</glyph>
<glyph name="plusminus" format="2">
  <advance width="575.7894736842105"/>
  <unicode hex="00B1"/>
  <outline>
    <contour>
      <point x="54.21052631578947" y="-5.157894736842105" type="line"/>
      <point x="121.15789473684211" y="-0.5263157894736842"/>
      <point x="184.57894736842104" y="0.0"/>
      <point x="239.4736842105263" y="0.0" type="curve"/>
      <point x="336.3157894736842" y="0.0" type="line"/>
      <point x="391.2105263157895" y="0.0"/>
      <point x="454.63157894736844" y="-0.5263157894736842"/>
      <point x="521.578947368421" y="-5.157894736842105" type="curve"/>
      <point x="521.578947368421" y="119.36842105263158" type="line"/>
      <point x="454.63157894736844" y="114.73684210526315"/>
      <point x="391.2105263157895" y="114.21052631578947"/>
      <point x="336.3157894736842" y="114.21052631578947" type="curve"/>
      <point x="239.4736842105263" y="114.21052631578947" type="line"/>
      <point x="184.57894736842104" y="114.21052631578947"/>
      <point x="121.15789473684211" y="114.73684210526315"/>
      <point x="54.21052631578947" y="119.36842105263158" type="curve"/>
    </contour>
    <contour>
      <point x="54.21052631578947" y="358.89473684210526" type="line"/>
      <point x="121.15789473684211" y="363.52631578947364"/>
      <point x="184.57894736842104" y="364.05263157894734"/>
      <point x="239.4736842105263" y="364.05263157894734" type="curve"/>
      <point x="336.3157894736842" y="364.05263157894734" type="line"/>
      <point x="391.2105263157895" y="364.05263157894734"/>
      <point x="454.63157894736844" y="363.52631578947364"/>
      <point x="521.578947368421" y="358.89473684210526" type="curve"/>
      <point x="521.578947368421" y="483.4210526315789" type="line"/>
      <point x="454.63157894736844" y="478.7894736842105"/>
      <point x="391.2105263157895" y="478.2631578947368"/>
      <point x="336.3157894736842" y="478.2631578947368" type="curve"/>
      <point x="239.4736842105263" y="478.2631578947368" type="line"/>
      <point x="184.57894736842104" y="478.2631578947368"/>
      <point x="121.15789473684211" y="478.7894736842105"/>
      <point x="54.21052631578947" y="483.4210526315789" type="curve"/>
    </contour>
    <contour>
      <point x="224.05263157894737" y="183.26315789473685" type="curve"/>
      <point x="351.7368421052631" y="183.26315789473685" type="line"/>
      <point x="347.10526315789474" y="250.21052631578948"/>
      <point x="346.57894736842104" y="313.63157894736844"/>
      <point x="346.57894736842104" y="368.5263157894737" type="curve"/>
      <point x="346.57894736842104" y="473.7894736842105" type="line"/>
      <point x="346.57894736842104" y="528.6842105263158"/>
      <point x="347.10526315789474" y="592.1052631578947"/>
      <point x="351.7368421052631" y="659.0526315789474" type="curve"/>
      <point x="224.05263157894737" y="659.0526315789474" type="line"/>
      <point x="228.6842105263158" y="592.1052631578947"/>
      <point x="229.21052631578948" y="528.6842105263158"/>
      <point x="229.21052631578948" y="473.7894736842105" type="curve"/>
      <point x="229.21052631578948" y="368.5263157894737" type="line"/>
      <point x="229.21052631578948" y="313.63157894736844"/>
      <point x="228.6842105263158" y="250.21052631578948"/>
    </contour>
  </outline>
</glyph>
<glyph name="micro" format="2">
  <advance width="571.1052631578948"/>
  <unicode hex="00B5"/>
  <outline>
    <contour>
      <point x="48.578947368421055" y="-196.10526315789474" type="curve"/>
      <point x="204.05263157894737" y="-192.0" type="line"/>
      <point x="194.21052631578948" y="-120.15789473684211"/>
      <point x="190.5263157894737" y="-57.78947368421053"/>
      <point x="190.5263157894737" y="17.94736842105263" type="curve" smooth="yes"/>
      <point x="190.5263157894737" y="33.21052631578947" type="line"/>
      <point x="134.89473684210526" y="33.21052631578947" type="line"/>
      <point x="156.26315789473685" y="2.052631578947368"/>
      <point x="188.42105263157896" y="-12.68421052631579"/>
      <point x="233.57894736842107" y="-12.68421052631579" type="curve" smooth="yes"/>
      <point x="284.1578947368421" y="-12.68421052631579"/>
      <point x="345.89473684210526" y="35.10526315789474"/>
      <point x="379.7894736842105" y="83.42105263157895" type="curve"/>
      <point x="391.57894736842104" y="83.42105263157895" type="line"/>
      <point x="412.7894736842105" y="0.0" type="line"/>
      <point x="538.9473684210526" y="0.0" type="line"/>
      <point x="516.6842105263158" y="61.421052631578945"/>
      <point x="507.42105263157896" y="115.94736842105263"/>
      <point x="507.42105263157896" y="164.89473684210526" type="curve"/>
      <point x="507.42105263157896" y="272.05263157894734" type="line"/>
      <point x="507.42105263157896" y="362.57894736842104"/>
      <point x="514.6315789473684" y="426.84210526315786"/>
      <point x="511.0" y="498.2105263157895" type="curve"/>
      <point x="366.5263157894737" y="498.2105263157895" type="line"/>
      <point x="372.68421052631584" y="426.36842105263156"/>
      <point x="376.3684210526316" y="363.05263157894734"/>
      <point x="376.3684210526316" y="287.8421052631579" type="curve"/>
      <point x="376.3684210526316" y="178.99999999999997" type="line"/>
      <point x="346.89473684210526" y="138.57894736842107"/>
      <point x="295.0" y="105.10526315789473"/>
      <point x="265.63157894736844" y="105.10526315789473" type="curve" smooth="yes"/>
      <point x="208.94736842105263" y="105.10526315789473"/>
      <point x="190.5263157894737" y="141.9473684210526"/>
      <point x="190.5263157894737" y="216.3684210526316" type="curve"/>
      <point x="190.5263157894737" y="287.8421052631579" type="line"/>
      <point x="190.5263157894737" y="363.05263157894734"/>
      <point x="196.68421052631578" y="430.4736842105263"/>
      <point x="195.1578947368421" y="502.3157894736842" type="curve"/>
      <point x="47.526315789473685" y="498.2105263157895" type="line"/>
      <point x="54.73684210526316" y="426.36842105263156"/>
      <point x="59.473684210526315" y="363.0526315789474"/>
      <point x="59.473684210526315" y="272.05263157894734" type="curve"/>
      <point x="59.473684210526315" y="24.789473684210527" type="line"/>
      <point x="59.473684210526315" y="-57.78947368421053"/>
      <point x="55.78947368421053" y="-124.26315789473684"/>
    </contour>
  </outline>
</glyph>
<glyph name="paragraph" format="2">
  <advance width="570.421052631579"/>
  <unicode hex="00B6"/>
  <outline>
    <contour>
      <point x="218.68421052631578" y="287.2105263157895" type="curve" smooth="yes"/>
      <point x="239.21052631578948" y="287.2105263157895" type="line"/>
      <point x="239.21052631578948" y="713.0" type="line"/>
      <point x="218.68421052631578" y="713.0" type="line"/>
      <point x="100.21052631578948" y="713.0"/>
      <point x="26.842105263157897" y="625.2105263157895"/>
      <point x="26.842105263157897" y="503.36842105263156" type="curve" smooth="yes"/>
      <point x="26.842105263157897" y="388.5263157894737"/>
      <point x="92.6842105263158" y="287.2105263157895"/>
    </contour>
    <contour>
      <point x="215.6315789473684" y="-175.57894736842104" type="curve"/>
      <point x="311.2105263157895" y="-175.57894736842104" type="line"/>
      <point x="306.0526315789474" y="-57.578947368421055"/>
      <point x="305.5263157894737" y="45.421052631578945"/>
      <point x="305.5263157894737" y="153.42105263157896" type="curve"/>
      <point x="305.5263157894737" y="384.0" type="line"/>
      <point x="305.5263157894737" y="492.0"/>
      <point x="306.0526315789474" y="595.0"/>
      <point x="312.7894736842105" y="713.0" type="curve"/>
      <point x="222.89473684210526" y="713.0" type="line"/>
      <point x="222.89473684210526" y="595.0"/>
      <point x="222.89473684210526" y="492.0"/>
      <point x="222.89473684210526" y="384.0" type="curve"/>
      <point x="222.89473684210526" y="153.42105263157896" type="line"/>
      <point x="222.89473684210526" y="45.421052631578945"/>
      <point x="222.3684210526316" y="-57.578947368421055"/>
    </contour>
    <contour>
      <point x="378.7894736842105" y="-175.57894736842104" type="curve"/>
      <point x="474.36842105263156" y="-175.57894736842104" type="line"/>
      <point x="467.63157894736844" y="-57.578947368421055"/>
      <point x="467.10526315789474" y="45.421052631578945"/>
      <point x="467.10526315789474" y="153.42105263157896" type="curve"/>
      <point x="467.10526315789474" y="384.0" type="line"/>
      <point x="467.10526315789474" y="492.0"/>
      <point x="467.63157894736844" y="595.0"/>
      <point x="474.36842105263156" y="713.0" type="curve"/>
      <point x="377.2105263157895" y="713.0" type="line"/>
      <point x="383.9473684210526" y="595.0"/>
      <point x="384.4736842105263" y="492.0"/>
      <point x="384.4736842105263" y="384.0" type="curve"/>
      <point x="384.4736842105263" y="153.42105263157896" type="line"/>
      <point x="384.4736842105263" y="45.421052631578945"/>
      <point x="383.9473684210526" y="-57.578947368421055"/>
    </contour>
    <contour>
      <point x="263.57894736842104" y="635.6315789473684" type="line"/>
      <point x="360.42105263157896" y="635.6315789473684" type="line"/>
      <point x="415.3157894736842" y="635.6315789473684"/>
      <point x="478.7368421052632" y="635.1052631578948"/>
      <point x="545.6842105263158" y="630.4736842105264" type="curve"/>
      <point x="545.6842105263158" y="713.0" type="line"/>
      <point x="478.7368421052632" y="713.0"/>
      <point x="415.3157894736842" y="713.0"/>
      <point x="360.42105263157896" y="713.0" type="curve"/>
      <point x="263.57894736842104" y="713.0" type="line"/>
    </contour>
  </outline>
</glyph>
<glyph name="ordmasculine" format="2">
  <advance width="458.3157894736842"/>
  <unicode hex="00BA"/>
  <outline>
    <contour>
      <point x="230.68421052631578" y="329.2105263157895" type="curve" smooth="yes"/>
      <point x="353.94736842105266" y="329.2105263157895"/>
      <point x="426.4736842105263" y="416.1578947368421"/>
      <point x="426.4736842105263" y="529.8421052631579" type="curve" smooth="yes"/>
      <point x="426.4736842105263" y="640.9473684210526"/>
      <point x="358.5263157894737" y="727.1052631578947"/>
      <point x="228.57894736842104" y="727.1052631578947" type="curve" smooth="yes"/>
      <point x="102.15789473684211" y="727.1052631578947"/>
      <point x="31.842105263157897" y="642.3684210526316"/>
      <point x="31.842105263157897" y="529.8421052631579" type="curve" smooth="yes"/>
      <point x="31.842105263157897" y="423.7894736842105"/>
      <point x="96.73684210526316" y="329.2105263157895"/>
    </contour>
    <contour>
      <point x="230.1578947368421" y="411.3157894736842" type="curve"/>
      <point x="165.63157894736844" y="414.36842105263156"/>
      <point x="132.36842105263156" y="466.5263157894737"/>
      <point x="132.36842105263156" y="529.8421052631579" type="curve" smooth="yes"/>
      <point x="132.36842105263156" y="593.4736842105264"/>
      <point x="166.0" y="641.9473684210526"/>
      <point x="230.1578947368421" y="645.0" type="curve"/>
      <point x="291.4736842105263" y="640.8947368421053"/>
      <point x="325.42105263157896" y="596.8421052631579"/>
      <point x="325.42105263157896" y="529.8421052631579" type="curve" smooth="yes"/>
      <point x="325.42105263157896" y="467.0"/>
      <point x="294.15789473684214" y="414.36842105263156"/>
    </contour>
  </outline>
</glyph>
